{"glyphs":{"0":{"ha":864,"x_min":100,"x_max":765,"o":"m 419 -10 q 178 91 257 -10 q 100 400 100 192 q 176 728 100 618 q 444 839 253 839 q 688 739 611 839 q 765 428 765 639 q 734 188 765 283 q 626 41 703 92 q 419 -10 550 -10 m 436 72 q 535 80 485 72 q 617 100 585 88 q 675 408 675 239 q 652 611 675 536 q 576 722 629 686 q 428 757 522 757 q 329 749 379 757 q 246 728 279 740 q 188 421 188 594 q 211 218 188 293 q 288 108 235 143 q 436 72 342 72 z "},"1":{"ha":521,"x_min":79,"x_max":376,"o":"m 288 732 l 275 742 l 103 676 l 79 736 l 283 839 q 344 815 311 836 q 376 776 376 794 l 376 0 l 288 0 l 288 732 z "},"2":{"ha":779,"x_min":97,"x_max":676,"o":"m 97 110 q 340 288 244 210 q 496 446 436 365 q 556 606 556 526 q 516 724 556 690 q 385 758 476 758 q 213 731 300 758 l 213 599 l 146 599 q 125 724 125 661 l 125 779 q 253 824 189 808 q 393 839 317 839 q 583 783 522 839 q 643 613 643 726 q 584 423 643 513 q 433 257 525 333 q 203 89 342 181 l 203 78 l 589 78 l 589 176 l 657 176 q 676 58 676 121 l 676 0 l 97 0 l 97 110 z "},"3":{"ha":731,"x_min":88,"x_max":619,"o":"m 338 -11 q 88 22 213 -11 l 103 100 q 339 69 208 69 q 501 85 429 69 q 533 217 533 135 q 490 335 533 297 q 342 372 447 372 l 218 372 l 218 450 l 342 450 q 478 489 433 450 q 524 601 524 528 q 481 721 524 682 q 351 760 438 760 q 179 739 269 760 l 179 619 l 113 619 q 92 736 92 682 l 92 786 q 223 826 161 813 q 360 839 285 839 q 549 780 488 839 q 610 613 610 721 q 579 493 610 538 q 482 418 549 449 l 482 410 q 590 338 560 383 q 619 217 619 293 q 556 49 619 108 q 338 -11 492 -11 z "},"4":{"ha":790,"x_min":74,"x_max":708,"o":"m 506 167 l 99 167 l 74 251 l 482 839 l 589 839 l 589 244 l 708 244 l 708 167 l 589 167 l 589 0 l 506 0 l 506 167 m 506 244 l 506 524 l 515 739 l 506 739 l 169 254 l 172 244 l 506 244 z "},"5":{"ha":732,"x_min":99,"x_max":643,"o":"m 347 -11 q 222 -3 281 -11 q 99 25 164 6 l 111 106 q 356 69 244 69 q 447 75 408 69 q 525 92 485 81 q 556 257 556 171 q 515 390 556 353 q 383 426 475 426 q 290 419 331 426 q 197 392 249 411 l 122 450 l 150 839 l 585 839 l 585 758 l 231 758 l 210 476 q 303 499 261 492 q 393 507 346 507 q 579 449 515 507 q 643 267 643 392 q 576 59 643 129 q 347 -11 508 -11 z "},"6":{"ha":726,"x_min":99,"x_max":657,"o":"m 386 0 q 170 85 242 0 q 99 321 99 169 q 177 610 99 488 q 410 836 256 733 l 486 796 q 289 628 357 710 q 194 436 221 546 q 415 501 303 501 q 597 440 536 501 q 657 257 657 378 q 594 74 657 147 q 386 0 531 0 m 390 79 q 468 84 436 79 q 538 99 500 89 q 568 257 568 165 q 531 384 568 346 q 400 422 494 422 q 186 363 292 422 q 185 321 185 347 q 234 137 185 194 q 390 79 283 79 z "},"7":{"ha":751,"x_min":90,"x_max":665,"o":"m 261 13 q 385 413 308 238 q 574 750 461 588 l 574 758 l 178 758 l 178 638 l 111 638 q 90 764 90 693 l 90 839 l 665 839 l 665 739 q 468 380 542 553 q 351 3 394 207 l 261 13 z "},"8":{"ha":789,"x_min":107,"x_max":683,"o":"m 392 -10 q 179 51 251 -10 q 107 225 107 113 q 135 345 107 303 q 222 431 163 388 l 222 440 q 151 510 174 474 q 128 604 128 546 q 201 776 128 714 q 418 839 275 839 q 604 777 542 839 q 667 601 667 715 q 643 495 667 538 q 571 422 619 453 l 571 411 q 658 331 632 375 q 683 221 683 288 q 615 49 683 107 q 392 -10 547 -10 m 424 457 q 563 476 508 457 q 582 586 582 526 q 564 692 582 656 q 506 744 546 729 q 392 760 465 760 q 238 736 303 760 q 218 675 224 703 q 213 613 213 647 q 263 490 213 524 q 424 457 313 457 m 418 68 q 578 97 513 68 q 596 203 596 143 q 577 313 596 274 q 514 370 558 353 q 390 388 469 388 q 235 372 293 388 q 201 307 211 340 q 192 228 192 274 q 244 102 192 136 q 418 68 296 68 z "},"9":{"ha":731,"x_min":71,"x_max":632,"o":"m 246 40 q 435 194 369 124 q 528 360 500 265 q 426 313 476 329 q 317 297 376 297 q 138 363 204 297 q 71 547 71 429 q 140 755 71 674 q 356 836 210 836 q 564 746 496 836 q 632 499 632 656 q 557 216 632 329 q 321 0 482 103 l 246 40 m 331 375 q 442 389 392 375 q 543 436 492 403 q 546 499 546 475 q 344 757 546 757 q 194 736 257 757 q 167 644 176 689 q 158 547 158 600 q 331 375 158 375 z "},"\u0000":{"ha":694,"x_min":0,"x_max":0,"o":""},"\r":{"ha":361,"x_min":0,"x_max":0,"o":""}," ":{"ha":417,"x_min":0,"x_max":0,"o":""},"A":{"ha":821,"x_min":56,"x_max":765,"o":"m 56 10 q 185 449 114 225 q 324 853 256 674 l 497 853 q 636 449 565 674 q 765 10 707 225 l 672 0 q 593 290 640 129 l 226 290 q 149 0 174 100 l 56 10 m 568 368 q 440 768 486 646 l 379 768 q 250 368 326 625 l 568 368 z "},"Á":{"ha":821,"x_min":56,"x_max":765,"o":"m 375 981 l 490 1178 l 603 1167 l 438 969 l 375 981 m 56 10 q 185 449 114 225 q 324 853 256 674 l 497 853 q 636 449 565 674 q 765 10 707 225 l 672 0 q 593 290 640 129 l 226 290 q 149 0 174 100 l 56 10 m 568 368 q 440 768 486 646 l 379 768 q 250 368 326 625 l 568 368 z "},"Ă":{"ha":821,"x_min":56,"x_max":765,"o":"m 411 969 q 288 1008 331 969 q 233 1117 244 1047 l 315 1131 q 341 1062 321 1085 q 411 1039 361 1039 q 480 1062 460 1039 q 506 1131 500 1085 l 588 1117 q 533 1009 576 1049 q 411 969 490 969 m 56 10 q 185 449 114 225 q 324 853 256 674 l 497 853 q 636 449 565 674 q 765 10 707 225 l 672 0 q 593 290 640 129 l 226 290 q 149 0 174 100 l 56 10 m 568 368 q 440 768 486 646 l 379 768 q 250 368 326 625 l 568 368 z "},"Ắ":{"ha":821,"x_min":56,"x_max":765,"o":"m 376 1190 l 461 1336 l 542 1322 l 429 1178 l 376 1190 m 410 969 q 286 1008 329 969 q 232 1117 243 1047 l 314 1131 q 340 1062 319 1085 q 410 1039 360 1039 q 478 1062 458 1039 q 504 1131 499 1085 l 586 1117 q 532 1009 575 1049 q 410 969 489 969 m 56 10 q 185 449 114 225 q 324 853 256 674 l 497 853 q 636 449 565 674 q 765 10 707 225 l 672 0 q 593 290 640 129 l 226 290 q 149 0 174 100 l 56 10 m 568 368 q 440 768 486 646 l 379 768 q 250 368 326 625 l 568 368 z "},"Ặ":{"ha":821,"x_min":56,"x_max":765,"o":"m 410 969 q 286 1008 329 969 q 232 1117 243 1047 l 314 1131 q 340 1062 319 1085 q 410 1039 360 1039 q 478 1062 458 1039 q 504 1131 499 1085 l 586 1117 q 532 1009 575 1049 q 410 969 489 969 m 56 10 q 185 449 114 225 q 324 853 256 674 l 497 853 q 636 449 565 674 q 765 10 707 225 l 672 0 q 593 290 640 129 l 226 290 q 149 0 174 100 l 56 10 m 568 368 q 440 768 486 646 l 379 768 q 250 368 326 625 l 568 368 m 411 -228 q 360 -210 379 -228 q 342 -162 342 -193 q 360 -112 342 -129 q 411 -94 378 -94 q 463 -112 444 -94 q 481 -162 481 -129 q 463 -210 481 -193 q 411 -228 444 -228 z "},"Ằ":{"ha":821,"x_min":56,"x_max":765,"o":"m 278 1322 l 360 1336 l 443 1190 l 390 1178 l 278 1322 m 410 969 q 286 1008 329 969 q 232 1117 243 1047 l 314 1131 q 340 1062 319 1085 q 410 1039 360 1039 q 478 1062 458 1039 q 504 1131 499 1085 l 586 1117 q 532 1009 575 1049 q 410 969 489 969 m 56 10 q 185 449 114 225 q 324 853 256 674 l 497 853 q 636 449 565 674 q 765 10 707 225 l 672 0 q 593 290 640 129 l 226 290 q 149 0 174 100 l 56 10 m 568 368 q 440 768 486 646 l 379 768 q 250 368 326 625 l 568 368 z "},"Ẳ":{"ha":821,"x_min":56,"x_max":765,"o":"m 378 1214 l 378 1249 q 443 1256 425 1249 q 461 1281 461 1263 q 452 1303 461 1296 q 421 1311 443 1311 q 365 1300 394 1311 l 353 1344 q 429 1360 394 1360 q 517 1282 517 1360 q 431 1208 517 1211 l 431 1160 l 390 1160 l 378 1214 m 410 969 q 286 1008 329 969 q 232 1117 243 1047 l 314 1131 q 340 1062 319 1085 q 410 1039 360 1039 q 478 1062 458 1039 q 504 1131 499 1085 l 586 1117 q 532 1009 575 1049 q 410 969 489 969 m 56 10 q 185 449 114 225 q 324 853 256 674 l 497 853 q 636 449 565 674 q 765 10 707 225 l 672 0 q 593 290 640 129 l 226 290 q 149 0 174 100 l 56 10 m 568 368 q 440 768 486 646 l 379 768 q 250 368 326 625 l 568 368 z "},"Ẵ":{"ha":821,"x_min":56,"x_max":765,"o":"m 251 1218 q 343 1314 261 1314 q 424 1286 379 1314 q 472 1268 457 1268 q 528 1319 517 1268 l 574 1306 q 482 1208 564 1208 q 447 1215 463 1208 q 410 1233 431 1221 q 381 1249 393 1244 q 354 1254 368 1254 q 299 1203 307 1254 l 251 1218 m 411 969 q 288 1008 331 969 q 233 1117 244 1047 l 315 1131 q 341 1062 321 1085 q 411 1039 361 1039 q 480 1062 460 1039 q 506 1131 500 1085 l 588 1117 q 533 1009 576 1049 q 411 969 490 969 m 56 10 q 185 449 114 225 q 324 853 256 674 l 497 853 q 636 449 565 674 q 765 10 707 225 l 672 0 q 593 290 640 129 l 226 290 q 149 0 174 100 l 56 10 m 568 368 q 440 768 486 646 l 379 768 q 250 368 326 625 l 568 368 z "},"Ǎ":{"ha":821,"x_min":56,"x_max":765,"o":"m 228 1165 l 282 1176 l 406 1054 l 414 1054 l 535 1176 l 592 1165 l 451 981 l 368 981 l 228 1165 m 56 10 q 185 449 114 225 q 324 853 256 674 l 497 853 q 636 449 565 674 q 765 10 707 225 l 672 0 q 593 290 640 129 l 226 290 q 149 0 174 100 l 56 10 m 568 368 q 440 768 486 646 l 379 768 q 250 368 326 625 l 568 368 z "},"Â":{"ha":821,"x_min":56,"x_max":765,"o":"m 228 981 l 368 1165 l 451 1165 l 592 981 l 535 969 l 414 1092 l 406 1092 l 282 969 l 228 981 m 56 10 q 185 449 114 225 q 324 853 256 674 l 497 853 q 636 449 565 674 q 765 10 707 225 l 672 0 q 593 290 640 129 l 226 290 q 149 0 174 100 l 56 10 m 568 368 q 440 768 486 646 l 379 768 q 250 368 326 625 l 568 368 z "},"Ấ":{"ha":821,"x_min":56,"x_max":765,"o":"m 583 1106 l 668 1251 l 749 1238 l 636 1093 l 583 1106 m 228 981 l 368 1165 l 451 1165 l 592 981 l 535 969 l 414 1092 l 406 1092 l 282 969 l 228 981 m 56 10 q 185 449 114 225 q 324 853 256 674 l 497 853 q 636 449 565 674 q 765 10 707 225 l 672 0 q 593 290 640 129 l 226 290 q 149 0 174 100 l 56 10 m 568 368 q 440 768 486 646 l 379 768 q 250 368 326 625 l 568 368 z "},"Ậ":{"ha":821,"x_min":56,"x_max":765,"o":"m 228 979 l 368 1164 l 451 1164 l 592 979 l 535 968 l 414 1090 l 406 1090 l 282 968 l 228 979 m 56 10 q 185 449 114 225 q 324 853 256 674 l 497 853 q 636 449 565 674 q 765 10 707 225 l 672 0 q 593 290 640 129 l 226 290 q 149 0 174 100 l 56 10 m 568 368 q 440 768 486 646 l 379 768 q 250 368 326 625 l 568 368 m 408 -228 q 358 -210 376 -228 q 339 -162 339 -193 q 357 -112 339 -129 q 408 -94 375 -94 q 460 -112 442 -94 q 478 -162 478 -129 q 460 -210 478 -193 q 408 -228 442 -228 z "},"Ầ":{"ha":821,"x_min":56,"x_max":765,"o":"m 71 1236 l 153 1251 l 236 1104 l 183 1093 l 71 1236 m 229 981 l 369 1164 l 451 1164 l 593 981 l 539 968 l 414 1092 l 407 1092 l 285 968 l 229 981 m 56 10 q 185 449 114 225 q 324 853 256 674 l 497 853 q 636 449 565 674 q 765 10 707 225 l 672 0 q 593 290 640 129 l 226 290 q 149 0 174 100 l 56 10 m 568 368 q 440 768 486 646 l 379 768 q 250 368 326 625 l 568 368 z "},"Ẩ":{"ha":821,"x_min":56,"x_max":765,"o":"m 574 1174 l 574 1207 q 639 1215 621 1207 q 657 1240 657 1222 q 648 1263 657 1256 q 617 1271 639 1271 q 561 1260 590 1271 l 549 1304 q 625 1318 586 1318 q 713 1240 713 1318 q 626 1167 713 1169 l 626 1119 l 586 1119 l 574 1174 m 226 981 l 367 1165 l 450 1165 l 590 981 l 533 969 l 413 1092 l 404 1092 l 281 969 l 226 981 m 56 10 q 185 449 114 225 q 324 853 256 674 l 497 853 q 636 449 565 674 q 765 10 707 225 l 672 0 q 593 290 640 129 l 226 290 q 149 0 174 100 l 56 10 m 568 368 q 440 768 486 646 l 379 768 q 250 368 326 625 l 568 368 z "},"Ẫ":{"ha":821,"x_min":56,"x_max":765,"o":"m 246 1250 q 338 1347 256 1347 q 418 1319 374 1347 q 467 1301 451 1301 q 522 1353 511 1301 l 568 1338 q 476 1240 558 1240 q 441 1247 457 1240 q 404 1265 425 1253 q 375 1281 388 1276 q 349 1286 363 1286 q 293 1236 301 1286 l 246 1250 m 228 981 l 368 1164 l 451 1164 l 592 981 l 535 968 l 414 1092 l 406 1092 l 282 968 l 228 981 m 56 10 q 185 449 114 225 q 324 853 256 674 l 497 853 q 636 449 565 674 q 765 10 707 225 l 672 0 q 593 290 640 129 l 226 290 q 149 0 174 100 l 56 10 m 568 368 q 440 768 486 646 l 379 768 q 250 368 326 625 l 568 368 z "},"Ä":{"ha":821,"x_min":56,"x_max":765,"o":"m 301 974 q 262 988 276 974 q 247 1025 247 1001 q 262 1063 247 1050 q 301 1076 276 1076 q 340 1063 326 1076 q 354 1025 354 1050 q 340 988 354 1001 q 301 974 326 974 m 521 974 q 480 988 494 974 q 465 1025 465 1001 q 480 1063 465 1050 q 521 1076 494 1076 q 560 1063 546 1076 q 574 1025 574 1050 q 560 988 574 1001 q 521 974 546 974 m 56 10 q 185 449 114 225 q 324 853 256 674 l 497 853 q 636 449 565 674 q 765 10 707 225 l 672 0 q 593 290 640 129 l 226 290 q 149 0 174 100 l 56 10 m 568 368 q 440 768 486 646 l 379 768 q 250 368 326 625 l 568 368 z "},"Ạ":{"ha":821,"x_min":56,"x_max":765,"o":"m 56 10 q 185 449 114 225 q 324 853 256 674 l 497 853 q 636 449 565 674 q 765 10 707 225 l 672 0 q 593 290 640 129 l 226 290 q 149 0 174 100 l 56 10 m 568 368 q 440 768 486 646 l 379 768 q 250 368 326 625 l 568 368 m 408 -221 q 358 -203 376 -221 q 339 -156 339 -186 q 357 -105 339 -122 q 408 -87 375 -87 q 460 -105 442 -87 q 478 -156 478 -122 q 460 -203 478 -186 q 408 -221 442 -221 z "},"À":{"ha":821,"x_min":56,"x_max":765,"o":"m 219 1168 l 332 1181 l 447 982 l 385 972 l 219 1168 m 56 10 q 185 449 114 225 q 324 853 256 674 l 497 853 q 636 449 565 674 q 765 10 707 225 l 672 0 q 593 290 640 129 l 226 290 q 149 0 174 100 l 56 10 m 568 368 q 440 768 486 646 l 379 768 q 250 368 326 625 l 568 368 z "},"Ả":{"ha":821,"x_min":56,"x_max":765,"o":"m 371 1050 l 371 1089 q 468 1098 442 1089 q 494 1139 494 1107 q 480 1175 494 1164 q 431 1186 465 1186 q 356 1174 392 1186 l 338 1225 q 443 1246 386 1246 q 533 1217 504 1246 q 563 1140 563 1189 q 435 1038 563 1042 l 435 982 l 388 982 l 371 1050 m 56 10 q 185 449 114 225 q 324 853 256 674 l 497 853 q 636 449 565 674 q 765 10 707 225 l 672 0 q 593 290 640 129 l 226 290 q 149 0 174 100 l 56 10 m 568 368 q 440 768 486 646 l 379 768 q 250 368 326 625 l 568 368 z "},"Ā":{"ha":821,"x_min":56,"x_max":765,"o":"m 238 1054 l 582 1054 l 582 981 l 238 981 l 238 1054 m 56 10 q 185 449 114 225 q 324 853 256 674 l 497 853 q 636 449 565 674 q 765 10 707 225 l 672 0 q 593 290 640 129 l 226 290 q 149 0 174 100 l 56 10 m 568 368 q 440 768 486 646 l 379 768 q 250 368 326 625 l 568 368 z "},"Ą":{"ha":825,"x_min":56,"x_max":782,"o":"m 699 -224 q 606 -195 639 -224 q 572 -115 572 -167 q 597 -39 572 -69 q 669 14 622 -8 q 593 290 628 163 l 226 290 q 149 0 174 100 l 56 10 q 185 449 114 225 q 324 853 256 674 l 497 853 q 636 449 565 674 q 765 10 707 225 l 732 6 q 667 -47 685 -21 q 649 -111 649 -74 q 657 -153 649 -135 q 711 -158 679 -158 q 768 -151 733 -158 l 782 -208 q 699 -224 747 -224 m 568 368 q 440 768 486 646 l 379 768 q 250 368 326 625 l 568 368 z "},"Å":{"ha":821,"x_min":56,"x_max":765,"o":"m 399 969 q 294 1000 332 969 q 257 1089 257 1031 q 301 1181 257 1143 q 419 1219 344 1219 q 525 1188 488 1219 q 563 1097 563 1156 q 518 1006 563 1043 q 399 969 474 969 m 403 1024 q 490 1033 456 1024 q 500 1094 500 1069 q 478 1147 500 1128 q 417 1165 457 1165 q 329 1156 360 1165 q 319 1092 319 1126 q 341 1042 319 1060 q 403 1024 363 1024 m 56 10 q 185 449 114 225 q 324 853 256 674 l 497 853 q 636 449 565 674 q 765 10 707 225 l 672 0 q 593 290 640 129 l 226 290 q 149 0 174 100 l 56 10 m 568 368 q 440 768 486 646 l 379 768 q 250 368 326 625 l 568 368 z "},"Ǻ":{"ha":821,"x_min":56,"x_max":765,"o":"m 358 1303 l 474 1500 l 586 1489 l 421 1292 l 358 1303 m 397 957 q 293 988 331 957 q 256 1076 256 1018 q 299 1170 256 1132 q 418 1208 343 1208 q 524 1176 486 1208 q 561 1085 561 1144 q 517 994 561 1031 q 397 957 472 957 m 401 1011 q 489 1022 456 1011 q 499 1082 499 1057 q 477 1135 499 1115 q 415 1154 456 1154 q 328 1143 363 1154 q 318 1079 318 1115 q 340 1029 318 1047 q 401 1011 361 1011 m 56 10 q 185 449 114 225 q 324 853 256 674 l 497 853 q 636 449 565 674 q 765 10 707 225 l 672 0 q 593 290 640 129 l 226 290 q 149 0 174 100 l 56 10 m 568 368 q 440 768 486 646 l 379 768 q 250 368 326 625 l 568 368 z "},"Ã":{"ha":821,"x_min":56,"x_max":765,"o":"m 211 989 q 319 1114 219 1114 q 359 1105 340 1114 q 407 1078 378 1096 q 446 1054 432 1061 q 475 1047 460 1047 q 536 1117 526 1047 l 593 1099 q 485 974 585 974 q 442 983 461 974 q 394 1011 422 993 q 359 1033 374 1026 q 329 1040 344 1040 q 286 1022 300 1040 q 268 971 272 1004 l 211 989 m 56 10 q 185 449 114 225 q 324 853 256 674 l 497 853 q 636 449 565 674 q 765 10 707 225 l 672 0 q 593 290 640 129 l 226 290 q 149 0 174 100 l 56 10 m 568 368 q 440 768 486 646 l 379 768 q 250 368 326 625 l 568 368 z "},"Æ":{"ha":1314,"x_min":68,"x_max":1213,"o":"m 965 -14 q 758 12 833 -14 q 682 101 682 38 l 682 292 l 301 292 q 151 0 242 181 l 68 28 q 517 853 278 454 l 1197 853 l 1197 772 l 768 772 l 768 467 l 1157 467 l 1157 389 l 768 389 l 768 83 q 969 67 857 67 q 1193 89 1094 67 l 1213 13 q 965 -14 1111 -14 m 682 369 l 682 768 l 567 768 q 343 369 463 596 l 682 369 z "},"Ǽ":{"ha":1314,"x_min":68,"x_max":1213,"o":"m 726 981 l 842 1178 l 954 1167 l 789 969 l 726 981 m 965 -14 q 758 12 833 -14 q 682 101 682 38 l 682 292 l 301 292 q 151 0 242 181 l 68 28 q 517 853 278 454 l 1197 853 l 1197 772 l 768 772 l 768 467 l 1157 467 l 1157 389 l 768 389 l 768 83 q 969 67 857 67 q 1193 89 1094 67 l 1213 13 q 965 -14 1111 -14 m 682 369 l 682 768 l 567 768 q 343 369 463 596 l 682 369 z "},"B":{"ha":743,"x_min":113,"x_max":672,"o":"m 113 836 q 335 867 226 867 q 558 808 485 867 q 631 632 631 749 q 518 438 631 506 l 518 431 q 672 239 672 381 q 642 107 672 158 q 540 28 613 56 q 339 0 467 0 l 113 0 l 113 836 m 471 469 q 544 631 544 533 q 492 750 544 714 q 331 786 440 786 q 199 774 274 786 l 199 469 l 471 469 m 329 79 q 487 96 431 79 q 565 146 543 113 q 586 235 586 179 q 538 348 586 306 q 394 390 489 390 l 199 390 l 199 79 l 329 79 z "},"C":{"ha":771,"x_min":79,"x_max":707,"o":"m 440 -12 q 79 404 79 -12 q 167 740 79 614 q 433 867 256 867 q 570 851 504 867 q 674 813 636 836 l 674 749 q 658 656 674 693 l 601 656 l 588 769 q 432 785 524 785 q 260 761 346 785 q 167 410 167 622 q 233 151 167 233 q 443 69 299 69 q 567 85 508 69 q 667 126 626 100 l 707 61 q 594 6 663 25 q 440 -12 525 -12 z "},"Ć":{"ha":771,"x_min":79,"x_max":707,"o":"m 394 981 l 510 1178 l 622 1167 l 457 969 l 394 981 m 440 -12 q 79 404 79 -12 q 167 740 79 614 q 433 867 256 867 q 570 851 504 867 q 674 813 636 836 l 674 749 q 658 656 674 693 l 601 656 l 588 769 q 432 785 524 785 q 260 761 346 785 q 167 410 167 622 q 233 151 167 233 q 443 69 299 69 q 567 85 508 69 q 667 126 626 100 l 707 61 q 594 6 663 25 q 440 -12 525 -12 z "},"Č":{"ha":765,"x_min":74,"x_max":701,"o":"m 239 1165 l 293 1176 l 417 1054 l 425 1054 l 546 1176 l 603 1165 l 463 981 l 379 981 l 239 1165 m 435 -12 q 74 404 74 -12 q 162 740 74 614 q 428 867 250 867 q 565 851 499 867 q 668 813 631 836 l 668 749 q 653 656 668 693 l 596 656 l 582 769 q 426 785 518 785 q 254 761 340 785 q 161 410 161 622 q 227 151 161 233 q 438 69 293 69 q 562 85 503 69 q 661 126 621 100 l 701 61 q 588 6 657 25 q 435 -12 519 -12 z "},"Ç":{"ha":771,"x_min":79,"x_max":707,"o":"m 414 -300 q 297 -278 349 -300 l 317 -222 q 411 -239 358 -239 q 481 -232 446 -239 q 489 -186 489 -211 q 425 -135 489 -135 q 364 -144 389 -135 l 314 -94 l 385 -10 q 155 111 231 6 q 79 404 79 217 q 167 740 79 614 q 433 867 256 867 q 570 851 504 867 q 674 813 636 836 l 674 749 q 658 656 674 693 l 601 656 l 588 769 q 432 785 524 785 q 260 761 346 785 q 167 410 167 622 q 233 151 167 233 q 443 69 299 69 q 567 85 508 69 q 667 126 626 100 l 707 61 q 476 -11 624 -3 l 450 -12 l 394 -89 q 457 -78 421 -78 q 561 -181 561 -78 q 414 -300 561 -300 z "},"Ĉ":{"ha":771,"x_min":79,"x_max":707,"o":"m 253 981 l 393 1164 l 476 1164 l 617 981 l 560 968 l 439 1092 l 431 1092 l 307 968 l 253 981 m 440 -12 q 79 404 79 -12 q 167 740 79 614 q 433 867 256 867 q 570 851 504 867 q 674 813 636 836 l 674 749 q 658 656 674 693 l 601 656 l 588 769 q 432 785 524 785 q 260 761 346 785 q 167 410 167 622 q 233 151 167 233 q 443 69 299 69 q 567 85 508 69 q 667 126 626 100 l 707 61 q 594 6 663 25 q 440 -12 525 -12 z "},"Ċ":{"ha":771,"x_min":79,"x_max":707,"o":"m 439 974 q 388 991 407 974 q 369 1039 369 1008 q 388 1090 369 1072 q 439 1107 406 1107 q 490 1090 472 1107 q 508 1039 508 1072 q 490 991 508 1008 q 439 974 472 974 m 440 -12 q 79 404 79 -12 q 167 740 79 614 q 433 867 256 867 q 570 851 504 867 q 674 813 636 836 l 674 749 q 658 656 674 693 l 601 656 l 588 769 q 432 785 524 785 q 260 761 346 785 q 167 410 167 622 q 233 151 167 233 q 443 69 299 69 q 567 85 508 69 q 667 126 626 100 l 707 61 q 594 6 663 25 q 440 -12 525 -12 z "},"D":{"ha":796,"x_min":113,"x_max":726,"o":"m 113 840 q 346 867 226 867 q 638 758 549 867 q 726 439 726 650 q 693 206 726 301 q 573 56 660 111 q 332 0 486 0 l 113 0 l 113 840 m 331 81 q 561 108 465 81 q 619 244 599 160 q 639 431 639 328 q 610 632 639 554 q 517 748 582 710 q 340 786 451 786 q 200 775 282 786 l 200 81 l 331 81 z "},"Ð":{"ha":878,"x_min":63,"x_max":810,"o":"m 196 413 l 63 413 l 63 482 l 196 482 l 196 840 q 428 867 308 867 q 720 758 631 867 q 810 439 810 650 q 776 206 810 301 q 656 56 743 111 q 415 0 569 0 l 196 0 l 196 413 m 414 81 q 644 108 549 81 q 702 244 682 160 q 722 431 722 328 q 694 632 722 554 q 600 748 665 710 q 424 786 535 786 q 283 775 365 786 l 283 482 l 438 482 l 438 413 l 283 413 l 283 81 l 414 81 z "},"Ď":{"ha":796,"x_min":113,"x_max":726,"o":"m 210 1165 l 264 1176 l 388 1054 l 396 1054 l 517 1176 l 574 1165 l 433 981 l 350 981 l 210 1165 m 113 840 q 346 867 226 867 q 638 758 549 867 q 726 439 726 650 q 693 206 726 301 q 573 56 660 111 q 332 0 486 0 l 113 0 l 113 840 m 331 81 q 561 108 465 81 q 619 244 599 160 q 639 431 639 328 q 610 632 639 554 q 517 748 582 710 q 340 786 451 786 q 200 775 282 786 l 200 81 l 331 81 z "},"Đ":{"ha":858,"x_min":63,"x_max":789,"o":"m 175 386 l 63 386 l 63 464 l 175 464 l 175 840 q 408 867 289 867 q 700 758 611 867 q 789 439 789 650 q 756 206 789 301 q 635 56 722 111 q 394 0 549 0 l 175 0 l 175 386 m 393 81 q 624 108 528 81 q 681 244 661 160 q 701 431 701 328 q 673 632 701 554 q 579 748 644 710 q 403 786 514 786 q 263 775 344 786 l 263 464 l 397 464 l 397 386 l 263 386 l 263 81 l 393 81 z "},"Ḍ":{"ha":796,"x_min":113,"x_max":726,"o":"m 113 840 q 346 867 226 867 q 638 758 549 867 q 726 439 726 650 q 693 206 726 301 q 573 56 660 111 q 332 0 486 0 l 113 0 l 113 840 m 331 81 q 561 108 465 81 q 619 244 599 160 q 639 431 639 328 q 610 632 639 554 q 517 748 582 710 q 340 786 451 786 q 200 775 282 786 l 200 81 l 331 81 m 400 -221 q 349 -203 368 -221 q 331 -156 331 -186 q 349 -105 331 -122 q 400 -87 367 -87 q 451 -105 433 -87 q 469 -156 469 -122 q 451 -203 469 -186 q 400 -221 433 -221 z "},"Ḏ":{"ha":797,"x_min":113,"x_max":728,"o":"m 114 840 q 347 867 228 867 q 639 758 550 867 q 728 439 728 650 q 694 206 728 301 q 574 56 661 111 q 333 0 488 0 l 114 0 l 114 840 m 332 81 q 563 108 467 81 q 620 244 600 160 q 640 431 640 328 q 612 632 640 554 q 518 748 583 710 q 342 786 453 786 q 201 775 283 786 l 201 81 l 332 81 m 113 -99 l 532 -99 l 532 -178 l 113 -178 l 113 -99 z "},"E":{"ha":726,"x_min":113,"x_max":643,"o":"m 397 -12 q 189 14 265 -12 q 113 103 113 40 l 113 853 l 628 853 l 628 772 l 199 772 l 199 467 l 588 467 l 588 389 l 199 389 l 199 85 q 401 68 288 68 q 624 90 526 68 l 643 14 q 397 -12 543 -12 z "},"É":{"ha":733,"x_min":113,"x_max":643,"o":"m 325 982 l 440 1181 l 553 1168 l 388 972 l 325 982 m 397 -12 q 189 14 265 -12 q 113 103 113 40 l 113 853 l 628 853 l 628 772 l 199 772 l 199 467 l 588 467 l 588 389 l 199 389 l 199 85 q 401 68 288 68 q 624 90 526 68 l 643 14 q 397 -12 543 -12 z "},"Ĕ":{"ha":733,"x_min":113,"x_max":643,"o":"m 389 974 q 265 1013 308 974 q 211 1121 222 1051 l 293 1135 q 319 1066 299 1089 q 389 1043 339 1043 q 458 1066 438 1043 q 483 1135 478 1089 l 565 1121 q 511 1013 554 1053 q 389 974 468 974 m 397 -12 q 189 14 265 -12 q 113 103 113 40 l 113 853 l 628 853 l 628 772 l 199 772 l 199 467 l 588 467 l 588 389 l 199 389 l 199 85 q 401 68 288 68 q 624 90 526 68 l 643 14 q 397 -12 543 -12 z "},"Ě":{"ha":733,"x_min":113,"x_max":643,"o":"m 197 1165 l 251 1176 l 375 1054 l 383 1054 l 504 1176 l 561 1165 l 421 981 l 338 981 l 197 1165 m 397 -12 q 189 14 265 -12 q 113 103 113 40 l 113 853 l 628 853 l 628 772 l 199 772 l 199 467 l 588 467 l 588 389 l 199 389 l 199 85 q 401 68 288 68 q 624 90 526 68 l 643 14 q 397 -12 543 -12 z "},"Ê":{"ha":733,"x_min":113,"x_max":643,"o":"m 189 981 l 329 1164 l 413 1164 l 553 981 l 496 968 l 375 1092 l 367 1092 l 243 968 l 189 981 m 397 -12 q 189 14 265 -12 q 113 103 113 40 l 113 853 l 628 853 l 628 772 l 199 772 l 199 467 l 588 467 l 588 389 l 199 389 l 199 85 q 401 68 288 68 q 624 90 526 68 l 643 14 q 397 -12 543 -12 z "},"Ế":{"ha":746,"x_min":113,"x_max":711,"o":"m 546 1106 l 631 1251 l 711 1238 l 599 1093 l 546 1106 m 190 981 l 331 1165 l 414 1165 l 554 981 l 497 969 l 376 1092 l 368 1092 l 244 969 l 190 981 m 397 -12 q 189 14 265 -12 q 113 103 113 40 l 113 853 l 628 853 l 628 772 l 199 772 l 199 467 l 588 467 l 588 389 l 199 389 l 199 85 q 401 68 288 68 q 624 90 526 68 l 643 14 q 397 -12 543 -12 z "},"Ệ":{"ha":747,"x_min":113,"x_max":643,"o":"m 206 981 l 346 1165 l 429 1165 l 569 981 l 513 969 l 392 1092 l 383 1092 l 260 969 l 206 981 m 397 -12 q 189 14 265 -12 q 113 103 113 40 l 113 853 l 628 853 l 628 772 l 199 772 l 199 467 l 588 467 l 588 389 l 199 389 l 199 85 q 401 68 288 68 q 624 90 526 68 l 643 14 q 397 -12 543 -12 m 385 -228 q 334 -210 353 -228 q 315 -162 315 -193 q 333 -112 315 -129 q 385 -94 351 -94 q 436 -112 418 -94 q 454 -162 454 -129 q 436 -210 454 -193 q 385 -228 418 -228 z "},"Ề":{"ha":743,"x_min":43,"x_max":653,"o":"m 43 1240 l 125 1254 l 208 1108 l 156 1096 l 43 1240 m 201 983 l 342 1168 l 424 1168 l 565 983 l 511 972 l 386 1094 l 379 1094 l 257 972 l 201 983 m 407 -12 q 199 14 275 -12 q 122 103 122 40 l 122 853 l 638 853 l 638 772 l 208 772 l 208 467 l 597 467 l 597 389 l 208 389 l 208 85 q 411 68 297 68 q 633 90 536 68 l 653 14 q 407 -12 553 -12 z "},"Ể":{"ha":750,"x_min":113,"x_max":675,"o":"m 536 1172 l 536 1207 q 601 1214 583 1207 q 619 1239 619 1221 q 610 1263 619 1256 q 579 1269 601 1269 q 524 1258 553 1269 l 511 1303 q 588 1318 553 1318 q 675 1240 675 1318 q 589 1167 675 1169 l 589 1118 l 549 1118 l 536 1172 m 189 981 l 329 1164 l 413 1164 l 553 981 l 496 968 l 375 1092 l 367 1092 l 243 968 l 189 981 m 397 -12 q 189 14 265 -12 q 113 103 113 40 l 113 853 l 628 853 l 628 772 l 199 772 l 199 467 l 588 467 l 588 389 l 199 389 l 199 85 q 401 68 288 68 q 624 90 526 68 l 643 14 q 397 -12 543 -12 z "},"Ễ":{"ha":733,"x_min":113,"x_max":643,"o":"m 208 1250 q 300 1347 218 1347 q 381 1319 336 1347 q 429 1301 414 1301 q 485 1353 474 1301 l 531 1338 q 439 1240 521 1240 q 403 1247 419 1240 q 367 1265 388 1253 q 338 1281 350 1276 q 311 1286 325 1286 q 256 1236 264 1286 l 208 1250 m 190 981 l 331 1164 l 414 1164 l 554 981 l 497 968 l 376 1092 l 368 1092 l 244 968 l 190 981 m 397 -12 q 189 14 265 -12 q 113 103 113 40 l 113 853 l 628 853 l 628 772 l 199 772 l 199 467 l 588 467 l 588 389 l 199 389 l 199 85 q 401 68 288 68 q 624 90 526 68 l 643 14 q 397 -12 543 -12 z "},"Ë":{"ha":733,"x_min":113,"x_max":643,"o":"m 272 974 q 233 988 247 974 q 218 1025 218 1001 q 233 1063 218 1050 q 272 1076 247 1076 q 311 1063 297 1076 q 325 1025 325 1050 q 311 988 325 1001 q 272 974 297 974 m 492 974 q 451 988 465 974 q 436 1025 436 1001 q 451 1063 436 1050 q 492 1076 465 1076 q 531 1063 517 1076 q 544 1025 544 1050 q 531 988 544 1001 q 492 974 517 974 m 397 -12 q 189 14 265 -12 q 113 103 113 40 l 113 853 l 628 853 l 628 772 l 199 772 l 199 467 l 588 467 l 588 389 l 199 389 l 199 85 q 401 68 288 68 q 624 90 526 68 l 643 14 q 397 -12 543 -12 z "},"Ė":{"ha":733,"x_min":113,"x_max":643,"o":"m 383 974 q 333 991 351 974 q 314 1039 314 1008 q 332 1090 314 1072 q 383 1107 350 1107 q 435 1090 417 1107 q 453 1039 453 1072 q 435 991 453 1008 q 383 974 417 974 m 397 -12 q 189 14 265 -12 q 113 103 113 40 l 113 853 l 628 853 l 628 772 l 199 772 l 199 467 l 588 467 l 588 389 l 199 389 l 199 85 q 401 68 288 68 q 624 90 526 68 l 643 14 q 397 -12 543 -12 z "},"Ẹ":{"ha":733,"x_min":113,"x_max":643,"o":"m 397 -12 q 189 14 265 -12 q 113 103 113 40 l 113 853 l 628 853 l 628 772 l 199 772 l 199 467 l 588 467 l 588 389 l 199 389 l 199 85 q 401 68 288 68 q 624 90 526 68 l 643 14 q 397 -12 543 -12 m 392 -221 q 341 -203 360 -221 q 322 -156 322 -186 q 340 -105 322 -122 q 392 -87 358 -87 q 443 -105 425 -87 q 461 -156 461 -122 q 443 -203 461 -186 q 392 -221 425 -221 z "},"È":{"ha":733,"x_min":113,"x_max":643,"o":"m 214 1167 l 326 1178 l 442 981 l 379 969 l 214 1167 m 397 -12 q 189 14 265 -12 q 113 103 113 40 l 113 853 l 628 853 l 628 772 l 199 772 l 199 467 l 588 467 l 588 389 l 199 389 l 199 85 q 401 68 288 68 q 624 90 526 68 l 643 14 q 397 -12 543 -12 z "},"Ẻ":{"ha":733,"x_min":113,"x_max":643,"o":"m 331 1049 l 331 1088 q 428 1097 401 1088 q 454 1138 454 1106 q 440 1175 454 1164 q 390 1186 425 1186 q 315 1172 349 1186 l 297 1224 q 403 1244 346 1244 q 493 1216 464 1244 q 522 1140 522 1188 q 394 1038 522 1040 l 394 981 l 347 981 l 331 1049 m 397 -12 q 189 14 265 -12 q 113 103 113 40 l 113 853 l 628 853 l 628 772 l 199 772 l 199 467 l 588 467 l 588 389 l 199 389 l 199 85 q 401 68 288 68 q 624 90 526 68 l 643 14 q 397 -12 543 -12 z "},"Ē":{"ha":733,"x_min":113,"x_max":643,"o":"m 175 1056 l 571 1056 l 571 982 l 175 982 l 175 1056 m 397 -12 q 189 14 265 -12 q 113 103 113 40 l 113 853 l 628 853 l 628 772 l 199 772 l 199 467 l 588 467 l 588 389 l 199 389 l 199 85 q 401 68 288 68 q 624 90 526 68 l 643 14 q 397 -12 543 -12 z "},"Ę":{"ha":733,"x_min":113,"x_max":671,"o":"m 588 -224 q 494 -195 528 -224 q 461 -115 461 -167 q 517 -7 461 -47 q 397 -12 444 -12 q 189 14 265 -12 q 113 103 113 40 l 113 853 l 628 853 l 628 772 l 199 772 l 199 467 l 588 467 l 588 389 l 199 389 l 199 85 q 401 68 288 68 q 624 90 526 68 l 644 13 q 603 -1 619 3 q 551 -51 565 -26 q 538 -111 538 -76 q 546 -151 538 -135 q 599 -157 568 -157 q 656 -150 632 -157 l 671 -208 q 588 -224 636 -224 z "},"Ẽ":{"ha":733,"x_min":113,"x_max":643,"o":"m 186 986 q 294 1110 194 1110 q 334 1101 315 1110 q 382 1074 353 1092 q 421 1050 407 1057 q 450 1043 435 1043 q 511 1113 501 1043 l 568 1094 q 460 969 560 969 q 417 979 436 969 q 369 1007 397 989 q 335 1030 350 1022 q 304 1038 319 1038 q 243 968 253 1038 l 186 986 m 397 -12 q 189 14 265 -12 q 113 103 113 40 l 113 853 l 628 853 l 628 772 l 199 772 l 199 467 l 588 467 l 588 389 l 199 389 l 199 85 q 401 68 288 68 q 624 90 526 68 l 643 14 q 397 -12 543 -12 z "},"F":{"ha":682,"x_min":114,"x_max":640,"o":"m 114 856 l 640 856 l 640 775 l 201 775 l 201 467 l 569 467 l 569 389 l 201 389 l 201 0 l 114 0 l 114 856 z "},"G":{"ha":817,"x_min":79,"x_max":725,"o":"m 443 -12 q 174 94 268 -12 q 79 404 79 201 q 172 742 79 618 q 454 867 265 867 q 601 851 532 867 q 708 813 671 836 l 708 749 q 693 656 708 693 l 636 656 l 622 769 q 453 785 564 785 q 265 763 347 785 q 192 602 218 692 q 167 410 167 513 q 239 152 167 235 q 456 69 311 69 q 556 76 514 69 q 638 97 599 83 l 638 369 l 440 369 l 440 447 l 674 447 l 725 407 l 725 160 q 647 35 725 83 q 443 -12 568 -12 z "},"Ğ":{"ha":817,"x_min":79,"x_max":725,"o":"m 439 974 q 315 1013 358 974 q 261 1121 272 1051 l 343 1135 q 369 1066 349 1089 q 439 1043 389 1043 q 508 1066 488 1043 q 533 1135 528 1089 l 615 1121 q 561 1013 604 1053 q 439 974 518 974 m 443 -12 q 174 94 268 -12 q 79 404 79 201 q 172 742 79 618 q 454 867 265 867 q 601 851 532 867 q 708 813 671 836 l 708 749 q 693 656 708 693 l 636 656 l 622 769 q 453 785 564 785 q 265 763 347 785 q 192 602 218 692 q 167 410 167 513 q 239 152 167 235 q 456 69 311 69 q 556 76 514 69 q 638 97 599 83 l 638 369 l 440 369 l 440 447 l 674 447 l 725 407 l 725 160 q 647 35 725 83 q 443 -12 568 -12 z "},"Ǧ":{"ha":817,"x_min":79,"x_max":725,"o":"m 243 1165 l 297 1176 l 421 1054 l 429 1054 l 550 1176 l 607 1165 l 467 981 l 383 981 l 243 1165 m 443 -12 q 174 94 268 -12 q 79 404 79 201 q 172 742 79 618 q 454 867 265 867 q 601 851 532 867 q 708 813 671 836 l 708 749 q 693 656 708 693 l 636 656 l 622 769 q 453 785 564 785 q 265 763 347 785 q 192 602 218 692 q 167 410 167 513 q 239 152 167 235 q 456 69 311 69 q 556 76 514 69 q 638 97 599 83 l 638 369 l 440 369 l 440 447 l 674 447 l 725 407 l 725 160 q 647 35 725 83 q 443 -12 568 -12 z "},"Ĝ":{"ha":817,"x_min":79,"x_max":725,"o":"m 246 981 l 386 1164 l 469 1164 l 610 981 l 553 968 l 432 1092 l 424 1092 l 300 968 l 246 981 m 443 -12 q 174 94 268 -12 q 79 404 79 201 q 172 742 79 618 q 454 867 265 867 q 601 851 532 867 q 708 813 671 836 l 708 749 q 693 656 708 693 l 636 656 l 622 769 q 453 785 564 785 q 265 763 347 785 q 192 602 218 692 q 167 410 167 513 q 239 152 167 235 q 456 69 311 69 q 556 76 514 69 q 638 97 599 83 l 638 369 l 440 369 l 440 447 l 674 447 l 725 407 l 725 160 q 647 35 725 83 q 443 -12 568 -12 z "},"Ģ":{"ha":817,"x_min":79,"x_max":725,"o":"m 443 -12 q 174 94 268 -12 q 79 404 79 201 q 172 742 79 618 q 454 867 265 867 q 601 851 532 867 q 708 813 671 836 l 708 749 q 693 656 708 693 l 636 656 l 622 769 q 453 785 564 785 q 265 763 347 785 q 192 602 218 692 q 167 410 167 513 q 239 152 167 235 q 456 69 311 69 q 556 76 514 69 q 638 97 599 83 l 638 369 l 440 369 l 440 447 l 674 447 l 725 407 l 725 160 q 647 35 725 83 q 443 -12 568 -12 m 417 -340 q 453 -251 442 -294 q 465 -158 465 -208 l 390 -158 l 390 -99 q 450 -89 415 -89 q 535 -181 535 -89 q 517 -269 535 -225 q 469 -351 500 -312 l 417 -340 z "},"Ġ":{"ha":817,"x_min":79,"x_max":725,"o":"m 442 974 q 391 991 410 974 q 372 1039 372 1008 q 390 1090 372 1072 q 442 1107 408 1107 q 493 1090 475 1107 q 511 1039 511 1072 q 493 991 511 1008 q 442 974 475 974 m 443 -12 q 174 94 268 -12 q 79 404 79 201 q 172 742 79 618 q 454 867 265 867 q 601 851 532 867 q 708 813 671 836 l 708 749 q 693 656 708 693 l 636 656 l 622 769 q 453 785 564 785 q 265 763 347 785 q 192 602 218 692 q 167 410 167 513 q 239 152 167 235 q 456 69 311 69 q 556 76 514 69 q 638 97 599 83 l 638 369 l 440 369 l 440 447 l 674 447 l 725 407 l 725 160 q 647 35 725 83 q 443 -12 568 -12 z "},"Ḡ":{"ha":817,"x_min":79,"x_max":725,"o":"m 233 1054 l 629 1054 l 629 981 l 233 981 l 233 1054 m 443 -12 q 174 94 268 -12 q 79 404 79 201 q 172 742 79 618 q 454 867 265 867 q 601 851 532 867 q 708 813 671 836 l 708 749 q 693 656 708 693 l 636 656 l 622 769 q 453 785 564 785 q 265 763 347 785 q 192 602 218 692 q 167 410 167 513 q 239 152 167 235 q 456 69 311 69 q 556 76 514 69 q 638 97 599 83 l 638 369 l 440 369 l 440 447 l 674 447 l 725 407 l 725 160 q 647 35 725 83 q 443 -12 568 -12 z "},"H":{"ha":822,"x_min":114,"x_max":708,"o":"m 114 853 l 201 853 l 201 454 l 621 454 l 621 853 l 708 853 l 708 0 l 621 0 l 621 372 l 201 372 l 201 0 l 114 0 l 114 853 z "},"Ħ":{"ha":932,"x_min":78,"x_max":853,"o":"m 168 615 l 78 615 l 78 688 l 168 688 l 168 853 l 256 853 l 256 688 l 675 688 l 675 853 l 763 853 l 763 688 l 853 688 l 853 615 l 763 615 l 763 0 l 675 0 l 675 372 l 256 372 l 256 0 l 168 0 l 168 615 m 675 454 l 675 615 l 256 615 l 256 454 l 675 454 z "},"Ḫ":{"ha":821,"x_min":113,"x_max":707,"o":"m 113 853 l 200 853 l 200 454 l 619 454 l 619 853 l 707 853 l 707 0 l 619 0 l 619 372 l 200 372 l 200 0 l 113 0 l 113 853 m 411 -240 q 288 -201 331 -240 q 233 -93 244 -162 l 315 -81 q 341 -149 321 -126 q 411 -172 361 -172 q 480 -149 460 -172 q 506 -81 500 -126 l 588 -93 q 533 -201 576 -161 q 411 -240 490 -240 z "},"Ĥ":{"ha":821,"x_min":113,"x_max":707,"o":"m 229 981 l 369 1164 l 453 1164 l 593 981 l 536 968 l 415 1092 l 407 1092 l 283 968 l 229 981 m 113 853 l 200 853 l 200 454 l 619 454 l 619 853 l 707 853 l 707 0 l 619 0 l 619 372 l 200 372 l 200 0 l 113 0 l 113 853 z "},"Ḥ":{"ha":821,"x_min":113,"x_max":707,"o":"m 113 853 l 200 853 l 200 454 l 619 454 l 619 853 l 707 853 l 707 0 l 619 0 l 619 372 l 200 372 l 200 0 l 113 0 l 113 853 m 410 -221 q 359 -203 378 -221 q 340 -156 340 -186 q 358 -105 340 -122 q 410 -87 376 -87 q 461 -105 443 -87 q 479 -156 479 -122 q 461 -203 479 -186 q 410 -221 443 -221 z "},"I":{"ha":321,"x_min":117,"x_max":204,"o":"m 117 853 l 204 853 l 204 0 l 117 0 l 117 853 z "},"Ĳ":{"ha":914,"x_min":117,"x_max":804,"o":"m 568 -12 q 469 -3 519 -12 q 379 22 418 7 l 400 99 q 571 67 483 67 q 706 96 654 67 q 717 178 717 128 l 717 856 l 804 856 l 804 174 q 742 35 804 82 q 568 -12 679 -12 m 117 853 l 204 853 l 204 0 l 117 0 l 117 853 z "},"Í":{"ha":322,"x_min":117,"x_max":349,"o":"m 121 981 l 236 1178 l 349 1167 l 183 969 l 121 981 m 117 853 l 204 853 l 204 0 l 117 0 l 117 853 z "},"Ĭ":{"ha":322,"x_min":-15,"x_max":339,"o":"m 163 974 q 39 1013 82 974 q -15 1121 -4 1051 l 67 1135 q 92 1066 72 1089 q 163 1043 113 1043 q 231 1066 211 1043 q 257 1135 251 1089 l 339 1121 q 285 1013 328 1053 q 163 974 242 974 m 117 853 l 204 853 l 204 0 l 117 0 l 117 853 z "},"Ǐ":{"ha":322,"x_min":-21,"x_max":343,"o":"m -21 1165 l 33 1176 l 158 1054 l 165 1054 l 288 1176 l 343 1165 l 203 981 l 121 981 l -21 1165 m 117 853 l 204 853 l 204 0 l 117 0 l 117 853 z "},"Î":{"ha":322,"x_min":-21,"x_max":343,"o":"m -21 981 l 121 1165 l 203 1165 l 343 981 l 288 969 l 165 1092 l 158 1092 l 33 969 l -21 981 m 117 853 l 204 853 l 204 0 l 117 0 l 117 853 z "},"Ï":{"ha":322,"x_min":-1,"x_max":324,"o":"m 53 974 q 13 988 28 974 q -1 1025 -1 1001 q 13 1063 -1 1050 q 53 1076 28 1076 q 92 1063 78 1076 q 106 1025 106 1050 q 92 988 106 1001 q 53 974 78 974 m 271 974 q 230 988 244 974 q 215 1025 215 1001 q 230 1063 215 1050 q 271 1076 244 1076 q 310 1063 296 1076 q 324 1025 324 1050 q 310 988 324 1001 q 271 974 296 974 m 117 853 l 204 853 l 204 0 l 117 0 l 117 853 z "},"İ":{"ha":322,"x_min":92,"x_max":231,"o":"m 161 957 q 110 974 129 957 q 92 1022 92 992 q 110 1073 92 1056 q 161 1090 128 1090 q 213 1073 194 1090 q 231 1022 231 1056 q 213 974 231 990 q 161 957 194 957 m 117 853 l 204 853 l 204 0 l 117 0 l 117 853 z "},"Ị":{"ha":350,"x_min":106,"x_max":244,"o":"m 131 853 l 218 853 l 218 0 l 131 0 l 131 853 m 175 -228 q 124 -210 143 -228 q 106 -162 106 -193 q 124 -112 106 -129 q 175 -94 142 -94 q 226 -112 208 -94 q 244 -162 244 -129 q 226 -210 244 -193 q 175 -228 208 -228 z "},"Ì":{"ha":322,"x_min":-22,"x_max":206,"o":"m -22 1167 l 89 1178 l 206 981 l 142 969 l -22 1167 m 117 853 l 204 853 l 204 0 l 117 0 l 117 853 z "},"Ỉ":{"ha":364,"x_min":101,"x_max":326,"o":"m 135 1049 l 135 1088 q 232 1097 206 1088 q 258 1138 258 1106 q 244 1175 258 1164 q 194 1186 229 1186 q 119 1172 153 1186 l 101 1224 q 207 1244 150 1244 q 297 1216 268 1244 q 326 1140 326 1188 q 199 1038 326 1040 l 199 981 l 151 981 l 135 1049 m 133 853 l 221 853 l 221 0 l 133 0 l 133 853 z "},"Ī":{"ha":322,"x_min":-36,"x_max":360,"o":"m -36 1054 l 360 1054 l 360 981 l -36 981 l -36 1054 m 117 853 l 204 853 l 204 0 l 117 0 l 117 853 z "},"Į":{"ha":322,"x_min":42,"x_max":251,"o":"m 251 -215 q 168 -231 217 -231 q 75 -202 108 -231 q 42 -122 42 -174 q 62 -54 42 -83 q 117 0 82 -25 l 117 853 l 204 853 l 204 0 q 138 -51 158 -24 q 118 -118 118 -78 q 126 -160 118 -143 q 181 -165 149 -165 q 238 -158 211 -165 l 251 -215 z "},"Ĩ":{"ha":322,"x_min":-31,"x_max":351,"o":"m -31 988 q 78 1111 -22 1111 q 120 1101 100 1111 q 167 1074 140 1092 q 204 1051 190 1058 q 233 1044 218 1044 q 276 1063 263 1044 q 294 1114 290 1081 l 351 1096 q 243 971 343 971 q 199 981 219 971 q 154 1008 179 990 q 117 1032 131 1025 q 88 1039 103 1039 q 26 969 36 1039 l -31 988 m 117 853 l 204 853 l 204 0 l 117 0 l 117 853 z "},"J":{"ha":578,"x_min":43,"x_max":468,"o":"m 232 -12 q 133 -3 183 -12 q 43 22 82 7 l 64 99 q 235 67 147 67 q 369 96 318 67 q 381 178 381 128 l 381 856 l 468 856 l 468 174 q 406 35 468 82 q 232 -12 343 -12 z "},"Ĵ":{"ha":578,"x_min":43,"x_max":593,"o":"m 229 981 l 369 1164 l 453 1164 l 593 981 l 536 968 l 415 1092 l 407 1092 l 283 968 l 229 981 m 232 -12 q 133 -3 183 -12 q 43 22 82 7 l 64 99 q 235 67 147 67 q 369 96 318 67 q 381 178 381 128 l 381 856 l 468 856 l 468 174 q 406 35 468 82 q 232 -12 343 -12 z "},"K":{"ha":818,"x_min":114,"x_max":774,"o":"m 700 -10 q 647 3 668 -10 q 614 44 626 17 l 506 288 q 444 376 479 349 q 339 404 408 404 l 201 404 l 201 0 l 114 0 l 114 853 l 201 853 l 201 483 l 332 483 q 436 512 400 483 q 497 593 472 540 q 617 857 558 719 l 700 824 q 579 568 619 649 q 534 495 557 521 q 464 449 511 469 l 464 440 q 537 400 513 424 q 583 328 561 376 l 704 63 l 774 51 l 774 1 q 700 -10 736 -10 z "},"Ķ":{"ha":818,"x_min":114,"x_max":774,"o":"m 700 -10 q 647 3 668 -10 q 614 44 626 17 l 506 288 q 444 376 479 349 q 339 404 408 404 l 201 404 l 201 0 l 114 0 l 114 853 l 201 853 l 201 483 l 332 483 q 436 512 400 483 q 497 593 472 540 q 617 857 558 719 l 700 824 q 579 568 619 649 q 534 495 557 521 q 464 449 511 469 l 464 440 q 537 400 513 424 q 583 328 561 376 l 704 63 l 774 51 l 774 1 q 700 -10 736 -10 m 365 -331 q 401 -244 389 -286 q 414 -150 414 -201 l 339 -150 l 339 -90 q 399 -81 364 -81 q 483 -172 483 -81 q 466 -260 483 -217 q 418 -343 449 -304 l 365 -331 z "},"L":{"ha":633,"x_min":114,"x_max":593,"o":"m 114 853 l 201 853 l 201 81 l 593 81 l 593 0 l 114 0 l 114 853 z "},"Ĺ":{"ha":633,"x_min":114,"x_max":593,"o":"m 115 979 l 231 1176 l 343 1165 l 178 968 l 115 979 m 114 853 l 201 853 l 201 81 l 593 81 l 593 0 l 114 0 l 114 853 z "},"Ľ":{"ha":633,"x_min":114,"x_max":593,"o":"m 363 606 q 399 692 386 650 q 411 786 411 735 l 336 786 l 336 846 q 396 856 361 856 q 481 764 481 856 q 463 676 481 719 q 415 593 446 632 l 363 606 m 114 853 l 201 853 l 201 81 l 593 81 l 593 0 l 114 0 l 114 853 z "},"Ļ":{"ha":633,"x_min":114,"x_max":593,"o":"m 114 853 l 201 853 l 201 81 l 593 81 l 593 0 l 114 0 l 114 853 m 322 -331 q 358 -244 346 -286 q 371 -150 371 -201 l 296 -150 l 296 -90 q 356 -81 321 -81 q 440 -172 440 -81 q 423 -260 440 -217 q 375 -343 406 -304 l 322 -331 z "},"Ŀ":{"ha":633,"x_min":114,"x_max":593,"o":"m 114 853 l 201 853 l 201 81 l 593 81 l 593 0 l 114 0 l 114 853 m 400 331 q 350 349 369 331 q 331 397 331 367 q 351 445 331 426 q 400 464 371 464 q 449 445 429 464 q 468 397 468 426 q 449 349 468 367 q 400 331 431 331 z "},"Ḷ":{"ha":633,"x_min":114,"x_max":593,"o":"m 114 853 l 201 853 l 201 81 l 593 81 l 593 0 l 114 0 l 114 853 m 356 -221 q 305 -203 324 -221 q 286 -156 286 -186 q 304 -105 286 -122 q 356 -87 322 -87 q 407 -105 389 -87 q 425 -156 425 -122 q 407 -203 425 -186 q 356 -221 389 -221 z "},"Ḹ":{"ha":647,"x_min":-24,"x_max":607,"o":"m -24 1054 l 374 1054 l 374 981 l -24 981 l -24 1054 m 128 853 l 215 853 l 215 81 l 607 81 l 607 0 l 128 0 l 128 853 m 367 -221 q 316 -203 335 -221 q 297 -156 297 -186 q 315 -105 297 -122 q 367 -87 333 -87 q 418 -105 400 -87 q 436 -156 436 -122 q 418 -203 436 -186 q 367 -221 400 -221 z "},"Ḻ":{"ha":633,"x_min":114,"x_max":593,"o":"m 114 853 l 201 853 l 201 81 l 593 81 l 593 0 l 114 0 l 114 853 m 114 -99 l 538 -99 l 538 -178 l 114 -178 l 114 -99 z "},"Ł":{"ha":664,"x_min":8,"x_max":622,"o":"m 156 365 l 29 324 l 8 390 l 156 438 l 156 853 l 243 853 l 243 465 l 401 517 l 422 450 l 243 393 l 243 81 l 622 81 l 622 0 l 156 0 l 156 365 z "},"M":{"ha":947,"x_min":101,"x_max":846,"o":"m 140 853 l 233 853 l 469 350 l 479 350 l 714 853 l 808 853 l 846 0 l 758 0 l 739 443 l 733 693 l 724 696 l 511 260 l 436 260 l 224 696 l 214 693 l 210 443 l 190 0 l 101 0 l 140 853 z "},"Ṃ":{"ha":951,"x_min":103,"x_max":847,"o":"m 142 853 l 235 853 l 471 350 l 481 350 l 715 853 l 810 853 l 847 0 l 760 0 l 740 443 l 735 693 l 725 696 l 513 260 l 438 260 l 225 696 l 215 693 l 211 443 l 192 0 l 103 0 l 142 853 m 475 -221 q 424 -203 443 -221 q 406 -156 406 -186 q 424 -105 406 -122 q 475 -87 442 -87 q 526 -105 508 -87 q 544 -156 544 -122 q 526 -203 544 -186 q 475 -221 508 -221 z "},"N":{"ha":857,"x_min":114,"x_max":743,"o":"m 114 853 l 213 853 l 657 133 l 668 136 l 656 400 l 656 853 l 743 853 l 743 0 l 644 0 l 200 719 l 190 717 l 201 453 l 201 0 l 114 0 l 114 853 z "},"Ń":{"ha":856,"x_min":113,"x_max":742,"o":"m 382 979 l 497 1178 l 610 1165 l 444 969 l 382 979 m 113 853 l 211 853 l 656 133 l 667 136 l 654 400 l 654 853 l 742 853 l 742 0 l 643 0 l 199 719 l 189 717 l 200 453 l 200 0 l 113 0 l 113 853 z "},"Ň":{"ha":856,"x_min":113,"x_max":742,"o":"m 263 1165 l 317 1176 l 440 1054 l 449 1054 l 569 1176 l 626 1165 l 486 981 l 403 981 l 263 1165 m 113 853 l 211 853 l 656 133 l 667 136 l 654 400 l 654 853 l 742 853 l 742 0 l 643 0 l 199 719 l 189 717 l 200 453 l 200 0 l 113 0 l 113 853 z "},"Ņ":{"ha":856,"x_min":113,"x_max":742,"o":"m 113 853 l 211 853 l 656 133 l 667 136 l 654 400 l 654 853 l 742 853 l 742 0 l 643 0 l 199 719 l 189 717 l 200 453 l 200 0 l 113 0 l 113 853 m 406 -331 q 442 -244 429 -286 q 454 -150 454 -201 l 379 -150 l 379 -90 q 439 -81 404 -81 q 524 -172 524 -81 q 506 -260 524 -217 q 458 -343 489 -304 l 406 -331 z "},"Ṅ":{"ha":856,"x_min":113,"x_max":742,"o":"m 443 974 q 392 991 411 974 q 374 1039 374 1008 q 392 1090 374 1072 q 443 1107 410 1107 q 494 1090 476 1107 q 513 1039 513 1072 q 494 991 513 1008 q 443 974 476 974 m 113 853 l 211 853 l 656 133 l 667 136 l 654 400 l 654 853 l 742 853 l 742 0 l 643 0 l 199 719 l 189 717 l 200 453 l 200 0 l 113 0 l 113 853 z "},"Ṇ":{"ha":856,"x_min":113,"x_max":742,"o":"m 113 853 l 211 853 l 656 133 l 667 136 l 654 400 l 654 853 l 742 853 l 742 0 l 643 0 l 199 719 l 189 717 l 200 453 l 200 0 l 113 0 l 113 853 m 440 -221 q 390 -203 408 -221 q 371 -156 371 -186 q 389 -105 371 -122 q 440 -87 407 -87 q 492 -105 474 -87 q 510 -156 510 -122 q 492 -203 510 -186 q 440 -221 474 -221 z "},"Ŋ":{"ha":856,"x_min":113,"x_max":742,"o":"m 481 -225 q 639 -161 585 -197 q 649 -64 649 -122 l 649 0 l 199 719 l 189 717 l 200 453 l 200 0 l 113 0 l 113 853 l 211 853 l 656 133 l 667 136 l 654 400 l 654 853 l 742 853 l 742 -42 q 693 -208 742 -147 q 521 -312 644 -268 l 481 -225 z "},"Ṉ":{"ha":856,"x_min":113,"x_max":742,"o":"m 113 853 l 211 853 l 656 133 l 667 136 l 654 400 l 654 853 l 742 853 l 742 0 l 643 0 l 199 719 l 189 717 l 200 453 l 200 0 l 113 0 l 113 853 m 269 -99 l 693 -99 l 693 -178 l 269 -178 l 269 -99 z "},"Ñ":{"ha":856,"x_min":113,"x_max":742,"o":"m 238 985 q 346 1110 246 1110 q 385 1101 367 1110 q 433 1074 404 1092 q 472 1050 458 1057 q 501 1043 486 1043 q 563 1113 553 1043 l 619 1094 q 511 969 611 969 q 468 979 488 969 q 421 1007 449 989 q 385 1029 400 1022 q 356 1036 371 1036 q 313 1018 326 1036 q 294 967 299 1000 l 238 985 m 113 853 l 211 853 l 656 133 l 667 136 l 654 400 l 654 853 l 742 853 l 742 0 l 643 0 l 199 719 l 189 717 l 200 453 l 200 0 l 113 0 l 113 853 z "},"O":{"ha":847,"x_min":79,"x_max":768,"o":"m 411 -12 q 79 413 79 -12 q 161 753 79 639 q 436 867 243 867 q 688 760 607 867 q 768 440 768 653 q 686 101 768 215 q 411 -12 604 -12 m 431 69 q 526 78 479 69 q 604 101 574 88 q 660 245 639 164 q 681 421 681 326 q 621 698 681 611 q 417 785 561 785 q 317 776 367 785 q 239 751 268 767 q 167 432 167 622 q 226 156 167 242 q 431 69 285 69 z "},"Ó":{"ha":847,"x_min":79,"x_max":768,"o":"m 388 979 l 503 1178 l 615 1165 l 450 969 l 388 979 m 411 -12 q 79 413 79 -12 q 161 753 79 639 q 436 867 243 867 q 688 760 607 867 q 768 440 768 653 q 686 101 768 215 q 411 -12 604 -12 m 431 69 q 526 78 479 69 q 604 101 574 88 q 660 245 639 164 q 681 421 681 326 q 621 698 681 611 q 417 785 561 785 q 317 776 367 785 q 239 751 268 767 q 167 432 167 622 q 226 156 167 242 q 431 69 285 69 z "},"Ŏ":{"ha":847,"x_min":79,"x_max":768,"o":"m 424 974 q 300 1013 343 974 q 246 1121 257 1051 l 328 1135 q 353 1066 333 1089 q 424 1043 374 1043 q 492 1066 472 1043 q 518 1135 513 1089 l 600 1121 q 546 1013 589 1053 q 424 974 503 974 m 411 -12 q 79 413 79 -12 q 161 753 79 639 q 436 867 243 867 q 688 760 607 867 q 768 440 768 653 q 686 101 768 215 q 411 -12 604 -12 m 431 69 q 526 78 479 69 q 604 101 574 88 q 660 245 639 164 q 681 421 681 326 q 621 698 681 611 q 417 785 561 785 q 317 776 367 785 q 239 751 268 767 q 167 432 167 622 q 226 156 167 242 q 431 69 285 69 z "},"Ǒ":{"ha":847,"x_min":79,"x_max":768,"o":"m 244 1165 l 299 1176 l 422 1054 l 431 1054 l 551 1176 l 608 1165 l 468 981 l 385 981 l 244 1165 m 411 -12 q 79 413 79 -12 q 161 753 79 639 q 436 867 243 867 q 688 760 607 867 q 768 440 768 653 q 686 101 768 215 q 411 -12 604 -12 m 431 69 q 526 78 479 69 q 604 101 574 88 q 660 245 639 164 q 681 421 681 326 q 621 698 681 611 q 417 785 561 785 q 317 776 367 785 q 239 751 268 767 q 167 432 167 622 q 226 156 167 242 q 431 69 285 69 z "},"Ô":{"ha":847,"x_min":79,"x_max":768,"o":"m 251 981 l 392 1164 l 475 1164 l 615 981 l 558 968 l 438 1092 l 429 1092 l 306 968 l 251 981 m 411 -12 q 79 413 79 -12 q 161 753 79 639 q 436 867 243 867 q 688 760 607 867 q 768 440 768 653 q 686 101 768 215 q 411 -12 604 -12 m 431 69 q 526 78 479 69 q 604 101 574 88 q 660 245 639 164 q 681 421 681 326 q 621 698 681 611 q 417 785 561 785 q 317 776 367 785 q 239 751 268 767 q 167 432 167 622 q 226 156 167 242 q 431 69 285 69 z "},"Ố":{"ha":849,"x_min":79,"x_max":774,"o":"m 608 1106 l 693 1251 l 774 1238 l 661 1093 l 608 1106 m 251 981 l 392 1165 l 475 1165 l 615 981 l 558 969 l 438 1092 l 429 1092 l 306 969 l 251 981 m 411 -12 q 79 413 79 -12 q 161 753 79 639 q 436 867 243 867 q 688 760 607 867 q 768 440 768 653 q 686 101 768 215 q 411 -12 604 -12 m 431 69 q 526 78 479 69 q 604 101 574 88 q 660 245 639 164 q 681 421 681 326 q 621 698 681 611 q 417 785 561 785 q 317 776 367 785 q 239 751 268 767 q 167 432 167 622 q 226 156 167 242 q 431 69 285 69 z "},"Ộ":{"ha":847,"x_min":79,"x_max":768,"o":"m 250 981 l 390 1165 l 474 1165 l 614 981 l 557 969 l 436 1092 l 428 1092 l 304 969 l 250 981 m 411 -12 q 79 413 79 -12 q 161 753 79 639 q 436 867 243 867 q 688 760 607 867 q 768 440 768 653 q 686 101 768 215 q 411 -12 604 -12 m 431 69 q 526 78 479 69 q 604 101 574 88 q 660 245 639 164 q 681 421 681 326 q 621 698 681 611 q 417 785 561 785 q 317 776 367 785 q 239 751 268 767 q 167 432 167 622 q 226 156 167 242 q 431 69 285 69 m 432 -228 q 381 -210 400 -228 q 363 -162 363 -193 q 381 -112 363 -129 q 432 -94 399 -94 q 483 -112 465 -94 q 501 -162 501 -129 q 483 -210 501 -193 q 432 -228 465 -228 z "},"Ồ":{"ha":843,"x_min":75,"x_max":764,"o":"m 82 1236 l 164 1250 l 247 1104 l 194 1092 l 82 1236 m 240 979 l 381 1164 l 463 1164 l 604 979 l 550 968 l 425 1090 l 418 1090 l 296 968 l 240 979 m 407 -12 q 75 413 75 -12 q 157 753 75 639 q 432 867 239 867 q 683 760 603 867 q 764 440 764 653 q 682 101 764 215 q 407 -12 600 -12 m 426 69 q 522 78 475 69 q 600 101 569 88 q 656 245 635 164 q 676 421 676 326 q 617 698 676 611 q 413 785 557 785 q 313 776 363 785 q 235 751 264 767 q 163 432 163 622 q 222 156 163 242 q 426 69 281 69 z "},"Ổ":{"ha":832,"x_min":79,"x_max":768,"o":"m 594 1172 l 594 1207 q 660 1214 642 1207 q 678 1239 678 1221 q 669 1263 678 1256 q 638 1269 660 1269 q 582 1258 606 1269 l 569 1303 q 646 1318 611 1318 q 733 1240 733 1318 q 647 1167 733 1169 l 647 1119 l 607 1119 l 594 1172 m 247 981 l 388 1164 l 471 1164 l 611 981 l 554 968 l 433 1092 l 425 1092 l 301 968 l 247 981 m 411 -12 q 79 413 79 -12 q 161 753 79 639 q 436 867 243 867 q 688 760 607 867 q 768 440 768 653 q 686 101 768 215 q 411 -12 604 -12 m 431 69 q 526 78 479 69 q 604 101 574 88 q 660 245 639 164 q 681 421 681 326 q 621 698 681 611 q 417 785 561 785 q 317 776 367 785 q 239 751 268 767 q 167 432 167 622 q 226 156 167 242 q 431 69 285 69 z "},"Ỗ":{"ha":847,"x_min":79,"x_max":768,"o":"m 271 1251 q 363 1347 281 1347 q 443 1319 399 1347 q 492 1301 476 1301 q 547 1353 536 1301 l 593 1338 q 501 1242 583 1242 q 466 1248 482 1242 q 429 1267 450 1254 q 400 1283 413 1278 q 374 1288 388 1288 q 318 1236 326 1288 l 271 1251 m 253 981 l 393 1165 l 476 1165 l 617 981 l 560 969 l 439 1092 l 431 1092 l 307 969 l 253 981 m 411 -12 q 79 413 79 -12 q 161 753 79 639 q 436 867 243 867 q 688 760 607 867 q 768 440 768 653 q 686 101 768 215 q 411 -12 604 -12 m 431 69 q 526 78 479 69 q 604 101 574 88 q 660 245 639 164 q 681 421 681 326 q 621 698 681 611 q 417 785 561 785 q 317 776 367 785 q 239 751 268 767 q 167 432 167 622 q 226 156 167 242 q 431 69 285 69 z "},"Ö":{"ha":847,"x_min":79,"x_max":768,"o":"m 319 974 q 280 988 294 974 q 265 1025 265 1001 q 280 1063 265 1050 q 319 1076 294 1076 q 358 1063 344 1076 q 372 1025 372 1050 q 358 988 372 1001 q 319 974 344 974 m 539 974 q 498 988 513 974 q 483 1025 483 1001 q 498 1063 483 1050 q 539 1076 513 1076 q 578 1063 564 1076 q 592 1025 592 1050 q 578 988 592 1001 q 539 974 564 974 m 411 -12 q 79 413 79 -12 q 161 753 79 639 q 436 867 243 867 q 688 760 607 867 q 768 440 768 653 q 686 101 768 215 q 411 -12 604 -12 m 431 69 q 526 78 479 69 q 604 101 574 88 q 660 245 639 164 q 681 421 681 326 q 621 698 681 611 q 417 785 561 785 q 317 776 367 785 q 239 751 268 767 q 167 432 167 622 q 226 156 167 242 q 431 69 285 69 z "},"Ọ":{"ha":847,"x_min":79,"x_max":768,"o":"m 411 -12 q 79 413 79 -12 q 161 753 79 639 q 436 867 243 867 q 688 760 607 867 q 768 440 768 653 q 686 101 768 215 q 411 -12 604 -12 m 431 69 q 526 78 479 69 q 604 101 574 88 q 660 245 639 164 q 681 421 681 326 q 621 698 681 611 q 417 785 561 785 q 317 776 367 785 q 239 751 268 767 q 167 432 167 622 q 226 156 167 242 q 431 69 285 69 m 419 -228 q 369 -210 388 -228 q 350 -162 350 -193 q 368 -112 350 -129 q 419 -94 386 -94 q 471 -112 453 -94 q 489 -162 489 -129 q 471 -210 489 -193 q 419 -228 453 -228 z "},"Ò":{"ha":847,"x_min":79,"x_max":768,"o":"m 261 1167 l 374 1178 l 489 981 l 426 969 l 261 1167 m 411 -12 q 79 413 79 -12 q 161 753 79 639 q 436 867 243 867 q 688 760 607 867 q 768 440 768 653 q 686 101 768 215 q 411 -12 604 -12 m 431 69 q 526 78 479 69 q 604 101 574 88 q 660 245 639 164 q 681 421 681 326 q 621 698 681 611 q 417 785 561 785 q 317 776 367 785 q 239 751 268 767 q 167 432 167 622 q 226 156 167 242 q 431 69 285 69 z "},"Ỏ":{"ha":847,"x_min":79,"x_max":768,"o":"m 389 1049 l 389 1088 q 486 1097 460 1088 q 513 1138 513 1106 q 498 1175 513 1164 q 449 1186 483 1186 q 374 1172 407 1186 l 356 1224 q 461 1244 404 1244 q 551 1216 522 1244 q 581 1140 581 1188 q 453 1038 581 1040 l 453 981 l 406 981 l 389 1049 m 411 -12 q 79 413 79 -12 q 161 753 79 639 q 436 867 243 867 q 688 760 607 867 q 768 440 768 653 q 686 101 768 215 q 411 -12 604 -12 m 431 69 q 526 78 479 69 q 604 101 574 88 q 660 245 639 164 q 681 421 681 326 q 621 698 681 611 q 417 785 561 785 q 317 776 367 785 q 239 751 268 767 q 167 432 167 622 q 226 156 167 242 q 431 69 285 69 z "},"Ơ":{"ha":893,"x_min":79,"x_max":863,"o":"m 411 -10 q 79 415 79 -10 q 161 756 79 642 q 436 869 243 869 q 592 840 529 869 q 694 749 654 810 l 715 749 q 762 863 746 804 q 779 997 778 922 l 863 997 q 828 809 860 885 q 728 683 797 733 q 768 444 768 588 q 686 104 768 218 q 411 -10 604 -10 m 431 72 q 526 81 479 72 q 604 104 574 90 q 660 249 639 167 q 681 425 681 331 q 621 702 681 615 q 417 789 561 789 q 319 780 368 789 q 239 756 269 771 q 167 435 167 626 q 226 158 167 244 q 431 72 285 72 z "},"Ớ":{"ha":893,"x_min":79,"x_max":863,"o":"m 378 981 l 493 1179 l 606 1167 l 440 971 l 378 981 m 411 -10 q 79 415 79 -10 q 161 756 79 642 q 436 869 243 869 q 592 840 529 869 q 694 749 654 810 l 715 749 q 762 863 746 804 q 779 997 778 922 l 863 997 q 828 809 860 885 q 728 683 797 733 q 768 444 768 588 q 686 104 768 218 q 411 -10 604 -10 m 431 72 q 526 81 479 72 q 604 104 574 90 q 660 249 639 167 q 681 425 681 331 q 621 702 681 615 q 417 789 561 789 q 319 780 368 789 q 239 756 269 771 q 167 435 167 626 q 226 158 167 244 q 431 72 285 72 z "},"Ợ":{"ha":893,"x_min":79,"x_max":863,"o":"m 411 -10 q 79 415 79 -10 q 161 756 79 642 q 436 869 243 869 q 592 840 529 869 q 694 749 654 810 l 715 749 q 762 863 746 804 q 779 997 778 922 l 863 997 q 828 809 860 885 q 728 683 797 733 q 768 444 768 588 q 686 104 768 218 q 411 -10 604 -10 m 431 72 q 526 81 479 72 q 604 104 574 90 q 660 249 639 167 q 681 425 681 331 q 621 702 681 615 q 417 789 561 789 q 319 780 368 789 q 239 756 269 771 q 167 435 167 626 q 226 158 167 244 q 431 72 285 72 m 432 -228 q 381 -210 400 -228 q 363 -162 363 -193 q 381 -112 363 -129 q 432 -94 399 -94 q 483 -112 465 -94 q 501 -162 501 -129 q 483 -210 501 -193 q 432 -228 465 -228 z "},"Ờ":{"ha":893,"x_min":79,"x_max":863,"o":"m 260 1167 l 372 1179 l 488 981 l 425 971 l 260 1167 m 411 -10 q 79 415 79 -10 q 161 756 79 642 q 436 869 243 869 q 592 840 529 869 q 694 749 654 810 l 715 749 q 762 863 746 804 q 779 997 778 922 l 863 997 q 828 809 860 885 q 728 683 797 733 q 768 444 768 588 q 686 104 768 218 q 411 -10 604 -10 m 431 72 q 526 81 479 72 q 604 104 574 90 q 660 249 639 167 q 681 425 681 331 q 621 702 681 615 q 417 789 561 789 q 319 780 368 789 q 239 756 269 771 q 167 435 167 626 q 226 158 167 244 q 431 72 285 72 z "},"Ở":{"ha":893,"x_min":79,"x_max":863,"o":"m 388 1049 l 388 1088 q 485 1097 458 1088 q 511 1138 511 1106 q 497 1175 511 1164 q 447 1186 482 1186 q 372 1172 406 1186 l 354 1224 q 460 1244 403 1244 q 550 1216 521 1244 q 579 1140 579 1188 q 451 1038 579 1040 l 451 981 l 404 981 l 388 1049 m 411 -10 q 79 415 79 -10 q 161 756 79 642 q 436 869 243 869 q 592 840 529 869 q 694 749 654 810 l 715 749 q 762 863 746 804 q 779 997 778 922 l 863 997 q 828 809 860 885 q 728 683 797 733 q 768 444 768 588 q 686 104 768 218 q 411 -10 604 -10 m 431 72 q 526 81 479 72 q 604 104 574 90 q 660 249 639 167 q 681 425 681 331 q 621 702 681 615 q 417 789 561 789 q 319 780 368 789 q 239 756 269 771 q 167 435 167 626 q 226 158 167 244 q 431 72 285 72 z "},"Ỡ":{"ha":893,"x_min":79,"x_max":863,"o":"m 246 986 q 354 1110 254 1110 q 394 1101 375 1110 q 442 1074 413 1092 q 481 1050 467 1057 q 510 1043 494 1043 q 571 1113 561 1043 l 628 1094 q 519 969 619 969 q 476 979 496 969 q 429 1007 457 989 q 394 1030 410 1022 q 364 1038 379 1038 q 303 968 313 1038 l 246 986 m 411 -10 q 79 415 79 -10 q 161 756 79 642 q 436 869 243 869 q 592 840 529 869 q 694 749 654 810 l 715 749 q 762 863 746 804 q 779 997 778 922 l 863 997 q 828 809 860 885 q 728 683 797 733 q 768 444 768 588 q 686 104 768 218 q 411 -10 604 -10 m 431 72 q 526 81 479 72 q 604 104 574 90 q 660 249 639 167 q 681 425 681 331 q 621 702 681 615 q 417 789 561 789 q 319 780 368 789 q 239 756 269 771 q 167 435 167 626 q 226 158 167 244 q 431 72 285 72 z "},"Ő":{"ha":847,"x_min":79,"x_max":768,"o":"m 269 981 q 306 1069 294 1026 q 318 1163 318 1111 l 243 1163 l 243 1222 q 301 1232 268 1232 q 385 1140 385 1232 q 321 969 385 1049 l 269 981 m 499 981 q 535 1069 524 1026 q 547 1163 547 1111 l 472 1163 l 472 1222 q 532 1232 497 1232 q 594 1209 574 1232 q 614 1140 614 1186 q 550 969 614 1049 l 499 981 m 411 -12 q 79 413 79 -12 q 161 753 79 639 q 436 867 243 867 q 688 760 607 867 q 768 440 768 653 q 686 101 768 215 q 411 -12 604 -12 m 431 69 q 526 78 479 69 q 604 101 574 88 q 660 245 639 164 q 681 421 681 326 q 621 698 681 611 q 417 785 561 785 q 317 776 367 785 q 239 751 268 767 q 167 432 167 622 q 226 156 167 242 q 431 69 285 69 z "},"Ō":{"ha":847,"x_min":79,"x_max":768,"o":"m 228 1054 l 624 1054 l 624 981 l 228 981 l 228 1054 m 411 -12 q 79 413 79 -12 q 161 753 79 639 q 436 867 243 867 q 688 760 607 867 q 768 440 768 653 q 686 101 768 215 q 411 -12 604 -12 m 431 69 q 526 78 479 69 q 604 101 574 88 q 660 245 639 164 q 681 421 681 326 q 621 698 681 611 q 417 785 561 785 q 317 776 367 785 q 239 751 268 767 q 167 432 167 622 q 226 156 167 242 q 431 69 285 69 z "},"Ø":{"ha":854,"x_min":82,"x_max":771,"o":"m 147 -79 l 207 50 q 82 413 82 150 q 164 753 82 639 q 439 867 246 867 q 571 844 511 867 l 618 943 l 690 925 l 638 811 q 771 440 771 714 q 689 101 771 215 q 414 -12 607 -12 q 271 13 332 -12 l 219 -99 l 147 -79 m 535 764 q 419 785 488 785 q 320 776 369 785 q 242 751 271 767 q 169 432 169 622 q 187 251 169 324 q 244 135 204 178 l 535 764 m 433 68 q 530 77 483 68 q 607 101 576 86 q 663 244 642 163 q 683 421 683 326 q 663 609 683 533 q 599 726 643 685 l 307 92 q 433 68 358 68 z "},"Ǿ":{"ha":854,"x_min":82,"x_max":771,"o":"m 379 981 l 494 1179 l 607 1167 l 442 971 l 379 981 m 147 -79 l 207 50 q 82 413 82 150 q 164 753 82 639 q 439 867 246 867 q 571 844 511 867 l 618 943 l 690 925 l 638 811 q 771 440 771 714 q 689 101 771 215 q 414 -12 607 -12 q 271 13 332 -12 l 219 -99 l 147 -79 m 535 764 q 419 785 488 785 q 320 776 369 785 q 242 751 271 767 q 169 432 169 622 q 187 251 169 324 q 244 135 204 178 l 535 764 m 433 68 q 530 77 483 68 q 607 101 576 86 q 663 244 642 163 q 683 421 683 326 q 663 609 683 533 q 599 726 643 685 l 307 92 q 433 68 358 68 z "},"Õ":{"ha":847,"x_min":79,"x_max":768,"o":"m 238 982 q 346 1107 246 1107 q 385 1098 367 1107 q 433 1071 404 1089 q 472 1047 458 1054 q 501 1040 486 1040 q 563 1108 553 1040 l 619 1090 q 511 967 611 967 q 468 976 488 967 q 421 1004 449 986 q 385 1026 400 1019 q 356 1033 371 1033 q 313 1015 326 1033 q 294 964 299 997 l 238 982 m 411 -12 q 79 413 79 -12 q 161 753 79 639 q 436 867 243 867 q 688 760 607 867 q 768 440 768 653 q 686 101 768 215 q 411 -12 604 -12 m 431 69 q 526 78 479 69 q 604 101 574 88 q 660 245 639 164 q 681 421 681 326 q 621 698 681 611 q 417 785 561 785 q 317 776 367 785 q 239 751 268 767 q 167 432 167 622 q 226 156 167 242 q 431 69 285 69 z "},"Œ":{"ha":1238,"x_min":83,"x_max":1144,"o":"m 897 -14 q 653 39 722 -14 l 644 39 q 417 -12 558 -12 q 167 94 250 -12 q 83 413 83 201 q 167 753 83 639 q 446 867 251 867 q 614 853 533 867 l 1129 853 l 1129 772 l 700 772 l 700 467 l 1089 467 l 1089 389 l 700 389 l 700 92 q 906 67 792 67 q 1125 89 1028 67 l 1144 13 q 897 -14 1044 -14 m 438 68 q 533 77 485 68 q 614 101 582 86 l 614 771 q 530 782 568 779 q 429 785 492 785 q 324 776 376 785 q 243 751 272 767 q 171 432 171 622 q 231 156 171 243 q 438 68 292 68 z "},"P":{"ha":718,"x_min":114,"x_max":667,"o":"m 114 832 q 343 867 240 867 q 667 581 667 867 q 590 358 667 431 q 339 286 513 286 l 201 286 l 201 0 l 114 0 l 114 832 m 328 365 q 443 369 399 365 q 529 386 488 374 q 579 576 579 456 q 519 737 579 688 q 342 786 458 786 q 201 771 261 786 l 201 365 l 328 365 z "},"Þ":{"ha":668,"x_min":113,"x_max":603,"o":"m 113 856 l 200 856 l 200 686 l 346 686 q 536 626 469 686 q 603 450 603 565 q 535 269 603 331 q 346 208 468 208 l 200 208 l 200 0 l 113 0 l 113 856 m 340 286 q 476 326 436 286 q 515 450 515 367 q 475 571 515 533 q 340 608 435 608 l 200 608 l 200 286 l 340 286 z "},"Q":{"ha":851,"x_min":79,"x_max":769,"o":"m 518 -190 q 406 -181 467 -190 q 314 -160 344 -172 l 314 -100 l 338 1 q 79 417 79 43 q 162 754 79 642 q 438 867 244 867 q 689 762 608 867 q 769 444 769 657 q 689 108 769 221 q 419 -6 608 -4 q 399 -4 406 -6 l 399 -108 q 517 -119 451 -119 q 703 -103 619 -119 l 718 -171 q 518 -190 640 -190 m 431 76 q 528 85 481 76 q 606 110 576 94 q 661 252 640 171 q 682 425 682 333 q 657 632 682 554 q 574 747 632 710 q 418 785 517 785 q 318 776 368 785 q 239 751 268 767 q 185 610 204 690 q 167 436 167 529 q 192 229 167 307 q 274 114 217 151 q 431 76 332 76 z "},"R":{"ha":799,"x_min":113,"x_max":758,"o":"m 685 -10 q 632 3 653 -10 q 599 44 611 17 l 514 236 q 480 301 496 278 q 434 339 464 325 q 353 353 404 353 l 200 353 l 200 0 l 113 0 l 113 833 q 340 867 228 867 q 569 805 494 867 q 643 615 643 743 q 504 385 643 457 l 504 374 q 556 337 536 358 q 592 278 575 315 l 689 63 l 758 51 l 758 1 q 685 -10 722 -10 m 456 432 q 531 506 507 465 q 554 613 554 546 q 503 746 554 706 q 336 786 451 786 q 200 772 267 786 l 200 432 l 456 432 z "},"Ŕ":{"ha":799,"x_min":113,"x_max":758,"o":"m 314 981 l 429 1178 l 542 1167 l 376 969 l 314 981 m 685 -10 q 632 3 653 -10 q 599 44 611 17 l 514 236 q 480 301 496 278 q 434 339 464 325 q 353 353 404 353 l 200 353 l 200 0 l 113 0 l 113 833 q 340 867 228 867 q 569 805 494 867 q 643 615 643 743 q 504 385 643 457 l 504 374 q 556 337 536 358 q 592 278 575 315 l 689 63 l 758 51 l 758 1 q 685 -10 722 -10 m 456 432 q 531 506 507 465 q 554 613 554 546 q 503 746 554 706 q 336 786 451 786 q 200 772 267 786 l 200 432 l 456 432 z "},"Ř":{"ha":799,"x_min":113,"x_max":758,"o":"m 182 1165 l 236 1176 l 360 1054 l 368 1054 l 489 1176 l 546 1165 l 406 981 l 322 981 l 182 1165 m 685 -10 q 632 3 653 -10 q 599 44 611 17 l 514 236 q 480 301 496 278 q 434 339 464 325 q 353 353 404 353 l 200 353 l 200 0 l 113 0 l 113 833 q 340 867 228 867 q 569 805 494 867 q 643 615 643 743 q 504 385 643 457 l 504 374 q 556 337 536 358 q 592 278 575 315 l 689 63 l 758 51 l 758 1 q 685 -10 722 -10 m 456 432 q 531 506 507 465 q 554 613 554 546 q 503 746 554 706 q 336 786 451 786 q 200 772 267 786 l 200 432 l 456 432 z "},"Ŗ":{"ha":799,"x_min":113,"x_max":758,"o":"m 685 -10 q 632 3 653 -10 q 599 44 611 17 l 514 236 q 481 300 496 278 q 438 337 465 322 q 361 353 410 351 l 200 353 l 200 0 l 113 0 l 113 833 q 340 867 228 867 q 569 805 494 867 q 643 615 643 743 q 504 385 643 457 l 504 374 q 556 337 536 358 q 592 278 575 315 l 689 63 l 758 51 l 758 1 q 685 -10 722 -10 m 456 432 q 531 506 507 465 q 554 613 554 546 q 503 746 554 706 q 336 786 451 786 q 200 772 267 786 l 200 432 l 456 432 m 357 -331 q 393 -244 381 -286 q 406 -150 406 -201 l 331 -150 l 331 -90 q 390 -81 356 -81 q 475 -172 475 -81 q 458 -260 475 -217 q 410 -343 440 -304 l 357 -331 z "},"Ṛ":{"ha":799,"x_min":113,"x_max":758,"o":"m 685 -10 q 632 3 653 -10 q 599 44 611 17 l 514 236 q 480 301 496 278 q 434 339 464 325 q 353 353 404 353 l 200 353 l 200 0 l 113 0 l 113 833 q 340 867 228 867 q 569 805 494 867 q 643 615 643 743 q 504 385 643 457 l 504 374 q 556 337 536 358 q 592 278 575 315 l 689 63 l 758 51 l 758 1 q 685 -10 722 -10 m 456 432 q 531 506 507 465 q 554 613 554 546 q 503 746 554 706 q 336 786 451 786 q 200 772 267 786 l 200 432 l 456 432 m 403 -219 q 352 -202 371 -219 q 333 -154 333 -185 q 352 -104 333 -122 q 403 -86 371 -86 q 454 -104 436 -86 q 472 -154 472 -122 q 454 -203 472 -186 q 403 -219 436 -219 z "},"Ṝ":{"ha":799,"x_min":113,"x_max":758,"o":"m 146 1054 l 542 1054 l 542 981 l 146 981 l 146 1054 m 685 -10 q 632 3 653 -10 q 599 44 611 17 l 514 236 q 480 301 496 278 q 434 339 464 325 q 353 353 404 353 l 200 353 l 200 0 l 113 0 l 113 833 q 340 867 228 867 q 569 805 494 867 q 643 615 643 743 q 504 385 643 457 l 504 374 q 556 337 536 358 q 592 278 575 315 l 689 63 l 758 51 l 758 1 q 685 -10 722 -10 m 456 432 q 531 506 507 465 q 554 613 554 546 q 503 746 554 706 q 336 786 451 786 q 200 772 267 786 l 200 432 l 456 432 m 396 -221 q 345 -203 364 -221 q 326 -156 326 -186 q 344 -105 326 -122 q 396 -87 363 -87 q 447 -105 429 -87 q 465 -156 465 -122 q 447 -203 465 -186 q 396 -221 429 -221 z "},"Ṟ":{"ha":800,"x_min":113,"x_max":760,"o":"m 686 -10 q 633 3 654 -10 q 600 44 613 17 l 515 236 q 481 301 497 278 q 435 339 465 325 q 354 353 406 353 l 201 353 l 201 0 l 114 0 l 114 833 q 342 867 229 867 q 570 805 496 867 q 644 615 644 743 q 506 385 644 457 l 506 374 q 557 337 538 358 q 593 278 576 315 l 690 63 l 760 51 l 760 1 q 686 -10 724 -10 m 456 432 q 531 506 507 465 q 554 613 554 546 q 503 746 554 706 q 336 786 451 786 q 200 772 267 786 l 200 432 l 456 432 m 113 -99 l 536 -99 l 536 -178 l 113 -178 l 113 -99 z "},"S":{"ha":714,"x_min":75,"x_max":629,"o":"m 346 -12 q 75 50 200 -12 l 106 126 q 225 84 165 97 q 354 71 285 71 q 518 99 444 71 q 540 215 540 147 q 499 322 540 286 q 354 385 457 358 q 161 466 229 415 q 93 621 93 517 q 157 798 93 729 q 371 867 221 867 q 501 853 449 867 q 601 814 554 840 l 601 771 q 581 653 601 718 l 519 653 l 506 776 q 363 788 417 788 q 222 750 264 788 q 181 632 181 713 q 200 555 181 585 q 262 506 219 525 q 381 468 304 486 q 571 387 513 438 q 629 242 629 336 q 565 58 629 129 q 346 -12 501 -12 z "},"Ś":{"ha":714,"x_min":75,"x_max":629,"o":"m 307 981 l 422 1179 l 535 1167 l 369 971 l 307 981 m 346 -12 q 75 50 200 -12 l 106 126 q 225 84 165 97 q 354 71 285 71 q 518 99 444 71 q 540 215 540 147 q 499 322 540 286 q 354 385 457 358 q 161 466 229 415 q 93 621 93 517 q 157 798 93 729 q 371 867 221 867 q 501 853 449 867 q 601 814 554 840 l 601 771 q 581 653 601 718 l 519 653 l 506 776 q 363 788 417 788 q 222 750 264 788 q 181 632 181 713 q 200 555 181 585 q 262 506 219 525 q 381 468 304 486 q 571 387 513 438 q 629 242 629 336 q 565 58 629 129 q 346 -12 501 -12 z "},"Š":{"ha":714,"x_min":75,"x_max":629,"o":"m 182 1165 l 236 1176 l 360 1054 l 368 1054 l 489 1176 l 546 1165 l 406 981 l 322 981 l 182 1165 m 346 -12 q 75 50 200 -12 l 106 126 q 225 84 165 97 q 354 71 285 71 q 518 99 444 71 q 540 215 540 147 q 499 322 540 286 q 354 385 457 358 q 161 466 229 415 q 93 621 93 517 q 157 798 93 729 q 371 867 221 867 q 501 853 449 867 q 601 814 554 840 l 601 771 q 581 653 601 718 l 519 653 l 506 776 q 363 788 417 788 q 222 750 264 788 q 181 632 181 713 q 200 555 181 585 q 262 506 219 525 q 381 468 304 486 q 571 387 513 438 q 629 242 629 336 q 565 58 629 129 q 346 -12 501 -12 z "},"Ş":{"ha":714,"x_min":75,"x_max":629,"o":"m 360 -300 q 243 -278 294 -300 l 263 -222 q 357 -239 304 -239 q 426 -232 392 -239 q 435 -186 435 -211 q 371 -135 435 -135 q 310 -144 335 -135 l 260 -94 l 328 -11 q 75 50 189 -8 l 106 126 q 225 84 165 97 q 354 71 285 71 q 518 99 444 71 q 540 215 540 147 q 499 322 540 286 q 354 385 457 358 q 161 466 229 415 q 93 621 93 517 q 157 798 93 729 q 371 867 221 867 q 501 853 449 867 q 601 814 554 840 l 601 771 q 581 653 601 718 l 519 653 l 506 776 q 363 788 417 788 q 222 750 264 788 q 181 632 181 713 q 200 555 181 585 q 262 506 219 525 q 381 468 304 486 q 571 387 513 438 q 629 242 629 336 q 576 72 629 140 q 397 -10 524 3 l 340 -89 q 401 -78 367 -78 q 507 -181 507 -78 q 360 -300 507 -300 z "},"Ŝ":{"ha":714,"x_min":75,"x_max":629,"o":"m 185 981 l 325 1164 l 408 1164 l 549 981 l 492 968 l 371 1092 l 363 1092 l 239 968 l 185 981 m 346 -12 q 75 50 200 -12 l 106 126 q 225 84 165 97 q 354 71 285 71 q 518 99 444 71 q 540 215 540 147 q 499 322 540 286 q 354 385 457 358 q 161 466 229 415 q 93 621 93 517 q 157 798 93 729 q 371 867 221 867 q 501 853 449 867 q 601 814 554 840 l 601 771 q 581 653 601 718 l 519 653 l 506 776 q 363 788 417 788 q 222 750 264 788 q 181 632 181 713 q 200 555 181 585 q 262 506 219 525 q 381 468 304 486 q 571 387 513 438 q 629 242 629 336 q 565 58 629 129 q 346 -12 501 -12 z "},"Ș":{"ha":714,"x_min":75,"x_max":629,"o":"m 346 -12 q 75 50 200 -12 l 106 126 q 225 84 165 97 q 354 71 285 71 q 518 99 444 71 q 540 215 540 147 q 499 322 540 286 q 354 385 457 358 q 161 466 229 415 q 93 621 93 517 q 157 798 93 729 q 371 867 221 867 q 501 853 449 867 q 601 814 554 840 l 601 771 q 581 653 601 718 l 519 653 l 506 776 q 363 788 417 788 q 222 750 264 788 q 181 632 181 713 q 200 555 181 585 q 262 506 219 525 q 381 468 304 486 q 571 387 513 438 q 629 242 629 336 q 565 58 629 129 q 346 -12 501 -12 m 326 -331 q 363 -244 350 -286 q 375 -150 375 -201 l 300 -150 l 300 -90 q 360 -81 325 -81 q 444 -172 444 -81 q 427 -260 444 -217 q 379 -343 410 -304 l 326 -331 z "},"Ṡ":{"ha":714,"x_min":75,"x_max":629,"o":"m 356 974 q 305 991 324 974 q 286 1039 286 1008 q 304 1090 286 1072 q 356 1107 322 1107 q 407 1090 389 1107 q 425 1039 425 1072 q 407 991 425 1008 q 356 974 389 974 m 346 -12 q 75 50 200 -12 l 106 126 q 225 84 165 97 q 354 71 285 71 q 518 99 444 71 q 540 215 540 147 q 499 322 540 286 q 354 385 457 358 q 161 466 229 415 q 93 621 93 517 q 157 798 93 729 q 371 867 221 867 q 501 853 449 867 q 601 814 554 840 l 601 771 q 581 653 601 718 l 519 653 l 506 776 q 363 788 417 788 q 222 750 264 788 q 181 632 181 713 q 200 555 181 585 q 262 506 219 525 q 381 468 304 486 q 571 387 513 438 q 629 242 629 336 q 565 58 629 129 q 346 -12 501 -12 z "},"Ṣ":{"ha":714,"x_min":75,"x_max":629,"o":"m 346 -12 q 75 50 200 -12 l 106 126 q 225 84 165 97 q 354 71 285 71 q 518 99 444 71 q 540 215 540 147 q 499 322 540 286 q 354 385 457 358 q 161 466 229 415 q 93 621 93 517 q 157 798 93 729 q 371 867 221 867 q 501 853 449 867 q 601 814 554 840 l 601 771 q 581 653 601 718 l 519 653 l 506 776 q 363 788 417 788 q 222 750 264 788 q 181 632 181 713 q 200 555 181 585 q 262 506 219 525 q 381 468 304 486 q 571 387 513 438 q 629 242 629 336 q 565 58 629 129 q 346 -12 501 -12 m 368 -221 q 317 -203 336 -221 q 299 -156 299 -186 q 317 -105 299 -122 q 368 -87 335 -87 q 419 -105 401 -87 q 438 -156 438 -122 q 419 -203 438 -186 q 368 -221 401 -221 z "},"ẞ":{"ha":810,"x_min":113,"x_max":747,"o":"m 479 -11 q 388 -3 431 -11 q 292 22 346 4 l 314 96 q 406 75 368 81 q 489 69 443 69 q 569 74 539 69 q 633 92 600 79 q 661 240 661 154 q 607 366 661 325 q 442 407 553 407 l 382 407 l 382 488 l 582 721 l 582 733 q 499 763 538 754 q 404 772 460 772 q 246 722 293 772 q 199 550 199 671 l 199 0 l 113 0 l 113 550 q 181 776 113 700 q 396 853 250 853 q 675 765 549 853 l 675 704 l 478 483 l 478 474 q 680 406 613 467 q 747 239 747 344 q 479 -11 747 -11 z "},"Ə":{"ha":858,"x_min":79,"x_max":760,"o":"m 400 -11 q 159 80 239 -11 q 79 329 79 171 q 82 385 79 368 l 182 472 l 672 467 q 386 785 672 785 q 240 765 300 785 q 119 707 181 746 l 85 775 q 226 843 156 819 q 396 867 296 867 q 667 756 574 867 q 760 436 760 644 q 672 102 760 215 q 400 -11 585 -11 m 401 71 q 608 153 544 71 q 672 393 672 235 l 171 386 q 165 303 165 342 q 226 133 165 194 q 401 71 286 71 z "},"T":{"ha":740,"x_min":51,"x_max":689,"o":"m 326 771 l 51 771 l 51 853 l 689 853 l 689 771 l 414 771 l 414 0 l 326 0 l 326 771 z "},"Ŧ":{"ha":740,"x_min":51,"x_max":689,"o":"m 326 392 l 165 392 l 165 463 l 326 463 l 326 771 l 51 771 l 51 853 l 689 853 l 689 771 l 414 771 l 414 463 l 576 463 l 576 392 l 414 392 l 414 0 l 326 0 l 326 392 z "},"Ť":{"ha":740,"x_min":51,"x_max":689,"o":"m 189 1165 l 243 1176 l 367 1054 l 375 1054 l 496 1176 l 553 1165 l 413 981 l 329 981 l 189 1165 m 326 771 l 51 771 l 51 853 l 689 853 l 689 771 l 414 771 l 414 0 l 326 0 l 326 771 z "},"Ţ":{"ha":740,"x_min":51,"x_max":689,"o":"m 344 -300 q 228 -278 279 -300 l 247 -224 q 343 -239 290 -239 q 413 -232 386 -239 q 419 -186 419 -211 q 356 -135 419 -135 q 296 -144 319 -135 l 244 -94 l 326 3 l 326 771 l 51 771 l 51 853 l 689 853 l 689 771 l 414 771 l 414 0 l 390 0 l 325 -89 q 388 -79 349 -79 q 492 -181 492 -79 q 344 -300 492 -300 z "},"Ț":{"ha":756,"x_min":58,"x_max":696,"o":"m 333 771 l 58 771 l 58 853 l 696 853 l 696 771 l 421 771 l 421 0 l 333 0 l 333 771 m 331 -326 q 367 -240 354 -282 q 379 -146 379 -197 l 304 -146 l 304 -86 q 364 -76 329 -76 q 449 -168 449 -76 q 431 -256 449 -212 q 383 -339 414 -300 l 331 -326 z "},"Ṭ":{"ha":740,"x_min":51,"x_max":689,"o":"m 326 771 l 51 771 l 51 853 l 689 853 l 689 771 l 414 771 l 414 0 l 326 0 l 326 771 m 371 -228 q 320 -210 339 -228 q 301 -162 301 -193 q 319 -112 301 -129 q 371 -94 338 -94 q 422 -112 404 -94 q 440 -162 440 -129 q 422 -210 440 -193 q 371 -228 404 -228 z "},"Ṯ":{"ha":740,"x_min":51,"x_max":689,"o":"m 326 771 l 51 771 l 51 853 l 689 853 l 689 771 l 414 771 l 414 0 l 326 0 l 326 771 m 158 -99 l 582 -99 l 582 -178 l 158 -178 l 158 -99 z "},"U":{"ha":832,"x_min":108,"x_max":721,"o":"m 407 -12 q 108 236 108 -12 l 108 853 l 196 853 l 196 256 q 247 110 196 150 q 417 69 299 69 q 633 104 554 69 l 633 853 l 721 853 l 721 144 q 637 26 721 64 q 407 -12 553 -12 z "},"Ú":{"ha":832,"x_min":108,"x_max":721,"o":"m 360 979 l 475 1176 l 588 1165 l 422 968 l 360 979 m 407 -12 q 108 236 108 -12 l 108 853 l 196 853 l 196 256 q 247 110 196 150 q 417 69 299 69 q 633 104 554 69 l 633 853 l 721 853 l 721 144 q 637 26 721 64 q 407 -12 553 -12 z "},"Ŭ":{"ha":832,"x_min":108,"x_max":721,"o":"m 418 974 q 294 1013 338 974 q 240 1121 251 1051 l 322 1135 q 348 1066 328 1089 q 418 1043 368 1043 q 487 1066 467 1043 q 513 1135 507 1089 l 594 1121 q 540 1013 583 1053 q 418 974 497 974 m 407 -12 q 108 236 108 -12 l 108 853 l 196 853 l 196 256 q 247 110 196 150 q 417 69 299 69 q 633 104 554 69 l 633 853 l 721 853 l 721 144 q 637 26 721 64 q 407 -12 553 -12 z "},"Ǔ":{"ha":832,"x_min":108,"x_max":721,"o":"m 233 1165 l 288 1176 l 411 1054 l 419 1054 l 540 1176 l 597 1165 l 457 981 l 374 981 l 233 1165 m 407 -12 q 108 236 108 -12 l 108 853 l 196 853 l 196 256 q 247 110 196 150 q 417 69 299 69 q 633 104 554 69 l 633 853 l 721 853 l 721 144 q 637 26 721 64 q 407 -12 553 -12 z "},"Û":{"ha":832,"x_min":108,"x_max":721,"o":"m 235 981 l 375 1164 l 458 1164 l 599 981 l 542 968 l 421 1092 l 413 1092 l 289 968 l 235 981 m 407 -12 q 108 236 108 -12 l 108 853 l 196 853 l 196 256 q 247 110 196 150 q 417 69 299 69 q 633 104 554 69 l 633 853 l 721 853 l 721 144 q 637 26 721 64 q 407 -12 553 -12 z "},"Ü":{"ha":832,"x_min":108,"x_max":721,"o":"m 310 974 q 270 988 285 974 q 256 1025 256 1001 q 270 1063 256 1050 q 310 1076 285 1076 q 349 1063 335 1076 q 363 1025 363 1050 q 349 988 363 1001 q 310 974 335 974 m 529 974 q 488 988 503 974 q 474 1025 474 1001 q 488 1063 474 1050 q 529 1076 503 1076 q 568 1063 554 1076 q 582 1025 582 1050 q 568 988 582 1001 q 529 974 554 974 m 407 -12 q 108 236 108 -12 l 108 853 l 196 853 l 196 256 q 247 110 196 150 q 417 69 299 69 q 633 104 554 69 l 633 853 l 721 853 l 721 144 q 637 26 721 64 q 407 -12 553 -12 z "},"Ǘ":{"ha":832,"x_min":108,"x_max":721,"o":"m 375 1186 l 478 1364 l 586 1350 l 438 1176 l 375 1186 m 307 978 q 267 991 282 978 q 253 1028 253 1004 q 267 1066 253 1053 q 307 1079 282 1079 q 346 1066 332 1079 q 360 1028 360 1053 q 346 991 360 1004 q 307 978 332 978 m 526 978 q 485 991 500 978 q 471 1028 471 1004 q 485 1066 471 1053 q 526 1079 500 1079 q 565 1066 551 1079 q 579 1028 579 1053 q 565 991 579 1004 q 526 978 551 978 m 407 -12 q 108 236 108 -12 l 108 853 l 196 853 l 196 256 q 247 110 196 150 q 417 69 299 69 q 633 104 554 69 l 633 853 l 721 853 l 721 144 q 637 26 721 64 q 407 -12 553 -12 z "},"Ǚ":{"ha":832,"x_min":108,"x_max":721,"o":"m 235 1339 l 289 1350 l 406 1235 l 414 1235 l 529 1350 l 585 1339 l 451 1164 l 368 1164 l 235 1339 m 304 974 q 265 988 279 974 q 250 1025 250 1001 q 265 1063 250 1050 q 304 1076 279 1076 q 343 1063 329 1076 q 357 1025 357 1050 q 343 988 357 1001 q 304 974 329 974 m 524 974 q 483 988 497 974 q 468 1025 468 1001 q 483 1063 468 1050 q 524 1076 497 1076 q 563 1063 549 1076 q 576 1025 576 1050 q 563 988 576 1001 q 524 974 549 974 m 407 -12 q 108 236 108 -12 l 108 853 l 196 853 l 196 256 q 247 110 196 150 q 417 69 299 69 q 633 104 554 69 l 633 853 l 721 853 l 721 144 q 637 26 721 64 q 407 -12 553 -12 z "},"Ǜ":{"ha":832,"x_min":108,"x_max":721,"o":"m 246 1347 l 353 1360 l 457 1183 l 393 1172 l 246 1347 m 304 974 q 266 988 281 974 q 251 1025 251 1001 q 265 1063 251 1050 q 304 1076 279 1076 q 344 1063 331 1076 q 358 1025 358 1050 q 344 988 358 1001 q 304 974 331 974 m 524 974 q 484 988 499 974 q 469 1025 469 1001 q 484 1063 469 1050 q 524 1076 499 1076 q 563 1063 549 1076 q 576 1025 576 1050 q 563 988 576 1001 q 524 974 549 974 m 407 -12 q 108 236 108 -12 l 108 853 l 196 853 l 196 256 q 247 110 196 150 q 417 69 299 69 q 633 104 554 69 l 633 853 l 721 853 l 721 144 q 637 26 721 64 q 407 -12 553 -12 z "},"Ǖ":{"ha":832,"x_min":108,"x_max":721,"o":"m 219 1242 l 615 1242 l 615 1168 l 219 1168 l 219 1242 m 307 976 q 267 990 282 976 q 253 1028 253 1004 q 267 1066 253 1053 q 307 1079 282 1079 q 346 1066 332 1079 q 360 1028 360 1053 q 346 990 360 1004 q 307 976 332 976 m 526 976 q 485 990 500 976 q 471 1028 471 1004 q 485 1066 471 1053 q 526 1079 500 1079 q 565 1066 551 1079 q 579 1028 579 1053 q 565 990 579 1004 q 526 976 551 976 m 407 -12 q 108 236 108 -12 l 108 853 l 196 853 l 196 256 q 247 110 196 150 q 417 69 299 69 q 633 104 554 69 l 633 853 l 721 853 l 721 144 q 637 26 721 64 q 407 -12 553 -12 z "},"Ụ":{"ha":832,"x_min":108,"x_max":721,"o":"m 407 -12 q 108 236 108 -12 l 108 853 l 196 853 l 196 256 q 247 110 196 150 q 417 69 299 69 q 633 104 554 69 l 633 853 l 721 853 l 721 144 q 637 26 721 64 q 407 -12 553 -12 m 426 -228 q 376 -210 394 -228 q 357 -162 357 -193 q 375 -112 357 -129 q 426 -94 393 -94 q 478 -112 460 -94 q 496 -162 496 -129 q 478 -210 496 -193 q 426 -228 460 -228 z "},"Ù":{"ha":832,"x_min":108,"x_max":721,"o":"m 243 1167 l 356 1178 l 471 981 l 408 969 l 243 1167 m 407 -12 q 108 236 108 -12 l 108 853 l 196 853 l 196 256 q 247 110 196 150 q 417 69 299 69 q 633 104 554 69 l 633 853 l 721 853 l 721 144 q 637 26 721 64 q 407 -12 553 -12 z "},"Ủ":{"ha":832,"x_min":108,"x_max":721,"o":"m 374 1049 l 374 1088 q 471 1097 444 1088 q 497 1138 497 1106 q 483 1175 497 1164 q 433 1186 468 1186 q 358 1172 392 1186 l 340 1224 q 446 1244 389 1244 q 536 1216 507 1244 q 565 1140 565 1188 q 438 1038 565 1040 l 438 981 l 390 981 l 374 1049 m 407 -12 q 108 236 108 -12 l 108 853 l 196 853 l 196 256 q 247 110 196 150 q 417 69 299 69 q 633 104 554 69 l 633 853 l 721 853 l 721 144 q 637 26 721 64 q 407 -12 553 -12 z "},"Ư":{"ha":1003,"x_min":108,"x_max":1003,"o":"m 407 -14 q 108 235 108 -14 l 108 853 l 196 853 l 196 253 q 247 107 196 147 q 417 67 299 67 q 633 103 551 67 l 633 853 l 719 853 l 719 704 l 735 704 q 868 801 822 742 q 915 964 914 861 l 1003 964 q 721 625 1003 697 l 721 142 q 637 24 721 61 q 407 -14 553 -14 z "},"Ứ":{"ha":1003,"x_min":108,"x_max":1003,"o":"m 376 979 l 492 1178 l 604 1165 l 439 969 l 376 979 m 407 -14 q 108 235 108 -14 l 108 853 l 196 853 l 196 253 q 247 107 196 147 q 417 67 299 67 q 633 103 551 67 l 633 853 l 719 853 l 719 704 l 735 704 q 868 801 822 742 q 915 964 914 861 l 1003 964 q 721 625 1003 697 l 721 142 q 637 24 721 61 q 407 -14 553 -14 z "},"Ự":{"ha":1003,"x_min":108,"x_max":1003,"o":"m 407 -14 q 108 235 108 -14 l 108 853 l 196 853 l 196 253 q 247 107 196 147 q 417 67 299 67 q 633 103 551 67 l 633 853 l 719 853 l 719 704 l 735 704 q 868 801 822 742 q 915 964 914 861 l 1003 964 q 721 625 1003 697 l 721 142 q 637 24 721 61 q 407 -14 553 -14 m 425 -228 q 374 -210 393 -228 q 356 -162 356 -193 q 374 -112 356 -129 q 425 -94 392 -94 q 476 -112 458 -94 q 494 -162 494 -129 q 476 -210 494 -193 q 425 -228 458 -228 z "},"Ừ":{"ha":1003,"x_min":108,"x_max":1003,"o":"m 249 1167 l 361 1179 l 476 981 l 414 971 l 249 1167 m 407 -14 q 108 235 108 -14 l 108 853 l 196 853 l 196 253 q 247 107 196 147 q 417 67 299 67 q 633 103 551 67 l 633 853 l 719 853 l 719 704 l 735 704 q 868 801 822 742 q 915 964 914 861 l 1003 964 q 721 625 1003 697 l 721 142 q 637 24 721 61 q 407 -14 553 -14 z "},"Ử":{"ha":1003,"x_min":108,"x_max":1003,"o":"m 374 1049 l 374 1088 q 471 1097 444 1088 q 497 1138 497 1106 q 483 1175 497 1164 q 433 1186 468 1186 q 358 1172 392 1186 l 340 1224 q 446 1244 389 1244 q 536 1216 507 1244 q 565 1140 565 1188 q 438 1038 565 1040 l 438 981 l 390 981 l 374 1049 m 407 -14 q 108 235 108 -14 l 108 853 l 196 853 l 196 253 q 247 107 196 147 q 417 67 299 67 q 633 103 551 67 l 633 853 l 719 853 l 719 704 l 735 704 q 868 801 822 742 q 915 964 914 861 l 1003 964 q 721 625 1003 697 l 721 142 q 637 24 721 61 q 407 -14 553 -14 z "},"Ữ":{"ha":1003,"x_min":108,"x_max":1003,"o":"m 233 986 q 342 1110 242 1110 q 381 1101 363 1110 q 429 1074 400 1092 q 468 1050 454 1057 q 497 1043 482 1043 q 558 1113 549 1043 l 615 1094 q 507 969 607 969 q 464 979 483 969 q 417 1007 444 989 q 382 1030 397 1022 q 351 1038 367 1038 q 290 968 300 1038 l 233 986 m 407 -14 q 108 235 108 -14 l 108 853 l 196 853 l 196 253 q 247 107 196 147 q 417 67 299 67 q 633 103 551 67 l 633 853 l 719 853 l 719 704 l 735 704 q 868 801 822 742 q 915 964 914 861 l 1003 964 q 721 625 1003 697 l 721 142 q 637 24 721 61 q 407 -14 553 -14 z "},"Ű":{"ha":832,"x_min":108,"x_max":721,"o":"m 256 981 q 292 1069 281 1026 q 304 1163 304 1111 l 229 1163 l 229 1222 q 288 1232 254 1232 q 371 1140 371 1232 q 307 969 371 1049 l 256 981 m 485 981 q 522 1069 510 1026 q 533 1163 533 1111 l 458 1163 l 458 1222 q 518 1232 483 1232 q 580 1209 560 1232 q 600 1140 600 1186 q 536 969 600 1049 l 485 981 m 407 -12 q 108 236 108 -12 l 108 853 l 196 853 l 196 256 q 247 110 196 150 q 417 69 299 69 q 633 104 554 69 l 633 853 l 721 853 l 721 144 q 637 26 721 64 q 407 -12 553 -12 z "},"Ū":{"ha":832,"x_min":108,"x_max":721,"o":"m 217 1054 l 613 1054 l 613 981 l 217 981 l 217 1054 m 407 -12 q 108 236 108 -12 l 108 853 l 196 853 l 196 256 q 247 110 196 150 q 417 69 299 69 q 633 104 554 69 l 633 853 l 721 853 l 721 144 q 637 26 721 64 q 407 -12 553 -12 z "},"Ų":{"ha":832,"x_min":108,"x_max":721,"o":"m 460 -229 q 367 -200 401 -229 q 333 -121 333 -171 q 349 -59 333 -85 q 393 -12 364 -33 q 108 236 108 -6 l 108 853 l 196 853 l 196 256 q 247 110 196 150 q 417 69 299 69 q 633 104 554 69 l 633 853 l 721 853 l 721 144 q 656 36 721 74 q 476 -10 592 -1 q 424 -58 439 -35 q 410 -115 410 -82 q 418 -157 410 -140 q 472 -162 440 -162 q 529 -156 504 -162 l 543 -214 q 460 -229 508 -229 z "},"Ů":{"ha":832,"x_min":108,"x_max":721,"o":"m 404 901 q 300 932 338 901 q 263 1021 263 963 q 306 1115 263 1076 q 425 1153 350 1153 q 531 1121 493 1153 q 568 1029 568 1089 q 524 938 568 975 q 404 901 479 901 m 408 957 q 496 967 467 957 q 506 1026 506 1001 q 484 1079 506 1060 q 422 1099 463 1099 q 335 1088 369 1099 q 325 1024 325 1060 q 347 974 325 992 q 408 957 368 957 m 407 -12 q 108 236 108 -12 l 108 853 l 196 853 l 196 256 q 247 110 196 150 q 417 69 299 69 q 633 104 554 69 l 633 853 l 721 853 l 721 144 q 637 26 721 64 q 407 -12 553 -12 z "},"Ũ":{"ha":832,"x_min":108,"x_max":721,"o":"m 229 989 q 338 1114 238 1114 q 377 1105 358 1114 q 425 1078 396 1096 q 464 1054 450 1061 q 493 1047 478 1047 q 554 1117 544 1047 l 611 1099 q 503 974 603 974 q 460 983 479 974 q 413 1011 440 993 q 377 1033 392 1026 q 347 1040 363 1040 q 304 1022 318 1040 q 286 971 290 1004 l 229 989 m 407 -12 q 108 236 108 -12 l 108 853 l 196 853 l 196 256 q 247 110 196 150 q 417 69 299 69 q 633 104 554 69 l 633 853 l 721 853 l 721 144 q 637 26 721 64 q 407 -12 553 -12 z "},"V":{"ha":808,"x_min":56,"x_max":751,"o":"m 339 0 q 186 402 261 172 q 56 854 111 632 l 149 861 q 265 440 194 664 q 393 83 336 217 l 414 83 q 542 440 471 217 q 658 861 613 664 l 751 854 q 623 405 699 636 q 468 0 547 174 l 339 0 z "},"W":{"ha":1147,"x_min":60,"x_max":1088,"o":"m 278 0 q 60 846 153 421 l 154 857 q 328 104 215 524 l 338 104 q 542 692 439 360 q 511 838 521 775 l 599 847 q 691 476 639 654 q 807 104 743 297 l 819 104 q 993 857 926 504 l 1088 846 q 868 0 992 414 l 758 0 q 586 535 653 297 l 571 535 q 378 0 474 235 l 278 0 z "},"Ẃ":{"ha":1147,"x_min":60,"x_max":1088,"o":"m 515 981 l 631 1178 l 743 1167 l 578 969 l 515 981 m 278 0 q 60 846 153 421 l 154 857 q 328 104 215 524 l 338 104 q 542 692 439 360 q 511 838 521 775 l 599 847 q 691 476 639 654 q 807 104 743 297 l 819 104 q 993 857 926 504 l 1088 846 q 868 0 992 414 l 758 0 q 586 535 653 297 l 571 535 q 378 0 474 235 l 278 0 z "},"Ŵ":{"ha":1147,"x_min":60,"x_max":1088,"o":"m 392 979 l 532 1164 l 615 1164 l 756 979 l 699 968 l 578 1090 l 569 1090 l 446 968 l 392 979 m 278 0 q 60 846 153 421 l 154 857 q 328 104 215 524 l 338 104 q 542 692 439 360 q 511 838 521 775 l 599 847 q 691 476 639 654 q 807 104 743 297 l 819 104 q 993 857 926 504 l 1088 846 q 868 0 992 414 l 758 0 q 586 535 653 297 l 571 535 q 378 0 474 235 l 278 0 z "},"Ẅ":{"ha":1147,"x_min":60,"x_max":1088,"o":"m 465 974 q 426 988 440 974 q 411 1025 411 1001 q 426 1063 411 1050 q 465 1076 440 1076 q 504 1063 490 1076 q 518 1025 518 1050 q 504 988 518 1001 q 465 974 490 974 m 685 974 q 644 988 658 974 q 629 1025 629 1001 q 644 1063 629 1050 q 685 1076 658 1076 q 724 1063 710 1076 q 738 1025 738 1050 q 724 988 738 1001 q 685 974 710 974 m 278 0 q 60 846 153 421 l 154 857 q 328 104 215 524 l 338 104 q 542 692 439 360 q 511 838 521 775 l 599 847 q 691 476 639 654 q 807 104 743 297 l 819 104 q 993 857 926 504 l 1088 846 q 868 0 992 414 l 758 0 q 586 535 653 297 l 571 535 q 378 0 474 235 l 278 0 z "},"Ẁ":{"ha":1147,"x_min":60,"x_max":1088,"o":"m 406 1167 l 518 1178 l 633 981 l 571 969 l 406 1167 m 278 0 q 60 846 153 421 l 154 857 q 328 104 215 524 l 338 104 q 542 692 439 360 q 511 838 521 775 l 599 847 q 691 476 639 654 q 807 104 743 297 l 819 104 q 993 857 926 504 l 1088 846 q 868 0 992 414 l 758 0 q 586 535 653 297 l 571 535 q 378 0 474 235 l 278 0 z "},"X":{"ha":851,"x_min":65,"x_max":776,"o":"m 65 14 q 335 424 174 208 q 203 624 274 510 q 76 840 132 738 l 172 861 q 406 468 272 664 l 443 468 q 688 861 594 679 l 776 842 q 514 431 671 643 q 652 224 581 338 q 775 14 724 111 l 683 -10 q 442 386 596 163 l 406 386 q 263 178 321 269 q 154 -10 204 88 l 65 14 z "},"Y":{"ha":835,"x_min":42,"x_max":792,"o":"m 374 307 l 346 307 q 182 551 256 424 q 42 836 108 678 l 129 860 q 253 599 183 725 q 393 376 322 474 l 442 376 q 581 600 513 475 q 704 860 650 725 l 792 836 q 652 551 725 678 q 488 307 579 424 l 461 307 l 461 0 l 374 0 l 374 307 z "},"Ý":{"ha":835,"x_min":42,"x_max":792,"o":"m 368 979 l 483 1178 l 596 1165 l 431 969 l 368 979 m 374 307 l 346 307 q 182 551 256 424 q 42 836 108 678 l 129 860 q 253 599 183 725 q 393 376 322 474 l 442 376 q 581 600 513 475 q 704 860 650 725 l 792 836 q 652 551 725 678 q 488 307 579 424 l 461 307 l 461 0 l 374 0 l 374 307 z "},"Ŷ":{"ha":835,"x_min":42,"x_max":792,"o":"m 236 981 l 376 1164 l 460 1164 l 600 981 l 543 968 l 422 1092 l 414 1092 l 290 968 l 236 981 m 374 307 l 346 307 q 182 551 256 424 q 42 836 108 678 l 129 860 q 253 599 183 725 q 393 376 322 474 l 442 376 q 581 600 513 475 q 704 860 650 725 l 792 836 q 652 551 725 678 q 488 307 579 424 l 461 307 l 461 0 l 374 0 l 374 307 z "},"Ÿ":{"ha":835,"x_min":42,"x_max":792,"o":"m 308 974 q 269 988 283 974 q 254 1025 254 1001 q 269 1063 254 1050 q 308 1076 283 1076 q 347 1063 333 1076 q 361 1025 361 1050 q 347 988 361 1001 q 308 974 333 974 m 528 974 q 487 988 501 974 q 472 1025 472 1001 q 487 1063 472 1050 q 528 1076 501 1076 q 567 1063 553 1076 q 581 1025 581 1050 q 567 988 581 1001 q 528 974 553 974 m 374 307 l 346 307 q 182 551 256 424 q 42 836 108 678 l 129 860 q 253 599 183 725 q 393 376 322 474 l 442 376 q 581 600 513 475 q 704 860 650 725 l 792 836 q 652 551 725 678 q 488 307 579 424 l 461 307 l 461 0 l 374 0 l 374 307 z "},"Ẏ":{"ha":835,"x_min":42,"x_max":792,"o":"m 418 974 q 367 991 386 974 q 349 1039 349 1008 q 367 1090 349 1072 q 418 1107 385 1107 q 469 1090 451 1107 q 488 1039 488 1072 q 469 991 488 1008 q 418 974 451 974 m 374 307 l 346 307 q 182 551 256 424 q 42 836 108 678 l 129 860 q 253 599 183 725 q 393 376 322 474 l 442 376 q 581 600 513 475 q 704 860 650 725 l 792 836 q 652 551 725 678 q 488 307 579 424 l 461 307 l 461 0 l 374 0 l 374 307 z "},"Ỵ":{"ha":835,"x_min":42,"x_max":792,"o":"m 374 307 l 346 307 q 182 551 256 424 q 42 836 108 678 l 129 860 q 253 599 183 725 q 393 376 322 474 l 442 376 q 581 600 513 475 q 704 860 650 725 l 792 836 q 652 551 725 678 q 488 307 579 424 l 461 307 l 461 0 l 374 0 l 374 307 m 417 -228 q 366 -210 385 -228 q 347 -162 347 -193 q 365 -112 347 -129 q 417 -94 383 -94 q 468 -112 450 -94 q 486 -162 486 -129 q 468 -210 486 -193 q 417 -228 450 -228 z "},"Ỳ":{"ha":835,"x_min":42,"x_max":792,"o":"m 242 1167 l 354 1179 l 469 981 l 407 971 l 242 1167 m 374 307 l 346 307 q 182 551 256 424 q 42 836 108 678 l 129 860 q 253 599 183 725 q 393 376 322 474 l 442 376 q 581 600 513 475 q 704 860 650 725 l 792 836 q 652 551 725 678 q 488 307 579 424 l 461 307 l 461 0 l 374 0 l 374 307 z "},"Ỷ":{"ha":835,"x_min":42,"x_max":792,"o":"m 376 1049 l 376 1088 q 474 1097 447 1088 q 500 1138 500 1106 q 485 1175 500 1164 q 436 1186 471 1186 q 361 1172 394 1186 l 343 1224 q 449 1244 392 1244 q 539 1216 510 1244 q 568 1140 568 1188 q 440 1038 568 1040 l 440 981 l 393 981 l 376 1049 m 374 307 l 346 307 q 182 551 256 424 q 42 836 108 678 l 129 860 q 253 599 183 725 q 393 376 322 474 l 442 376 q 581 600 513 475 q 704 860 650 725 l 792 836 q 652 551 725 678 q 488 307 579 424 l 461 307 l 461 0 l 374 0 l 374 307 z "},"Ỹ":{"ha":835,"x_min":42,"x_max":792,"o":"m 226 986 q 335 1110 235 1110 q 374 1101 356 1110 q 422 1074 393 1092 q 461 1050 447 1057 q 490 1043 475 1043 q 551 1113 542 1043 l 608 1094 q 500 969 600 969 q 457 979 476 969 q 410 1007 438 989 q 375 1030 390 1022 q 344 1038 360 1038 q 283 968 293 1038 l 226 986 m 374 307 l 346 307 q 182 551 256 424 q 42 836 108 678 l 129 860 q 253 599 183 725 q 393 376 322 474 l 442 376 q 581 600 513 475 q 704 860 650 725 l 792 836 q 652 551 725 678 q 488 307 579 424 l 461 307 l 461 0 l 374 0 l 374 307 z "},"Z":{"ha":767,"x_min":78,"x_max":692,"o":"m 78 94 l 572 758 l 572 772 l 188 772 l 188 678 l 118 678 q 96 799 96 739 l 96 853 l 676 853 l 676 760 l 181 96 l 181 79 l 600 79 l 600 178 l 671 178 q 692 53 692 113 l 692 0 l 78 0 l 78 94 z "},"Ź":{"ha":765,"x_min":76,"x_max":690,"o":"m 324 981 l 439 1178 l 551 1167 l 386 969 l 324 981 m 76 94 l 571 758 l 571 772 l 186 772 l 186 678 l 117 678 q 94 799 94 739 l 94 853 l 675 853 l 675 760 l 179 96 l 179 79 l 599 79 l 599 178 l 669 178 q 690 53 690 113 l 690 0 l 76 0 l 76 94 z "},"Ž":{"ha":765,"x_min":76,"x_max":690,"o":"m 204 1165 l 258 1176 l 382 1054 l 390 1054 l 511 1176 l 568 1165 l 428 981 l 344 981 l 204 1165 m 76 94 l 571 758 l 571 772 l 186 772 l 186 678 l 117 678 q 94 799 94 739 l 94 853 l 675 853 l 675 760 l 179 96 l 179 79 l 599 79 l 599 178 l 669 178 q 690 53 690 113 l 690 0 l 76 0 l 76 94 z "},"Ż":{"ha":765,"x_min":76,"x_max":690,"o":"m 392 974 q 341 991 360 974 q 322 1039 322 1008 q 340 1090 322 1072 q 392 1107 358 1107 q 443 1090 425 1107 q 461 1039 461 1072 q 443 991 461 1008 q 392 974 425 974 m 76 94 l 571 758 l 571 772 l 186 772 l 186 678 l 117 678 q 94 799 94 739 l 94 853 l 675 853 l 675 760 l 179 96 l 179 79 l 599 79 l 599 178 l 669 178 q 690 53 690 113 l 690 0 l 76 0 l 76 94 z "},"Ẓ":{"ha":765,"x_min":76,"x_max":690,"o":"m 76 94 l 571 758 l 571 772 l 186 772 l 186 678 l 117 678 q 94 799 94 739 l 94 853 l 675 853 l 675 760 l 179 96 l 179 79 l 599 79 l 599 178 l 669 178 q 690 53 690 113 l 690 0 l 76 0 l 76 94 m 393 -221 q 342 -203 361 -221 q 324 -156 324 -186 q 342 -105 324 -122 q 393 -87 360 -87 q 444 -105 426 -87 q 463 -156 463 -122 q 444 -203 463 -186 q 393 -221 426 -221 z "},"a":{"ha":646,"x_min":63,"x_max":544,"o":"m 249 -12 q 110 31 158 -12 q 63 150 63 75 q 139 306 63 254 q 353 358 215 358 q 460 353 399 358 l 460 447 q 426 562 460 531 q 310 593 393 593 q 203 586 251 593 l 189 486 l 126 486 q 111 571 111 529 l 111 597 q 220 642 156 622 q 343 661 285 661 q 492 609 439 661 q 544 460 544 557 l 544 0 l 472 0 l 467 92 l 456 92 q 366 15 419 43 q 249 -12 313 -12 m 263 56 q 376 85 324 56 q 464 165 429 114 l 464 289 q 325 300 401 300 q 182 285 233 300 q 158 224 165 253 q 150 163 150 196 q 178 79 150 103 q 263 56 207 56 z "},"á":{"ha":646,"x_min":63,"x_max":544,"o":"m 299 781 l 414 978 l 526 967 l 361 769 l 299 781 m 249 -12 q 110 31 158 -12 q 63 150 63 75 q 139 306 63 254 q 353 358 215 358 q 460 353 399 358 l 460 447 q 426 562 460 531 q 310 593 393 593 q 203 586 251 593 l 189 486 l 126 486 q 111 571 111 529 l 111 597 q 220 642 156 622 q 343 661 285 661 q 492 609 439 661 q 544 460 544 557 l 544 0 l 472 0 l 467 92 l 456 92 q 366 15 419 43 q 249 -12 313 -12 m 263 56 q 376 85 324 56 q 464 165 429 114 l 464 289 q 325 300 401 300 q 182 285 233 300 q 158 224 165 253 q 150 163 150 196 q 178 79 150 103 q 263 56 207 56 z "},"ă":{"ha":646,"x_min":63,"x_max":544,"o":"m 349 767 q 225 806 268 767 q 171 914 182 844 l 253 926 q 278 858 258 881 q 349 835 299 835 q 417 858 397 835 q 443 926 438 881 l 525 914 q 471 806 514 846 q 349 767 428 767 m 249 -12 q 110 31 158 -12 q 63 150 63 75 q 139 306 63 254 q 353 358 215 358 q 460 353 399 358 l 460 447 q 426 562 460 531 q 310 593 393 593 q 203 586 251 593 l 189 486 l 126 486 q 111 571 111 529 l 111 597 q 220 642 156 622 q 343 661 285 661 q 492 609 439 661 q 544 460 544 557 l 544 0 l 472 0 l 467 92 l 456 92 q 366 15 419 43 q 249 -12 313 -12 m 263 56 q 376 85 324 56 q 464 165 429 114 l 464 289 q 325 300 401 300 q 182 285 233 300 q 158 224 165 253 q 150 163 150 196 q 178 79 150 103 q 263 56 207 56 z "},"ắ":{"ha":646,"x_min":63,"x_max":544,"o":"m 304 986 l 389 1133 l 469 1118 l 357 974 l 304 986 m 338 767 q 214 806 257 767 q 160 914 171 844 l 242 926 q 267 858 247 881 q 338 835 288 835 q 406 858 386 835 q 432 926 426 881 l 514 914 q 460 806 503 846 q 338 767 417 767 m 249 -12 q 110 31 158 -12 q 63 150 63 75 q 139 306 63 254 q 353 358 215 358 q 460 353 399 358 l 460 447 q 426 562 460 531 q 310 593 393 593 q 203 586 251 593 l 189 486 l 126 486 q 111 571 111 529 l 111 597 q 220 642 156 622 q 343 661 285 661 q 492 609 439 661 q 544 460 544 557 l 544 0 l 472 0 l 467 92 l 456 92 q 366 15 419 43 q 249 -12 313 -12 m 263 56 q 376 85 324 56 q 464 165 429 114 l 464 289 q 325 300 401 300 q 182 285 233 300 q 158 224 165 253 q 150 163 150 196 q 178 79 150 103 q 263 56 207 56 z "},"ặ":{"ha":646,"x_min":63,"x_max":544,"o":"m 347 767 q 224 806 267 767 q 169 914 181 844 l 251 926 q 277 858 257 881 q 347 835 297 835 q 416 858 396 835 q 442 926 436 881 l 524 914 q 469 806 513 846 q 347 767 426 767 m 249 -12 q 110 31 158 -12 q 63 150 63 75 q 139 306 63 254 q 353 358 215 358 q 460 353 399 358 l 460 447 q 426 562 460 531 q 310 593 393 593 q 203 586 251 593 l 189 486 l 126 486 q 111 571 111 529 l 111 597 q 220 642 156 622 q 343 661 285 661 q 492 609 439 661 q 544 460 544 557 l 544 0 l 472 0 l 467 92 l 456 92 q 366 15 419 43 q 249 -12 313 -12 m 263 56 q 376 85 324 56 q 464 165 429 114 l 464 289 q 325 300 401 300 q 182 285 233 300 q 158 224 165 253 q 150 163 150 196 q 178 79 150 103 q 263 56 207 56 m 335 -228 q 284 -210 303 -228 q 265 -162 265 -193 q 283 -112 265 -129 q 335 -94 301 -94 q 386 -112 368 -94 q 404 -162 404 -129 q 386 -210 404 -193 q 335 -228 368 -228 z "},"ằ":{"ha":646,"x_min":63,"x_max":544,"o":"m 208 1118 l 290 1133 l 374 986 l 321 974 l 208 1118 m 340 767 q 217 806 260 767 q 163 914 174 844 l 244 926 q 270 858 250 881 q 340 835 290 835 q 409 858 389 835 q 435 926 429 881 l 517 914 q 463 806 506 846 q 340 767 419 767 m 249 -12 q 110 31 158 -12 q 63 150 63 75 q 139 306 63 254 q 353 358 215 358 q 460 353 399 358 l 460 447 q 426 562 460 531 q 310 593 393 593 q 203 586 251 593 l 189 486 l 126 486 q 111 571 111 529 l 111 597 q 220 642 156 622 q 343 661 285 661 q 492 609 439 661 q 544 460 544 557 l 544 0 l 472 0 l 467 92 l 456 92 q 366 15 419 43 q 249 -12 313 -12 m 263 56 q 376 85 324 56 q 464 165 429 114 l 464 289 q 325 300 401 300 q 182 285 233 300 q 158 224 165 253 q 150 163 150 196 q 178 79 150 103 q 263 56 207 56 z "},"ẳ":{"ha":646,"x_min":63,"x_max":544,"o":"m 304 1011 l 304 1044 q 369 1052 351 1044 q 388 1078 388 1060 q 378 1100 388 1093 q 347 1107 369 1107 q 292 1097 317 1107 l 279 1140 q 356 1156 315 1156 q 443 1078 443 1156 q 357 1004 443 1007 l 357 957 l 317 957 l 304 1011 m 336 767 q 213 806 256 767 q 158 914 169 844 l 240 926 q 266 858 246 881 q 336 835 286 835 q 405 858 385 835 q 431 926 425 881 l 513 914 q 458 806 501 846 q 336 767 415 767 m 249 -12 q 110 31 158 -12 q 63 150 63 75 q 139 306 63 254 q 353 358 215 358 q 460 353 399 358 l 460 447 q 426 562 460 531 q 310 593 393 593 q 203 586 251 593 l 189 486 l 126 486 q 111 571 111 529 l 111 597 q 220 642 156 622 q 343 661 285 661 q 492 609 439 661 q 544 460 544 557 l 544 0 l 472 0 l 467 92 l 456 92 q 366 15 419 43 q 249 -12 313 -12 m 263 56 q 376 85 324 56 q 464 165 429 114 l 464 289 q 325 300 401 300 q 182 285 233 300 q 158 224 165 253 q 150 163 150 196 q 178 79 150 103 q 263 56 207 56 z "},"ẵ":{"ha":646,"x_min":63,"x_max":544,"o":"m 179 1014 q 271 1111 189 1111 q 351 1083 307 1111 q 400 1065 385 1065 q 456 1117 444 1065 l 501 1101 q 410 1004 492 1004 q 374 1010 390 1004 q 338 1029 358 1017 q 308 1045 321 1040 q 282 1050 296 1050 q 226 1000 235 1050 l 179 1014 m 338 767 q 214 806 257 767 q 160 914 171 844 l 242 926 q 267 858 247 881 q 338 835 288 835 q 406 858 386 835 q 432 926 426 881 l 514 914 q 460 806 503 846 q 338 767 417 767 m 249 -12 q 110 31 158 -12 q 63 150 63 75 q 139 306 63 254 q 353 358 215 358 q 460 353 399 358 l 460 447 q 426 562 460 531 q 310 593 393 593 q 203 586 251 593 l 189 486 l 126 486 q 111 571 111 529 l 111 597 q 220 642 156 622 q 343 661 285 661 q 492 609 439 661 q 544 460 544 557 l 544 0 l 472 0 l 467 92 l 456 92 q 366 15 419 43 q 249 -12 313 -12 m 263 56 q 376 85 324 56 q 464 165 429 114 l 464 289 q 325 300 401 300 q 182 285 233 300 q 158 224 165 253 q 150 163 150 196 q 178 79 150 103 q 263 56 207 56 z "},"ǎ":{"ha":646,"x_min":63,"x_max":544,"o":"m 153 961 l 207 974 l 331 850 l 339 850 l 460 974 l 517 961 l 376 778 l 293 778 l 153 961 m 249 -12 q 110 31 158 -12 q 63 150 63 75 q 139 306 63 254 q 353 358 215 358 q 460 353 399 358 l 460 447 q 426 562 460 531 q 310 593 393 593 q 203 586 251 593 l 189 486 l 126 486 q 111 571 111 529 l 111 597 q 220 642 156 622 q 343 661 285 661 q 492 609 439 661 q 544 460 544 557 l 544 0 l 472 0 l 467 92 l 456 92 q 366 15 419 43 q 249 -12 313 -12 m 263 56 q 376 85 324 56 q 464 165 429 114 l 464 289 q 325 300 401 300 q 182 285 233 300 q 158 224 165 253 q 150 163 150 196 q 178 79 150 103 q 263 56 207 56 z "},"â":{"ha":646,"x_min":63,"x_max":544,"o":"m 149 779 l 289 964 l 372 964 l 513 779 l 456 768 l 335 890 l 326 890 l 203 768 l 149 779 m 249 -12 q 110 31 158 -12 q 63 150 63 75 q 139 306 63 254 q 353 358 215 358 q 460 353 399 358 l 460 447 q 426 562 460 531 q 310 593 393 593 q 203 586 251 593 l 189 486 l 126 486 q 111 571 111 529 l 111 597 q 220 642 156 622 q 343 661 285 661 q 492 609 439 661 q 544 460 544 557 l 544 0 l 472 0 l 467 92 l 456 92 q 366 15 419 43 q 249 -12 313 -12 m 263 56 q 376 85 324 56 q 464 165 429 114 l 464 289 q 325 300 401 300 q 182 285 233 300 q 158 224 165 253 q 150 163 150 196 q 178 79 150 103 q 263 56 207 56 z "},"ấ":{"ha":675,"x_min":63,"x_max":674,"o":"m 508 901 l 593 1047 l 674 1033 l 561 889 l 508 901 m 153 776 l 293 961 l 376 961 l 517 776 l 460 765 l 339 888 l 331 888 l 207 765 l 153 776 m 249 -12 q 110 31 158 -12 q 63 150 63 75 q 139 306 63 254 q 353 358 215 358 q 460 353 399 358 l 460 447 q 426 562 460 531 q 310 593 393 593 q 203 586 251 593 l 189 494 l 126 494 q 111 579 111 538 l 111 597 q 220 642 156 622 q 343 661 285 661 q 492 609 439 661 q 544 460 544 557 l 544 0 l 472 0 l 467 92 l 456 92 q 366 15 419 43 q 249 -12 313 -12 m 263 56 q 376 85 324 56 q 464 165 429 114 l 464 289 q 325 300 401 300 q 182 285 233 300 q 158 224 165 253 q 150 163 150 196 q 178 79 150 103 q 263 56 207 56 z "},"ậ":{"ha":646,"x_min":63,"x_max":544,"o":"m 147 776 l 288 960 l 371 960 l 511 776 l 454 765 l 333 888 l 325 888 l 201 765 l 147 776 m 249 -12 q 110 31 158 -12 q 63 150 63 75 q 139 306 63 254 q 353 358 215 358 q 460 353 399 358 l 460 447 q 426 562 460 531 q 310 593 393 593 q 203 586 251 593 l 189 486 l 126 486 q 111 571 111 529 l 111 597 q 220 642 156 622 q 343 661 285 661 q 492 609 439 661 q 544 460 544 557 l 544 0 l 472 0 l 467 92 l 456 92 q 366 15 419 43 q 249 -12 313 -12 m 263 56 q 376 85 324 56 q 464 165 429 114 l 464 289 q 325 300 401 300 q 182 285 233 300 q 158 224 165 253 q 150 163 150 196 q 178 79 150 103 q 263 56 207 56 m 329 -228 q 278 -210 297 -228 q 260 -162 260 -193 q 278 -112 260 -129 q 329 -94 296 -94 q 381 -112 363 -94 q 399 -162 399 -129 q 381 -210 399 -193 q 329 -228 363 -228 z "},"ầ":{"ha":653,"x_min":1,"x_max":550,"o":"m 1 1033 l 83 1049 l 167 901 l 114 890 l 1 1033 m 160 778 l 300 961 l 382 961 l 524 778 l 469 765 l 344 889 l 338 889 l 215 765 l 160 778 m 254 -12 q 116 31 164 -12 q 68 150 68 75 q 144 306 68 254 q 358 358 221 358 q 465 353 404 358 l 465 447 q 432 562 465 531 q 315 593 399 593 q 208 586 257 593 l 194 486 l 132 486 q 117 571 117 529 l 117 597 q 226 642 161 622 q 349 661 290 661 q 497 609 444 661 q 550 460 550 557 l 550 0 l 478 0 l 472 92 l 461 92 q 372 15 425 43 q 254 -12 318 -12 m 268 56 q 382 85 329 56 q 469 165 435 114 l 469 289 q 331 300 407 300 q 188 285 239 300 q 163 224 171 253 q 156 163 156 196 q 184 79 156 103 q 268 56 213 56 z "},"ẩ":{"ha":683,"x_min":63,"x_max":636,"o":"m 497 968 l 497 1003 q 563 1010 544 1003 q 581 1035 581 1017 q 572 1058 581 1051 q 540 1065 563 1065 q 485 1054 514 1065 l 472 1099 q 549 1114 514 1114 q 636 1036 636 1114 q 550 963 636 965 l 550 914 l 510 914 l 497 968 m 150 776 l 290 960 l 374 960 l 514 776 l 457 764 l 336 888 l 328 888 l 204 764 l 150 776 m 249 -12 q 110 31 158 -12 q 63 150 63 75 q 139 306 63 254 q 353 358 215 358 q 460 353 399 358 l 460 447 q 426 562 460 531 q 310 593 393 593 q 203 586 251 593 l 189 486 l 126 486 q 111 571 111 529 l 111 597 q 220 642 156 622 q 343 661 285 661 q 492 609 439 661 q 544 460 544 557 l 544 0 l 472 0 l 467 92 l 456 92 q 366 15 419 43 q 249 -12 313 -12 m 263 56 q 376 85 324 56 q 464 165 429 114 l 464 289 q 325 300 401 300 q 182 285 233 300 q 158 224 165 253 q 150 163 150 196 q 178 79 150 103 q 263 56 207 56 z "},"ẫ":{"ha":646,"x_min":63,"x_max":544,"o":"m 169 1046 q 261 1143 179 1143 q 342 1115 297 1143 q 390 1097 375 1097 q 446 1149 435 1097 l 492 1133 q 400 1038 482 1038 q 365 1044 381 1038 q 328 1063 349 1050 q 299 1078 311 1074 q 272 1083 286 1083 q 217 1032 225 1083 l 169 1046 m 150 776 l 290 960 l 374 960 l 514 776 l 457 765 l 336 888 l 328 888 l 204 765 l 150 776 m 249 -12 q 110 31 158 -12 q 63 150 63 75 q 139 306 63 254 q 353 358 215 358 q 460 353 399 358 l 460 447 q 426 562 460 531 q 310 593 393 593 q 203 586 251 593 l 189 486 l 126 486 q 111 571 111 529 l 111 597 q 220 642 156 622 q 343 661 285 661 q 492 609 439 661 q 544 460 544 557 l 544 0 l 472 0 l 467 92 l 456 92 q 366 15 419 43 q 249 -12 313 -12 m 263 56 q 376 85 324 56 q 464 165 429 114 l 464 289 q 325 300 401 300 q 182 285 233 300 q 158 224 165 253 q 150 163 150 196 q 178 79 150 103 q 263 56 207 56 z "},"ä":{"ha":646,"x_min":63,"x_max":544,"o":"m 226 771 q 187 784 201 771 q 172 821 172 797 q 187 859 172 846 q 226 872 201 872 q 265 859 251 872 q 279 821 279 846 q 265 784 279 797 q 226 771 251 771 m 446 771 q 405 784 419 771 q 390 821 390 797 q 405 859 390 846 q 446 872 419 872 q 485 859 471 872 q 499 821 499 846 q 485 784 499 797 q 446 771 471 771 m 249 -12 q 110 31 158 -12 q 63 150 63 75 q 139 306 63 254 q 353 358 215 358 q 460 353 399 358 l 460 447 q 426 562 460 531 q 310 593 393 593 q 203 586 251 593 l 189 486 l 126 486 q 111 571 111 529 l 111 597 q 220 642 156 622 q 343 661 285 661 q 492 609 439 661 q 544 460 544 557 l 544 0 l 472 0 l 467 92 l 456 92 q 366 15 419 43 q 249 -12 313 -12 m 263 56 q 376 85 324 56 q 464 165 429 114 l 464 289 q 325 300 401 300 q 182 285 233 300 q 158 224 165 253 q 150 163 150 196 q 178 79 150 103 q 263 56 207 56 z "},"ạ":{"ha":646,"x_min":63,"x_max":544,"o":"m 249 -12 q 110 31 158 -12 q 63 150 63 75 q 139 306 63 254 q 353 358 215 358 q 460 353 399 358 l 460 447 q 426 562 460 531 q 310 593 393 593 q 203 586 251 593 l 189 486 l 126 486 q 111 571 111 529 l 111 597 q 220 642 156 622 q 343 661 285 661 q 492 609 439 661 q 544 460 544 557 l 544 0 l 472 0 l 467 92 l 456 92 q 366 15 419 43 q 249 -12 313 -12 m 263 56 q 376 85 324 56 q 464 165 429 114 l 464 289 q 325 300 401 300 q 182 285 233 300 q 158 224 165 253 q 150 163 150 196 q 178 79 150 103 q 263 56 207 56 m 324 -221 q 273 -203 292 -221 q 254 -156 254 -186 q 272 -105 254 -122 q 324 -87 290 -87 q 375 -105 357 -87 q 393 -156 393 -122 q 375 -203 393 -186 q 324 -221 357 -221 z "},"à":{"ha":646,"x_min":63,"x_max":544,"o":"m 181 967 l 293 978 l 408 781 l 346 769 l 181 967 m 249 -12 q 110 31 158 -12 q 63 150 63 75 q 139 306 63 254 q 353 358 215 358 q 460 353 399 358 l 460 447 q 426 562 460 531 q 310 593 393 593 q 203 586 251 593 l 189 486 l 126 486 q 111 571 111 529 l 111 597 q 220 642 156 622 q 343 661 285 661 q 492 609 439 661 q 544 460 544 557 l 544 0 l 472 0 l 467 92 l 456 92 q 366 15 419 43 q 249 -12 313 -12 m 263 56 q 376 85 324 56 q 464 165 429 114 l 464 289 q 325 300 401 300 q 182 285 233 300 q 158 224 165 253 q 150 163 150 196 q 178 79 150 103 q 263 56 207 56 z "},"ả":{"ha":646,"x_min":63,"x_max":544,"o":"m 296 846 l 296 885 q 393 894 367 885 q 419 935 419 903 q 405 971 419 960 q 356 982 390 982 q 281 969 315 982 l 263 1021 q 368 1042 311 1042 q 458 1013 429 1042 q 488 936 488 985 q 360 833 488 838 l 360 778 l 313 778 l 296 846 m 249 -12 q 110 31 158 -12 q 63 150 63 75 q 139 306 63 254 q 353 358 215 358 q 460 353 399 358 l 460 447 q 426 562 460 531 q 310 593 393 593 q 203 586 251 593 l 189 486 l 126 486 q 111 571 111 529 l 111 597 q 220 642 156 622 q 343 661 285 661 q 492 609 439 661 q 544 460 544 557 l 544 0 l 472 0 l 467 92 l 456 92 q 366 15 419 43 q 249 -12 313 -12 m 263 56 q 376 85 324 56 q 464 165 429 114 l 464 289 q 325 300 401 300 q 182 285 233 300 q 158 224 165 253 q 150 163 150 196 q 178 79 150 103 q 263 56 207 56 z "},"ā":{"ha":646,"x_min":63,"x_max":544,"o":"m 165 851 l 510 851 l 510 778 l 165 778 l 165 851 m 249 -12 q 110 31 158 -12 q 63 150 63 75 q 139 306 63 254 q 353 358 215 358 q 460 353 399 358 l 460 447 q 426 562 460 531 q 310 593 393 593 q 203 586 251 593 l 189 486 l 126 486 q 111 571 111 529 l 111 597 q 220 642 156 622 q 343 661 285 661 q 492 609 439 661 q 544 460 544 557 l 544 0 l 472 0 l 467 92 l 456 92 q 366 15 419 43 q 249 -12 313 -12 m 263 56 q 376 85 324 56 q 464 165 429 114 l 464 289 q 325 300 401 300 q 182 285 233 300 q 158 224 165 253 q 150 163 150 196 q 178 79 150 103 q 263 56 207 56 z "},"ą":{"ha":675,"x_min":63,"x_max":574,"o":"m 574 -215 q 490 -231 539 -231 q 397 -202 431 -231 q 364 -122 364 -174 q 392 -44 364 -76 q 471 13 419 -11 l 467 92 l 456 92 q 366 15 419 43 q 249 -12 313 -12 q 110 31 158 -12 q 63 150 63 75 q 139 306 63 254 q 353 358 215 358 q 460 353 399 358 l 460 447 q 426 562 460 531 q 310 593 393 593 q 203 586 251 593 l 189 486 l 126 486 q 111 571 111 529 l 111 597 q 220 642 156 622 q 343 661 285 661 q 492 609 439 661 q 544 460 544 557 l 544 0 l 526 0 q 459 -54 478 -28 q 440 -118 440 -81 q 449 -160 440 -143 q 503 -165 471 -165 q 560 -158 533 -165 l 574 -215 m 464 289 q 325 300 401 300 q 182 285 233 300 q 158 224 165 253 q 150 163 150 196 q 178 79 150 103 q 263 56 207 56 q 376 85 324 56 q 464 165 429 114 l 464 289 z "},"å":{"ha":646,"x_min":63,"x_max":544,"o":"m 335 771 q 231 801 268 771 q 193 890 193 832 q 237 983 193 944 q 356 1021 281 1021 q 461 989 424 1021 q 499 897 499 957 q 454 808 499 844 q 335 771 410 771 m 339 825 q 426 835 397 825 q 436 894 436 871 q 415 947 436 928 q 353 967 393 967 q 265 957 296 967 q 256 892 256 928 q 277 842 256 860 q 339 825 299 825 m 249 -12 q 110 31 158 -12 q 63 150 63 75 q 139 306 63 254 q 353 358 215 358 q 460 353 399 358 l 460 447 q 426 562 460 531 q 310 593 393 593 q 203 586 251 593 l 189 486 l 126 486 q 111 571 111 529 l 111 597 q 220 642 156 622 q 343 661 285 661 q 492 609 439 661 q 544 460 544 557 l 544 0 l 472 0 l 467 92 l 456 92 q 366 15 419 43 q 249 -12 313 -12 m 263 56 q 376 85 324 56 q 464 165 429 114 l 464 289 q 325 300 401 300 q 182 285 233 300 q 158 224 165 253 q 150 163 150 196 q 178 79 150 103 q 263 56 207 56 z "},"ǻ":{"ha":646,"x_min":63,"x_max":544,"o":"m 290 1094 l 406 1292 l 518 1281 l 353 1083 l 290 1094 m 321 756 q 217 786 254 756 q 179 875 179 817 q 223 967 179 929 q 342 1006 267 1006 q 447 974 410 1006 q 485 882 485 942 q 440 792 485 829 q 321 756 396 756 m 325 810 q 413 819 383 810 q 422 881 422 856 q 401 933 422 914 q 339 951 379 951 q 251 942 282 951 q 242 878 242 913 q 263 828 242 846 q 325 810 285 810 m 249 -12 q 110 31 158 -12 q 63 150 63 75 q 139 306 63 254 q 353 358 215 358 q 460 353 399 358 l 460 447 q 426 562 460 531 q 310 593 393 593 q 203 586 251 593 l 189 486 l 126 486 q 111 571 111 529 l 111 597 q 220 642 156 622 q 343 661 285 661 q 492 609 439 661 q 544 460 544 557 l 544 0 l 472 0 l 467 92 l 456 92 q 366 15 419 43 q 249 -12 313 -12 m 263 56 q 376 85 324 56 q 464 165 429 114 l 464 289 q 325 300 401 300 q 182 285 233 300 q 158 224 165 253 q 150 163 150 196 q 178 79 150 103 q 263 56 207 56 z "},"ɑ":{"ha":703,"x_min":78,"x_max":597,"o":"m 301 -11 q 131 78 185 -11 q 78 308 78 167 q 133 568 78 475 q 319 661 188 661 q 431 631 386 661 q 508 546 476 600 l 518 546 l 525 658 l 597 658 l 597 0 l 525 -1 l 518 96 l 508 96 q 415 17 464 46 q 301 -11 367 -11 m 322 61 q 513 169 433 61 l 513 478 q 329 589 436 589 q 200 521 238 589 q 163 317 163 453 q 201 126 163 190 q 322 61 240 61 z "},"ã":{"ha":646,"x_min":63,"x_max":544,"o":"m 144 786 q 253 910 153 910 q 292 901 274 910 q 340 874 311 892 q 379 850 365 857 q 408 843 393 843 q 469 913 460 843 l 526 894 q 418 771 518 771 q 375 781 394 771 q 328 808 356 790 q 292 831 307 824 q 263 838 278 838 q 219 819 233 838 q 201 768 206 801 l 144 786 m 249 -12 q 110 31 158 -12 q 63 150 63 75 q 139 306 63 254 q 353 358 215 358 q 460 353 399 358 l 460 447 q 426 562 460 531 q 310 593 393 593 q 203 586 251 593 l 189 486 l 126 486 q 111 571 111 529 l 111 597 q 220 642 156 622 q 343 661 285 661 q 492 609 439 661 q 544 460 544 557 l 544 0 l 472 0 l 467 92 l 456 92 q 366 15 419 43 q 249 -12 313 -12 m 263 56 q 376 85 324 56 q 464 165 429 114 l 464 289 q 325 300 401 300 q 182 285 233 300 q 158 224 165 253 q 150 163 150 196 q 178 79 150 103 q 263 56 207 56 z "},"æ":{"ha":1053,"x_min":63,"x_max":985,"o":"m 253 -12 q 113 32 164 -12 q 63 150 63 76 q 138 306 63 254 q 351 358 214 358 q 474 353 410 358 l 474 447 q 433 560 474 528 q 308 593 393 593 q 203 586 251 593 l 189 486 l 126 486 q 111 571 111 529 l 111 597 q 219 642 156 622 q 342 661 283 661 q 461 632 411 661 q 533 549 511 603 q 750 661 601 661 q 923 593 861 661 q 985 407 985 525 q 982 360 985 393 l 911 289 l 557 292 q 606 122 560 178 q 753 65 653 65 q 858 79 814 65 q 947 121 901 93 l 974 56 q 873 9 924 25 q 749 -7 822 -7 q 521 110 582 -7 q 406 17 464 47 q 253 -12 349 -12 m 900 360 q 907 426 907 388 q 865 544 907 501 q 743 588 824 588 q 601 531 640 588 q 556 354 561 475 l 900 360 m 267 56 q 476 149 390 56 l 476 289 q 324 300 414 300 q 182 285 233 300 q 158 224 165 253 q 150 163 150 196 q 179 79 150 103 q 267 56 208 56 z "},"ǽ":{"ha":1053,"x_min":63,"x_max":985,"o":"m 490 776 l 606 975 l 718 963 l 553 767 l 490 776 m 253 -12 q 113 32 164 -12 q 63 150 63 76 q 138 306 63 254 q 351 358 214 358 q 474 353 410 358 l 474 447 q 433 560 474 528 q 308 593 393 593 q 203 586 251 593 l 189 486 l 126 486 q 111 571 111 529 l 111 597 q 219 642 156 622 q 342 661 283 661 q 461 632 411 661 q 533 549 511 603 q 750 661 601 661 q 923 593 861 661 q 985 407 985 525 q 982 360 985 393 l 911 289 l 557 292 q 606 122 560 178 q 753 65 653 65 q 858 79 814 65 q 947 121 901 93 l 974 56 q 873 9 924 25 q 749 -7 822 -7 q 521 110 582 -7 q 406 17 464 47 q 253 -12 349 -12 m 900 360 q 907 426 907 388 q 865 544 907 501 q 743 588 824 588 q 601 531 640 588 q 556 354 561 475 l 900 360 m 267 56 q 476 149 390 56 l 476 289 q 324 300 414 300 q 182 285 233 300 q 158 224 165 253 q 150 163 150 196 q 179 79 150 103 q 267 56 208 56 z "},"b":{"ha":719,"x_min":111,"x_max":644,"o":"m 333 -12 q 111 21 232 -12 l 111 929 l 194 929 l 194 661 l 190 557 l 199 557 q 417 661 308 661 q 590 575 535 661 q 644 343 644 489 q 566 78 644 169 q 333 -12 488 -12 m 336 61 q 504 126 451 61 q 557 339 557 192 q 518 528 557 468 q 393 588 479 588 q 194 486 283 588 l 194 78 q 336 61 264 61 z "},"c":{"ha":622,"x_min":74,"x_max":579,"o":"m 360 -12 q 74 300 74 -12 q 142 564 74 467 q 351 661 211 661 q 458 647 408 661 q 543 607 507 632 l 543 567 q 526 464 543 510 l 469 464 l 460 571 q 346 583 411 583 q 203 561 253 583 q 168 446 181 514 q 156 301 156 378 q 205 124 156 185 q 363 64 254 64 q 539 122 464 64 l 579 64 q 482 7 533 26 q 360 -12 431 -12 z "},"ć":{"ha":622,"x_min":74,"x_max":579,"o":"m 299 776 l 414 974 l 526 963 l 361 765 l 299 776 m 360 -12 q 74 300 74 -12 q 142 564 74 467 q 351 661 211 661 q 458 647 408 661 q 543 607 507 632 l 543 567 q 526 464 543 510 l 469 464 l 460 571 q 346 583 411 583 q 203 561 253 583 q 168 446 181 514 q 156 301 156 378 q 205 124 156 185 q 363 64 254 64 q 539 122 464 64 l 579 64 q 482 7 533 26 q 360 -12 431 -12 z "},"č":{"ha":622,"x_min":74,"x_max":579,"o":"m 168 961 l 222 974 l 346 850 l 354 850 l 475 974 l 532 961 l 392 778 l 308 778 l 168 961 m 360 -12 q 74 300 74 -12 q 142 564 74 467 q 351 661 211 661 q 458 647 408 661 q 543 607 507 632 l 543 567 q 526 464 543 510 l 469 464 l 460 571 q 346 583 411 583 q 203 561 253 583 q 168 446 181 514 q 156 301 156 378 q 205 124 156 185 q 363 64 254 64 q 539 122 464 64 l 579 64 q 482 7 533 26 q 360 -12 431 -12 z "},"ç":{"ha":622,"x_min":74,"x_max":579,"o":"m 335 -300 q 218 -278 269 -300 l 238 -222 q 332 -239 279 -239 q 401 -232 367 -239 q 410 -186 410 -211 q 346 -135 410 -135 q 285 -144 310 -135 l 235 -94 l 306 -8 q 74 300 74 18 q 142 564 74 467 q 351 661 211 661 q 458 647 408 661 q 543 607 507 632 l 543 567 q 526 464 543 510 l 469 464 l 460 571 q 346 583 411 583 q 203 561 253 583 q 168 446 181 514 q 156 301 156 378 q 205 124 156 185 q 363 64 254 64 q 539 122 464 64 l 579 64 q 487 8 536 28 q 371 -12 438 -11 l 315 -89 q 378 -78 342 -78 q 482 -181 482 -78 q 335 -300 482 -300 z "},"ĉ":{"ha":622,"x_min":74,"x_max":579,"o":"m 161 776 l 301 960 l 385 960 l 525 776 l 468 765 l 347 888 l 339 888 l 215 765 l 161 776 m 360 -12 q 74 300 74 -12 q 142 564 74 467 q 351 661 211 661 q 458 647 408 661 q 543 607 507 632 l 543 567 q 526 464 543 510 l 469 464 l 460 571 q 346 583 411 583 q 203 561 253 583 q 168 446 181 514 q 156 301 156 378 q 205 124 156 185 q 363 64 254 64 q 539 122 464 64 l 579 64 q 482 7 533 26 q 360 -12 431 -12 z "},"ċ":{"ha":622,"x_min":74,"x_max":579,"o":"m 354 771 q 303 788 322 771 q 285 836 285 806 q 303 886 285 868 q 354 904 322 904 q 406 886 388 904 q 424 836 424 868 q 406 788 424 804 q 354 771 388 771 m 360 -12 q 74 300 74 -12 q 142 564 74 467 q 351 661 211 661 q 458 647 408 661 q 543 607 507 632 l 543 567 q 526 464 543 510 l 469 464 l 460 571 q 346 583 411 583 q 203 561 253 583 q 168 446 181 514 q 156 301 156 378 q 205 124 156 185 q 363 64 254 64 q 539 122 464 64 l 579 64 q 482 7 533 26 q 360 -12 431 -12 z "},"d":{"ha":722,"x_min":76,"x_max":610,"o":"m 324 -12 q 135 74 193 -12 q 76 326 76 161 q 135 565 76 469 q 318 661 193 661 q 522 572 433 661 l 532 572 l 526 678 l 526 929 l 610 929 l 610 0 l 539 0 l 533 92 l 522 92 q 324 -12 444 -12 m 344 61 q 455 94 408 61 q 526 175 501 126 l 526 503 q 439 567 482 547 q 343 588 396 588 q 207 520 250 588 q 164 322 164 453 q 203 124 164 188 q 344 61 243 61 z "},"ð":{"ha":779,"x_min":113,"x_max":681,"o":"m 364 -15 q 181 53 249 -15 q 113 246 113 122 q 183 426 113 361 q 365 492 254 492 q 469 471 422 492 q 550 415 515 450 l 558 415 q 478 657 553 564 l 311 597 l 289 650 l 436 704 q 292 797 375 761 l 333 854 q 510 732 439 804 l 654 785 l 681 731 l 551 685 q 624 531 603 613 q 646 344 646 450 q 584 81 646 178 q 364 -15 522 -15 m 381 61 q 528 88 465 61 q 553 177 544 125 q 561 281 561 229 q 558 340 561 318 q 378 415 474 415 q 197 249 197 415 q 243 106 197 151 q 381 61 289 61 z "},"ď":{"ha":822,"x_min":76,"x_max":839,"o":"m 721 682 q 757 769 744 726 q 769 863 769 811 l 694 863 l 694 922 q 754 932 719 932 q 839 840 839 932 q 822 752 839 796 q 774 669 804 708 l 721 682 m 324 -12 q 135 74 193 -12 q 76 326 76 161 q 135 565 76 469 q 318 661 193 661 q 522 572 433 661 l 532 572 l 526 678 l 526 929 l 610 929 l 610 0 l 539 0 l 533 92 l 522 92 q 324 -12 444 -12 m 344 61 q 455 94 408 61 q 526 175 501 126 l 526 503 q 439 567 482 547 q 343 588 396 588 q 207 520 250 588 q 164 322 164 453 q 203 124 164 188 q 344 61 243 61 z "},"đ":{"ha":749,"x_min":76,"x_max":692,"o":"m 324 -12 q 135 74 193 -12 q 76 326 76 161 q 135 565 76 469 q 318 661 193 661 q 522 572 433 661 l 532 572 l 526 678 l 526 756 l 333 756 l 333 821 l 526 821 l 526 929 l 610 929 l 610 821 l 692 821 l 692 756 l 610 756 l 610 0 l 539 0 l 533 92 l 522 92 q 324 -12 444 -12 m 344 61 q 455 94 408 61 q 526 175 501 126 l 526 503 q 439 567 482 547 q 343 588 396 588 q 207 520 250 588 q 164 322 164 453 q 203 124 164 188 q 344 61 243 61 z "},"ḍ":{"ha":722,"x_min":76,"x_max":610,"o":"m 324 -12 q 135 74 193 -12 q 76 326 76 161 q 135 565 76 469 q 318 661 193 661 q 522 572 433 661 l 532 572 l 526 678 l 526 929 l 610 929 l 610 0 l 539 0 l 533 92 l 522 92 q 324 -12 444 -12 m 344 61 q 455 94 408 61 q 526 175 501 126 l 526 503 q 439 567 482 547 q 343 588 396 588 q 207 520 250 588 q 164 322 164 453 q 203 124 164 188 q 344 61 243 61 m 381 -221 q 330 -203 349 -221 q 311 -156 311 -186 q 329 -105 311 -122 q 381 -87 347 -87 q 432 -105 414 -87 q 450 -156 450 -122 q 432 -203 450 -186 q 381 -221 414 -221 z "},"ḏ":{"ha":722,"x_min":76,"x_max":610,"o":"m 324 -12 q 135 74 193 -12 q 76 326 76 161 q 135 565 76 469 q 318 661 193 661 q 522 572 433 661 l 532 572 l 526 678 l 526 929 l 610 929 l 610 0 l 539 0 l 533 92 l 522 92 q 324 -12 444 -12 m 344 61 q 455 94 408 61 q 526 175 501 126 l 526 503 q 439 567 482 547 q 343 588 396 588 q 207 520 250 588 q 164 322 164 453 q 203 124 164 188 q 344 61 243 61 m 115 -99 l 539 -99 l 539 -178 l 115 -178 l 115 -99 z "},"e":{"ha":660,"x_min":76,"x_max":593,"o":"m 357 -12 q 76 321 76 -12 q 148 571 76 481 q 357 661 219 661 q 532 593 471 661 q 593 404 593 525 q 590 360 593 390 l 519 289 l 158 292 q 210 119 161 176 q 361 61 260 61 q 465 74 422 61 q 554 115 508 88 l 582 50 q 480 3 531 19 q 357 -12 429 -12 m 507 360 q 515 426 515 393 q 474 544 515 501 q 351 588 432 588 q 206 531 249 588 q 157 354 163 474 l 507 360 z "},"é":{"ha":660,"x_min":76,"x_max":593,"o":"m 301 779 l 417 976 l 529 965 l 364 768 l 301 779 m 357 -12 q 76 321 76 -12 q 148 571 76 481 q 357 661 219 661 q 532 593 471 661 q 593 404 593 525 q 590 360 593 390 l 519 289 l 158 292 q 210 119 161 176 q 361 61 260 61 q 465 74 422 61 q 554 115 508 88 l 582 50 q 480 3 531 19 q 357 -12 429 -12 m 507 360 q 515 426 515 393 q 474 544 515 501 q 351 588 432 588 q 206 531 249 588 q 157 354 163 474 l 507 360 z "},"ĕ":{"ha":660,"x_min":76,"x_max":593,"o":"m 347 771 q 224 810 267 771 q 169 918 181 849 l 251 931 q 277 862 257 885 q 347 839 297 839 q 416 862 396 839 q 442 931 436 885 l 524 918 q 469 810 513 850 q 347 771 426 771 m 357 -12 q 76 321 76 -12 q 148 571 76 481 q 357 661 219 661 q 532 593 471 661 q 593 404 593 525 q 590 360 593 390 l 519 289 l 158 292 q 210 119 161 176 q 361 61 260 61 q 465 74 422 61 q 554 115 508 88 l 582 50 q 480 3 531 19 q 357 -12 429 -12 m 507 360 q 515 426 515 393 q 474 544 515 501 q 351 588 432 588 q 206 531 249 588 q 157 354 163 474 l 507 360 z "},"ě":{"ha":660,"x_min":76,"x_max":593,"o":"m 165 961 l 219 974 l 343 850 l 351 850 l 472 974 l 529 961 l 389 778 l 306 778 l 165 961 m 357 -12 q 76 321 76 -12 q 148 571 76 481 q 357 661 219 661 q 532 593 471 661 q 593 404 593 525 q 590 360 593 390 l 519 289 l 158 292 q 210 119 161 176 q 361 61 260 61 q 465 74 422 61 q 554 115 508 88 l 582 50 q 480 3 531 19 q 357 -12 429 -12 m 507 360 q 515 426 515 393 q 474 544 515 501 q 351 588 432 588 q 206 531 249 588 q 157 354 163 474 l 507 360 z "},"ê":{"ha":660,"x_min":76,"x_max":593,"o":"m 169 779 l 310 964 l 393 964 l 533 779 l 476 768 l 356 890 l 347 890 l 224 768 l 169 779 m 357 -12 q 76 321 76 -12 q 148 571 76 481 q 357 661 219 661 q 532 593 471 661 q 593 404 593 525 q 590 360 593 390 l 519 289 l 158 292 q 210 119 161 176 q 361 61 260 61 q 465 74 422 61 q 554 115 508 88 l 582 50 q 480 3 531 19 q 357 -12 429 -12 m 507 360 q 515 426 515 393 q 474 544 515 501 q 351 588 432 588 q 206 531 249 588 q 157 354 163 474 l 507 360 z "},"ế":{"ha":701,"x_min":76,"x_max":689,"o":"m 524 901 l 608 1049 l 689 1033 l 576 890 l 524 901 m 168 778 l 308 961 l 392 961 l 532 778 l 475 765 l 354 889 l 346 889 l 222 765 l 168 778 m 357 -12 q 76 321 76 -12 q 148 571 76 481 q 357 661 219 661 q 532 593 471 661 q 593 404 593 525 q 590 360 593 390 l 519 289 l 158 292 q 210 119 161 176 q 361 61 260 61 q 465 74 422 61 q 554 115 508 88 l 582 50 q 480 3 531 19 q 357 -12 429 -12 m 507 360 q 515 426 515 393 q 474 544 515 501 q 351 588 432 588 q 206 531 249 588 q 157 354 163 474 l 507 360 z "},"ệ":{"ha":660,"x_min":76,"x_max":593,"o":"m 168 778 l 308 963 l 392 963 l 532 778 l 475 767 l 354 889 l 346 889 l 222 767 l 168 778 m 357 -12 q 76 321 76 -12 q 148 571 76 481 q 357 661 219 661 q 532 593 471 661 q 593 404 593 525 q 590 360 593 390 l 519 289 l 158 292 q 210 119 161 176 q 361 61 260 61 q 465 74 422 61 q 554 115 508 88 l 582 50 q 480 3 531 19 q 357 -12 429 -12 m 507 360 q 515 426 515 393 q 474 544 515 501 q 351 588 432 588 q 206 531 249 588 q 157 354 163 474 l 507 360 m 353 -228 q 302 -210 321 -228 q 283 -162 283 -193 q 301 -112 283 -129 q 353 -94 319 -94 q 404 -112 386 -94 q 422 -162 422 -129 q 404 -210 422 -193 q 353 -228 386 -228 z "},"ề":{"ha":660,"x_min":11,"x_max":592,"o":"m 11 1033 l 93 1047 l 176 901 l 124 889 l 11 1033 m 169 776 l 310 960 l 392 960 l 533 776 l 479 765 l 354 888 l 347 888 l 225 765 l 169 776 m 356 -12 q 75 321 75 -12 q 147 571 75 481 q 356 661 218 661 q 531 593 469 661 q 592 404 592 525 q 589 360 592 390 l 518 289 l 157 292 q 209 119 160 176 q 360 61 258 61 q 464 74 421 61 q 553 115 507 88 l 581 50 q 478 3 529 19 q 356 -12 428 -12 m 506 360 q 514 426 514 393 q 472 544 514 501 q 350 588 431 588 q 204 531 247 588 q 156 354 161 474 l 506 360 z "},"ể":{"ha":694,"x_min":76,"x_max":643,"o":"m 504 968 l 504 1003 q 569 1010 551 1003 q 588 1035 588 1017 q 578 1058 588 1051 q 547 1065 569 1065 q 492 1054 521 1065 l 479 1099 q 556 1114 521 1114 q 643 1036 643 1114 q 557 963 643 965 l 557 914 l 517 914 l 504 968 m 157 776 l 297 960 l 381 960 l 521 776 l 464 764 l 343 888 l 335 888 l 211 764 l 157 776 m 357 -12 q 76 321 76 -12 q 148 571 76 481 q 357 661 219 661 q 532 593 471 661 q 593 404 593 525 q 590 360 593 390 l 519 289 l 158 292 q 210 119 161 176 q 361 61 260 61 q 465 74 422 61 q 554 115 508 88 l 582 50 q 480 3 531 19 q 357 -12 429 -12 m 507 360 q 515 426 515 393 q 474 544 515 501 q 351 588 432 588 q 206 531 249 588 q 157 354 163 474 l 507 360 z "},"ễ":{"ha":660,"x_min":76,"x_max":593,"o":"m 179 1046 q 271 1143 189 1143 q 351 1115 307 1143 q 400 1097 385 1097 q 456 1149 444 1097 l 501 1133 q 410 1038 492 1038 q 374 1044 390 1038 q 338 1063 358 1050 q 308 1078 321 1074 q 282 1083 296 1083 q 226 1032 235 1083 l 179 1046 m 160 776 l 300 960 l 383 960 l 524 776 l 467 765 l 346 888 l 338 888 l 214 765 l 160 776 m 357 -12 q 76 321 76 -12 q 148 571 76 481 q 357 661 219 661 q 532 593 471 661 q 593 404 593 525 q 590 360 593 390 l 519 289 l 158 292 q 210 119 161 176 q 361 61 260 61 q 465 74 422 61 q 554 115 508 88 l 582 50 q 480 3 531 19 q 357 -12 429 -12 m 507 360 q 515 426 515 393 q 474 544 515 501 q 351 588 432 588 q 206 531 249 588 q 157 354 163 474 l 507 360 z "},"ë":{"ha":660,"x_min":76,"x_max":593,"o":"m 239 771 q 199 784 214 771 q 185 821 185 797 q 199 859 185 846 q 239 872 214 872 q 278 859 264 872 q 292 821 292 846 q 278 784 292 797 q 239 771 264 771 m 458 771 q 417 784 432 771 q 403 821 403 797 q 417 859 403 846 q 458 872 432 872 q 497 859 483 872 q 511 821 511 846 q 497 784 511 797 q 458 771 483 771 m 357 -12 q 76 321 76 -12 q 148 571 76 481 q 357 661 219 661 q 532 593 471 661 q 593 404 593 525 q 590 360 593 390 l 519 289 l 158 292 q 210 119 161 176 q 361 61 260 61 q 465 74 422 61 q 554 115 508 88 l 582 50 q 480 3 531 19 q 357 -12 429 -12 m 507 360 q 515 426 515 393 q 474 544 515 501 q 351 588 432 588 q 206 531 249 588 q 157 354 163 474 l 507 360 z "},"ė":{"ha":660,"x_min":76,"x_max":593,"o":"m 347 771 q 297 788 315 771 q 278 836 278 806 q 297 886 278 868 q 347 904 315 904 q 399 886 381 904 q 417 836 417 868 q 399 788 417 804 q 347 771 381 771 m 357 -12 q 76 321 76 -12 q 148 571 76 481 q 357 661 219 661 q 532 593 471 661 q 593 404 593 525 q 590 360 593 390 l 519 289 l 158 292 q 210 119 161 176 q 361 61 260 61 q 465 74 422 61 q 554 115 508 88 l 582 50 q 480 3 531 19 q 357 -12 429 -12 m 507 360 q 515 426 515 393 q 474 544 515 501 q 351 588 432 588 q 206 531 249 588 q 157 354 163 474 l 507 360 z "},"ẹ":{"ha":660,"x_min":76,"x_max":593,"o":"m 357 -12 q 76 321 76 -12 q 148 571 76 481 q 357 661 219 661 q 532 593 471 661 q 593 404 593 525 q 590 360 593 390 l 519 289 l 158 292 q 210 119 161 176 q 361 61 260 61 q 465 74 422 61 q 554 115 508 88 l 582 50 q 480 3 531 19 q 357 -12 429 -12 m 507 360 q 515 426 515 393 q 474 544 515 501 q 351 588 432 588 q 206 531 249 588 q 157 354 163 474 l 507 360 m 346 -221 q 295 -203 314 -221 q 276 -156 276 -186 q 294 -105 276 -122 q 346 -87 313 -87 q 397 -105 379 -87 q 415 -156 415 -122 q 397 -203 415 -186 q 346 -221 379 -221 z "},"è":{"ha":660,"x_min":76,"x_max":593,"o":"m 179 965 l 292 976 l 407 779 l 344 768 l 179 965 m 357 -12 q 76 321 76 -12 q 148 571 76 481 q 357 661 219 661 q 532 593 471 661 q 593 404 593 525 q 590 360 593 390 l 519 289 l 158 292 q 210 119 161 176 q 361 61 260 61 q 465 74 422 61 q 554 115 508 88 l 582 50 q 480 3 531 19 q 357 -12 429 -12 m 507 360 q 515 426 515 393 q 474 544 515 501 q 351 588 432 588 q 206 531 249 588 q 157 354 163 474 l 507 360 z "},"ẻ":{"ha":660,"x_min":76,"x_max":593,"o":"m 300 846 l 300 885 q 397 894 371 885 q 424 935 424 903 q 409 971 424 960 q 360 982 394 982 q 285 969 321 982 l 267 1021 q 372 1042 315 1042 q 463 1013 433 1042 q 492 936 492 985 q 364 833 492 838 l 364 778 l 317 778 l 300 846 m 357 -12 q 76 321 76 -12 q 148 571 76 481 q 357 661 219 661 q 532 593 471 661 q 593 404 593 525 q 590 360 593 390 l 519 289 l 158 292 q 210 119 161 176 q 361 61 260 61 q 465 74 422 61 q 554 115 508 88 l 582 50 q 480 3 531 19 q 357 -12 429 -12 m 507 360 q 515 426 515 393 q 474 544 515 501 q 351 588 432 588 q 206 531 249 588 q 157 354 163 474 l 507 360 z "},"ē":{"ha":660,"x_min":76,"x_max":593,"o":"m 151 851 l 547 851 l 547 778 l 151 778 l 151 851 m 357 -12 q 76 321 76 -12 q 148 571 76 481 q 357 661 219 661 q 532 593 471 661 q 593 404 593 525 q 590 360 593 390 l 519 289 l 158 292 q 210 119 161 176 q 361 61 260 61 q 465 74 422 61 q 554 115 508 88 l 582 50 q 480 3 531 19 q 357 -12 429 -12 m 507 360 q 515 426 515 393 q 474 544 515 501 q 351 588 432 588 q 206 531 249 588 q 157 354 163 474 l 507 360 z "},"ę":{"ha":661,"x_min":76,"x_max":617,"o":"m 533 -185 q 440 -156 474 -185 q 407 -76 407 -128 q 428 -7 407 -36 q 357 -12 386 -12 q 76 321 76 -12 q 148 571 76 481 q 357 661 219 661 q 532 593 471 661 q 593 404 593 525 q 590 360 593 390 l 519 289 l 158 292 q 210 119 161 176 q 361 61 260 61 q 465 74 422 61 q 554 115 508 88 l 582 50 l 542 28 q 497 -18 510 6 q 483 -72 483 -42 q 492 -114 483 -96 q 546 -119 514 -119 q 603 -112 571 -119 l 617 -169 q 533 -185 582 -185 m 507 360 q 515 426 515 393 q 474 544 515 501 q 351 588 432 588 q 206 531 249 588 q 157 354 163 474 l 507 360 z "},"ẽ":{"ha":660,"x_min":76,"x_max":593,"o":"m 156 782 q 264 906 164 906 q 303 897 285 906 q 351 869 322 888 q 390 846 376 853 q 419 839 404 839 q 481 908 471 839 l 538 890 q 429 767 529 767 q 386 776 406 767 q 339 804 367 786 q 303 826 318 819 q 274 833 289 833 q 231 815 244 833 q 213 764 217 797 l 156 782 m 357 -12 q 76 321 76 -12 q 148 571 76 481 q 357 661 219 661 q 532 593 471 661 q 593 404 593 525 q 590 360 593 390 l 519 289 l 158 292 q 210 119 161 176 q 361 61 260 61 q 465 74 422 61 q 554 115 508 88 l 582 50 q 480 3 531 19 q 357 -12 429 -12 m 507 360 q 515 426 515 393 q 474 544 515 501 q 351 588 432 588 q 206 531 249 588 q 157 354 163 474 l 507 360 z "},"f":{"ha":457,"x_min":49,"x_max":446,"o":"m 139 579 l 49 579 l 60 650 l 139 650 l 139 769 q 171 860 139 819 q 243 924 203 901 q 329 933 286 933 q 446 907 390 933 l 424 838 q 374 853 396 849 q 324 857 353 857 q 235 844 276 857 q 221 757 221 807 l 221 650 l 376 650 l 365 579 l 221 579 l 221 0 l 139 0 l 139 579 z "},"g":{"ha":700,"x_min":78,"x_max":594,"o":"m 342 -267 q 218 -253 276 -267 q 119 -215 160 -239 l 144 -150 q 235 -181 185 -169 q 335 -192 286 -192 q 438 -183 396 -192 q 514 -156 481 -175 l 514 21 l 518 108 l 508 108 q 307 6 418 6 q 133 91 188 6 q 78 314 78 176 q 134 570 78 479 q 322 661 190 661 q 508 550 443 661 l 517 550 l 524 651 l 594 651 l 594 -78 q 526 -220 594 -174 q 342 -267 458 -267 m 325 78 q 511 179 433 78 l 511 485 q 329 589 433 589 q 199 523 236 589 q 163 322 163 457 q 202 138 163 199 q 325 78 242 78 z "},"ğ":{"ha":700,"x_min":78,"x_max":594,"o":"m 368 771 q 244 810 288 771 q 190 918 201 849 l 272 931 q 298 862 278 885 q 368 839 318 839 q 437 862 417 839 q 463 931 457 885 l 544 918 q 490 810 533 850 q 368 771 447 771 m 342 -267 q 218 -253 276 -267 q 119 -215 160 -239 l 144 -150 q 235 -181 185 -169 q 335 -192 286 -192 q 438 -183 396 -192 q 514 -156 481 -175 l 514 21 l 518 108 l 508 108 q 307 6 418 6 q 133 91 188 6 q 78 314 78 176 q 134 570 78 479 q 322 661 190 661 q 508 550 443 661 l 517 550 l 524 656 l 594 656 l 594 -78 q 526 -220 594 -174 q 342 -267 458 -267 m 325 78 q 511 179 433 78 l 511 485 q 329 589 433 589 q 199 523 236 589 q 163 322 163 457 q 202 138 163 199 q 325 78 242 78 z "},"ǧ":{"ha":700,"x_min":78,"x_max":594,"o":"m 183 961 l 238 974 l 361 850 l 369 850 l 490 974 l 547 961 l 407 778 l 324 778 l 183 961 m 342 -267 q 218 -253 276 -267 q 119 -215 160 -239 l 144 -150 q 235 -181 185 -169 q 335 -192 286 -192 q 438 -183 396 -192 q 514 -156 481 -175 l 514 21 l 518 108 l 508 108 q 307 6 418 6 q 133 91 188 6 q 78 314 78 176 q 134 570 78 479 q 322 661 190 661 q 508 550 443 661 l 517 550 l 524 656 l 594 656 l 594 -78 q 526 -220 594 -174 q 342 -267 458 -267 m 325 78 q 511 179 433 78 l 511 485 q 329 589 433 589 q 199 523 236 589 q 163 322 163 457 q 202 138 163 199 q 325 78 242 78 z "},"ĝ":{"ha":700,"x_min":78,"x_max":594,"o":"m 178 776 l 318 960 l 401 960 l 542 776 l 485 765 l 364 888 l 356 888 l 232 765 l 178 776 m 342 -267 q 218 -253 276 -267 q 119 -215 160 -239 l 144 -150 q 235 -181 185 -169 q 335 -192 286 -192 q 438 -183 396 -192 q 514 -156 481 -175 l 514 21 l 518 108 l 508 108 q 307 6 418 6 q 133 91 188 6 q 78 314 78 176 q 134 570 78 479 q 322 661 190 661 q 508 550 443 661 l 517 550 l 524 656 l 594 656 l 594 -78 q 526 -220 594 -174 q 342 -267 458 -267 m 325 78 q 511 179 433 78 l 511 485 q 329 589 433 589 q 199 523 236 589 q 163 322 163 457 q 202 138 163 199 q 325 78 242 78 z "},"ģ":{"ha":700,"x_min":78,"x_max":594,"o":"m 335 778 q 372 865 360 822 q 383 960 383 908 l 308 960 l 308 1018 q 368 1029 338 1029 q 453 936 453 1029 q 435 848 453 892 q 388 765 418 804 l 335 778 m 342 -267 q 218 -253 276 -267 q 119 -215 160 -239 l 144 -150 q 235 -181 185 -169 q 335 -192 286 -192 q 438 -183 396 -192 q 514 -156 481 -175 l 514 21 l 518 108 l 508 108 q 307 6 418 6 q 133 91 188 6 q 78 314 78 176 q 134 570 78 479 q 322 661 190 661 q 508 550 443 661 l 517 550 l 524 656 l 594 656 l 594 -78 q 526 -220 594 -174 q 342 -267 458 -267 m 325 78 q 511 179 433 78 l 511 485 q 329 589 433 589 q 199 523 236 589 q 163 322 163 457 q 202 138 163 199 q 325 78 242 78 z "},"ġ":{"ha":700,"x_min":78,"x_max":594,"o":"m 365 771 q 315 788 333 771 q 296 836 296 806 q 315 886 296 868 q 365 904 333 904 q 417 886 399 904 q 435 836 435 868 q 417 788 435 804 q 365 771 399 771 m 342 -267 q 218 -253 276 -267 q 119 -215 160 -239 l 144 -150 q 235 -181 185 -169 q 335 -192 286 -192 q 438 -183 396 -192 q 514 -156 481 -175 l 514 21 l 518 108 l 508 108 q 307 6 418 6 q 133 91 188 6 q 78 314 78 176 q 134 570 78 479 q 322 661 190 661 q 508 550 443 661 l 517 550 l 524 656 l 594 656 l 594 -78 q 526 -220 594 -174 q 342 -267 458 -267 m 325 78 q 511 179 433 78 l 511 485 q 329 589 433 589 q 199 523 236 589 q 163 322 163 457 q 202 138 163 199 q 325 78 242 78 z "},"ḡ":{"ha":700,"x_min":78,"x_max":594,"o":"m 158 851 l 554 851 l 554 778 l 158 778 l 158 851 m 342 -267 q 218 -253 276 -267 q 119 -215 160 -239 l 144 -150 q 235 -181 185 -169 q 335 -192 286 -192 q 438 -183 396 -192 q 514 -156 481 -175 l 514 21 l 518 108 l 508 108 q 307 6 418 6 q 133 91 188 6 q 78 314 78 176 q 134 570 78 479 q 322 661 190 661 q 508 550 443 661 l 517 550 l 524 656 l 594 656 l 594 -78 q 526 -220 594 -174 q 342 -267 458 -267 m 325 78 q 511 179 433 78 l 511 485 q 329 589 433 589 q 199 523 236 589 q 163 322 163 457 q 202 138 163 199 q 325 78 242 78 z "},"h":{"ha":718,"x_min":111,"x_max":611,"o":"m 111 929 l 194 929 l 194 664 l 190 553 l 199 553 q 439 661 307 661 q 569 626 526 661 q 611 508 611 590 l 611 0 l 528 0 l 528 569 q 424 585 485 585 q 295 559 354 585 q 194 489 236 533 l 194 0 l 111 0 l 111 929 z "},"ħ":{"ha":718,"x_min":22,"x_max":613,"o":"m 111 756 l 22 756 l 22 821 l 111 821 l 111 929 l 196 929 l 196 821 l 381 821 l 381 756 l 196 756 l 196 664 l 190 553 l 199 553 q 439 661 307 661 q 570 626 528 661 q 613 508 613 590 l 613 0 l 528 0 l 528 569 q 425 585 485 585 q 296 560 354 585 q 196 489 238 535 l 196 0 l 111 0 l 111 756 z "},"ḫ":{"ha":718,"x_min":111,"x_max":611,"o":"m 111 929 l 194 929 l 194 664 l 190 553 l 199 553 q 439 661 307 661 q 569 626 526 661 q 611 508 611 590 l 611 0 l 528 0 l 528 569 q 424 585 485 585 q 295 559 354 585 q 194 489 236 533 l 194 0 l 111 0 l 111 929 m 360 -240 q 236 -201 279 -240 q 182 -93 193 -162 l 264 -81 q 290 -149 269 -126 q 360 -172 310 -172 q 428 -149 408 -172 q 454 -81 449 -126 l 536 -93 q 482 -201 525 -161 q 360 -240 439 -240 z "},"ĥ":{"ha":718,"x_min":111,"x_max":611,"o":"m 206 990 l 346 1174 l 429 1174 l 569 990 l 513 978 l 392 1101 l 383 1101 l 260 978 l 206 990 m 111 929 l 194 929 l 194 664 l 190 553 l 199 553 q 439 661 307 661 q 569 626 526 661 q 611 508 611 590 l 611 0 l 528 0 l 528 569 q 424 585 485 585 q 295 559 354 585 q 194 489 236 533 l 194 0 l 111 0 l 111 929 z "},"ḥ":{"ha":718,"x_min":111,"x_max":611,"o":"m 111 929 l 194 929 l 194 664 l 190 553 l 199 553 q 439 661 307 661 q 569 626 526 661 q 611 508 611 590 l 611 0 l 528 0 l 528 569 q 424 585 485 585 q 295 559 354 585 q 194 489 236 533 l 194 0 l 111 0 l 111 929 m 358 -228 q 308 -210 326 -228 q 289 -162 289 -193 q 307 -112 289 -129 q 358 -94 325 -94 q 410 -112 392 -94 q 428 -162 428 -129 q 410 -210 428 -193 q 358 -228 392 -228 z "},"i":{"ha":308,"x_min":111,"x_max":199,"o":"m 111 899 l 199 899 l 199 769 l 111 769 l 111 899 m 113 649 l 194 649 l 194 0 l 113 0 l 113 649 z "},"ı":{"ha":311,"x_min":114,"x_max":196,"o":"m 114 649 l 196 649 l 196 0 l 114 0 l 114 649 z "},"í":{"ha":332,"x_min":114,"x_max":346,"o":"m 118 781 l 233 978 l 346 967 l 181 769 l 118 781 m 114 649 l 196 649 l 196 0 l 114 0 l 114 649 z "},"ĭ":{"ha":332,"x_min":-11,"x_max":343,"o":"m 165 771 q 43 810 86 771 q -11 918 0 850 l 71 931 q 97 862 76 885 q 165 839 117 839 q 235 862 215 839 q 261 931 256 885 l 343 918 q 289 810 332 849 q 165 771 246 771 m 125 649 l 207 649 l 207 0 l 125 0 l 125 649 z "},"ǐ":{"ha":332,"x_min":-26,"x_max":338,"o":"m -26 961 l 28 974 l 153 850 l 160 850 l 282 974 l 338 961 l 197 778 l 114 778 l -26 961 m 114 651 l 196 651 l 196 0 l 114 0 l 114 651 z "},"î":{"ha":332,"x_min":-17,"x_max":347,"o":"m -17 776 l 125 960 l 207 960 l 347 776 l 292 765 l 169 888 l 163 888 l 38 765 l -17 776 m 125 649 l 207 649 l 207 0 l 125 0 l 125 649 z "},"ï":{"ha":332,"x_min":3,"x_max":329,"o":"m 57 771 q 17 784 32 771 q 3 821 3 797 q 17 859 3 846 q 57 872 32 872 q 96 859 82 872 q 110 821 110 846 q 96 784 110 797 q 57 771 82 771 m 276 771 q 235 784 250 771 q 221 821 221 797 q 235 859 221 846 q 276 872 250 872 q 315 859 301 872 q 329 821 329 846 q 315 784 329 797 q 276 771 301 771 m 125 649 l 207 649 l 207 0 l 125 0 l 125 649 z "},"ị":{"ha":336,"x_min":99,"x_max":238,"o":"m 125 899 l 213 899 l 213 769 l 125 769 l 125 899 m 128 647 l 210 647 l 210 0 l 128 0 l 128 647 m 168 -228 q 117 -210 136 -228 q 99 -162 99 -193 q 117 -112 99 -129 q 168 -94 135 -94 q 219 -112 201 -94 q 238 -162 238 -129 q 219 -210 238 -193 q 168 -228 201 -228 z "},"ì":{"ha":332,"x_min":-35,"x_max":196,"o":"m -35 967 l 76 978 l 193 781 l 129 769 l -35 967 m 114 649 l 196 649 l 196 0 l 114 0 l 114 649 z "},"ỉ":{"ha":344,"x_min":85,"x_max":310,"o":"m 118 846 l 118 885 q 215 894 189 885 q 242 935 242 903 q 227 971 242 960 q 178 982 213 982 q 103 969 139 982 l 85 1021 q 190 1042 133 1042 q 281 1013 251 1042 q 310 936 310 985 q 182 833 310 838 l 182 778 l 135 778 l 118 846 m 117 651 l 199 651 l 199 0 l 117 0 l 117 651 z "},"ĳ":{"ha":654,"x_min":111,"x_max":547,"o":"m 111 899 l 199 899 l 199 769 l 111 769 l 111 899 m 460 899 l 547 899 l 547 769 l 460 769 l 460 899 m 113 647 l 194 647 l 194 0 l 113 0 l 113 647 m 371 -265 q 249 -247 304 -265 l 268 -175 q 372 -190 324 -190 q 450 -178 415 -190 q 461 -85 461 -146 l 461 647 l 544 647 l 544 -90 q 499 -219 544 -174 q 371 -265 453 -265 z "},"ī":{"ha":332,"x_min":-32,"x_max":364,"o":"m -32 851 l 364 851 l 364 778 l -32 778 l -32 851 m 125 649 l 207 649 l 207 0 l 125 0 l 125 649 z "},"į":{"ha":308,"x_min":29,"x_max":239,"o":"m 199 769 l 111 769 l 111 899 l 199 899 l 199 769 m 239 -215 q 156 -231 204 -231 q 63 -202 96 -231 q 29 -122 29 -174 q 51 -53 29 -82 q 113 -4 74 -24 l 113 647 l 194 647 l 194 -4 q 124 -51 143 -26 q 106 -118 106 -76 q 114 -160 106 -143 q 168 -165 136 -165 q 225 -158 199 -165 l 239 -215 z "},"ĩ":{"ha":332,"x_min":-25,"x_max":357,"o":"m -25 736 q 83 860 -17 860 q 123 851 104 860 q 171 824 142 842 q 210 800 196 807 q 239 793 224 793 q 282 811 268 793 q 300 863 296 829 l 357 844 q 249 721 349 721 q 205 731 225 721 q 160 758 185 740 q 124 781 139 774 q 93 788 108 788 q 32 718 42 788 l -25 736 m 125 649 l 207 649 l 207 0 l 125 0 l 125 649 z "},"j":{"ha":365,"x_min":-39,"x_max":260,"o":"m 172 899 l 260 899 l 260 769 l 172 769 l 172 899 m 83 -265 q -39 -247 17 -265 l -19 -175 q 85 -190 36 -190 q 164 -178 126 -190 q 175 -85 175 -146 l 175 650 l 257 650 l 257 -90 q 212 -220 257 -175 q 83 -265 167 -265 z "},"ȷ":{"ha":363,"x_min":-39,"x_max":257,"o":"m 83 -265 q -39 -247 17 -265 l -19 -175 q 85 -190 36 -190 q 164 -178 126 -190 q 175 -85 175 -146 l 175 647 l 257 647 l 257 -90 q 212 -220 257 -175 q 83 -265 167 -265 z "},"ĵ":{"ha":457,"x_min":43,"x_max":472,"o":"m 108 778 l 249 961 l 332 961 l 472 778 l 415 765 l 294 889 l 286 889 l 163 765 l 108 778 m 165 -265 q 43 -247 99 -265 l 63 -175 q 167 -190 118 -190 q 244 -178 210 -190 q 256 -85 256 -146 l 256 647 l 339 647 l 339 -90 q 293 -219 339 -174 q 165 -265 247 -265 z "},"k":{"ha":683,"x_min":106,"x_max":642,"o":"m 581 -10 q 533 1 551 -10 q 504 38 515 13 l 440 182 q 375 277 411 247 q 268 307 339 307 l 188 307 l 188 0 l 106 0 l 106 929 l 188 929 l 188 375 l 261 375 q 368 405 332 375 q 428 490 404 435 l 503 658 l 583 628 l 510 463 q 460 388 488 415 q 385 346 433 361 l 385 338 q 463 297 436 322 q 513 221 489 271 l 588 53 l 642 43 l 642 -1 q 581 -10 611 -10 z "},"ķ":{"ha":683,"x_min":106,"x_max":642,"o":"m 581 -10 q 533 1 551 -10 q 504 38 515 13 l 440 182 q 375 277 411 247 q 268 307 339 307 l 188 307 l 188 0 l 106 0 l 106 897 l 188 897 l 188 375 l 261 375 q 368 405 332 375 q 428 490 404 435 l 503 658 l 583 628 l 510 463 q 460 388 488 415 q 385 346 433 361 l 385 338 q 463 297 436 322 q 513 221 489 271 l 588 53 l 642 43 l 642 -1 q 581 -10 611 -10 m 306 -331 q 342 -244 329 -286 q 354 -150 354 -201 l 279 -150 l 279 -90 q 339 -81 304 -81 q 424 -172 424 -81 q 406 -260 424 -217 q 358 -343 389 -304 l 306 -331 z "},"ĸ":{"ha":689,"x_min":106,"x_max":631,"o":"m 576 -7 q 506 38 526 -7 l 443 179 q 378 276 414 246 q 268 307 343 307 l 188 307 l 188 0 l 106 0 l 106 663 l 188 663 l 188 375 l 261 375 q 371 403 335 375 q 431 486 407 432 l 504 661 l 589 639 l 513 461 q 466 390 493 417 q 389 346 439 363 l 389 338 q 467 296 440 321 q 514 221 493 271 l 586 57 l 631 44 l 631 3 q 576 -7 597 -7 z "},"l":{"ha":372,"x_min":103,"x_max":338,"o":"m 207 -10 q 138 39 174 3 q 103 106 103 75 l 103 929 l 185 929 l 185 119 q 187 85 185 97 q 196 61 189 74 l 215 61 l 301 103 l 338 57 q 281 13 315 31 q 207 -10 246 -6 z "},"ĺ":{"ha":379,"x_min":103,"x_max":339,"o":"m 103 981 l 218 1178 l 331 1167 l 165 969 l 103 981 m 208 -10 q 140 39 175 3 q 104 106 104 75 l 104 929 l 186 929 l 186 119 q 188 85 186 97 q 197 61 190 74 l 217 61 l 303 103 l 339 57 q 282 13 317 31 q 208 -10 247 -6 z "},"ľ":{"ha":446,"x_min":103,"x_max":426,"o":"m 207 -10 q 138 39 174 3 q 103 106 103 75 l 103 929 l 185 929 l 185 119 q 187 85 185 97 q 196 61 189 74 l 215 61 l 301 103 l 338 57 q 281 13 315 31 q 207 -10 246 -6 m 308 661 q 345 749 333 706 q 357 843 357 792 l 282 843 l 282 901 q 342 913 311 913 q 426 821 426 913 q 409 732 426 776 q 361 650 392 688 l 308 661 z "},"ļ":{"ha":372,"x_min":103,"x_max":338,"o":"m 207 -10 q 138 39 174 3 q 103 106 103 75 l 103 929 l 185 929 l 185 119 q 187 85 185 97 q 196 61 189 74 l 215 61 l 301 103 l 338 57 q 281 13 315 31 q 207 -10 246 -6 m 165 -331 q 201 -244 189 -286 q 214 -150 214 -201 l 139 -150 l 139 -90 q 199 -81 164 -81 q 283 -172 283 -81 q 266 -260 283 -217 q 218 -343 249 -304 l 165 -331 z "},"ŀ":{"ha":453,"x_min":103,"x_max":439,"o":"m 207 -10 q 138 39 174 3 q 103 106 103 75 l 103 929 l 185 929 l 185 119 q 187 85 185 97 q 196 61 189 74 l 215 61 l 301 103 l 338 57 q 281 13 315 31 q 207 -10 246 -6 m 371 331 q 321 349 340 331 q 301 397 301 367 q 322 445 301 426 q 371 464 342 464 q 419 445 400 464 q 439 397 439 426 q 420 349 439 367 q 371 331 401 331 z "},"ḷ":{"ha":372,"x_min":103,"x_max":338,"o":"m 207 -10 q 138 39 174 3 q 103 106 103 75 l 103 929 l 185 929 l 185 119 q 187 85 185 97 q 196 61 189 74 l 215 61 l 301 103 l 338 57 q 281 13 315 31 q 207 -10 246 -6 m 199 -221 q 148 -203 167 -221 q 129 -156 129 -186 q 147 -105 129 -122 q 199 -87 165 -87 q 250 -105 232 -87 q 268 -156 268 -122 q 250 -203 268 -186 q 199 -221 232 -221 z "},"ḹ":{"ha":389,"x_min":-37,"x_max":358,"o":"m -37 1054 l 358 1054 l 358 981 l -37 981 l -37 1054 m 207 -10 q 138 39 174 3 q 103 106 103 75 l 103 929 l 185 929 l 185 119 q 187 85 185 97 q 196 61 189 74 l 215 61 l 301 103 l 338 57 q 281 13 315 31 q 207 -10 246 -6 m 204 -221 q 153 -203 172 -221 q 135 -156 135 -186 q 153 -105 135 -122 q 204 -87 171 -87 q 256 -105 238 -87 q 274 -156 274 -122 q 256 -203 274 -186 q 204 -221 238 -221 z "},"ḻ":{"ha":461,"x_min":101,"x_max":525,"o":"m 218 -10 q 149 39 185 3 q 114 106 114 75 l 114 929 l 196 929 l 196 119 q 198 85 196 97 q 207 61 200 74 l 226 61 l 313 103 l 349 57 q 292 13 326 31 q 218 -10 257 -6 m 101 -99 l 525 -99 l 525 -178 l 101 -178 l 101 -99 z "},"ł":{"ha":392,"x_min":-47,"x_max":367,"o":"m 219 -8 q 152 41 188 4 q 117 107 117 78 l 117 411 l -26 365 l -47 431 l 117 483 l 117 910 l 199 910 l 199 510 l 346 557 l 367 492 l 199 438 l 199 121 q 201 88 199 99 q 208 64 203 76 l 229 64 l 315 104 l 351 58 q 293 14 328 32 q 219 -8 258 -4 z "},"m":{"ha":1114,"x_min":111,"x_max":1008,"o":"m 111 650 l 181 650 l 189 556 l 199 556 q 429 661 307 661 q 545 637 506 661 q 594 556 585 613 l 604 556 q 836 661 710 661 q 967 628 925 661 q 1008 508 1008 594 l 1008 0 l 924 0 l 924 569 q 822 585 878 585 q 702 562 760 585 q 601 496 644 539 l 601 0 l 518 0 l 518 569 q 417 585 472 585 q 295 561 353 585 q 194 494 238 538 l 194 0 l 111 0 l 111 650 z "},"ṃ":{"ha":1114,"x_min":111,"x_max":1008,"o":"m 111 650 l 181 650 l 189 556 l 199 556 q 429 661 307 661 q 545 637 506 661 q 594 556 585 613 l 604 556 q 836 661 710 661 q 967 628 925 661 q 1008 508 1008 594 l 1008 0 l 924 0 l 924 569 q 822 585 878 585 q 702 562 760 585 q 601 496 644 539 l 601 0 l 518 0 l 518 569 q 417 585 472 585 q 295 561 353 585 q 194 494 238 538 l 194 0 l 111 0 l 111 650 m 560 -221 q 509 -203 528 -221 q 490 -156 490 -186 q 508 -105 490 -122 q 560 -87 526 -87 q 611 -105 593 -87 q 629 -156 629 -122 q 611 -203 629 -186 q 560 -221 593 -221 z "},"n":{"ha":717,"x_min":111,"x_max":611,"o":"m 111 650 l 182 650 l 189 553 l 199 553 q 439 661 307 661 q 569 626 526 661 q 611 508 611 590 l 611 0 l 528 0 l 528 569 q 424 585 485 585 q 295 559 354 585 q 194 489 236 533 l 194 0 l 111 0 l 111 650 z "},"ń":{"ha":717,"x_min":111,"x_max":611,"o":"m 331 776 l 446 975 l 558 963 l 393 767 l 331 776 m 111 650 l 182 650 l 189 553 l 199 553 q 439 661 307 661 q 569 626 526 661 q 611 508 611 590 l 611 0 l 528 0 l 528 569 q 424 585 485 585 q 295 559 354 585 q 194 489 236 533 l 194 0 l 111 0 l 111 650 z "},"ŉ":{"ha":850,"x_min":17,"x_max":744,"o":"m 43 467 q 80 554 68 511 q 92 649 92 597 l 17 649 l 17 708 q 76 718 49 718 q 161 626 161 718 q 144 538 161 582 q 96 456 126 493 l 43 467 m 244 650 l 315 650 l 322 553 l 332 553 q 572 661 440 661 q 702 626 660 661 q 744 508 744 590 l 744 0 l 661 0 l 661 569 q 557 585 618 585 q 428 559 488 585 q 328 489 369 533 l 328 0 l 244 0 l 244 650 z "},"ň":{"ha":718,"x_min":111,"x_max":611,"o":"m 197 961 l 251 974 l 375 850 l 383 850 l 504 974 l 561 961 l 421 778 l 338 778 l 197 961 m 111 650 l 182 650 l 189 553 l 199 553 q 439 661 307 661 q 569 626 526 661 q 611 508 611 590 l 611 0 l 528 0 l 528 569 q 424 585 485 585 q 295 559 354 585 q 194 489 236 533 l 194 0 l 111 0 l 111 650 z "},"ņ":{"ha":717,"x_min":111,"x_max":611,"o":"m 111 650 l 182 650 l 189 553 l 199 553 q 439 661 307 661 q 569 626 526 661 q 611 508 611 590 l 611 0 l 528 0 l 528 569 q 424 585 485 585 q 295 559 354 585 q 194 489 236 533 l 194 0 l 111 0 l 111 650 m 339 -331 q 375 -244 363 -286 q 388 -150 388 -201 l 313 -150 l 313 -90 q 372 -81 338 -81 q 457 -172 457 -81 q 440 -260 457 -217 q 392 -343 422 -304 l 339 -331 z "},"ṅ":{"ha":717,"x_min":111,"x_max":611,"o":"m 382 771 q 331 788 350 771 q 313 836 313 806 q 331 886 313 868 q 382 904 350 904 q 433 886 415 904 q 451 836 451 868 q 433 788 451 804 q 382 771 415 771 m 111 650 l 182 650 l 189 553 l 199 553 q 439 661 307 661 q 569 626 526 661 q 611 508 611 590 l 611 0 l 528 0 l 528 569 q 424 585 485 585 q 295 559 354 585 q 194 489 236 533 l 194 0 l 111 0 l 111 650 z "},"ṇ":{"ha":717,"x_min":111,"x_max":611,"o":"m 111 650 l 182 650 l 189 553 l 199 553 q 439 661 307 661 q 569 626 526 661 q 611 508 611 590 l 611 0 l 528 0 l 528 569 q 424 585 485 585 q 295 559 354 585 q 194 489 236 533 l 194 0 l 111 0 l 111 650 m 375 -221 q 324 -203 343 -221 q 306 -156 306 -186 q 324 -105 306 -122 q 375 -87 342 -87 q 426 -105 408 -87 q 444 -156 444 -122 q 426 -203 444 -186 q 375 -221 408 -221 z "},"ŋ":{"ha":717,"x_min":111,"x_max":611,"o":"m 360 -229 q 515 -162 463 -200 q 528 -50 528 -126 l 528 569 q 424 585 485 585 q 295 559 354 585 q 194 489 236 533 l 194 0 l 111 0 l 111 650 l 182 650 l 189 553 l 199 553 q 439 661 307 661 q 569 626 526 661 q 611 508 611 590 l 611 -46 q 563 -207 611 -146 q 400 -314 515 -268 l 360 -229 z "},"ṉ":{"ha":717,"x_min":111,"x_max":611,"o":"m 111 650 l 182 650 l 189 553 l 199 553 q 439 661 307 661 q 569 626 526 661 q 611 508 611 590 l 611 0 l 528 0 l 528 569 q 424 585 485 585 q 295 559 354 585 q 194 489 236 533 l 194 0 l 111 0 l 111 650 m 164 -99 l 588 -99 l 588 -178 l 164 -178 l 164 -99 z "},"ñ":{"ha":717,"x_min":111,"x_max":611,"o":"m 174 786 q 282 910 182 910 q 322 901 303 910 q 369 874 340 892 q 408 850 394 857 q 438 843 422 843 q 499 913 489 843 l 556 894 q 447 771 547 771 q 404 781 424 771 q 357 808 385 790 q 322 831 336 824 q 292 838 307 838 q 249 819 263 838 q 231 768 235 801 l 174 786 m 111 650 l 182 650 l 189 553 l 199 553 q 439 661 307 661 q 569 626 526 661 q 611 508 611 590 l 611 0 l 528 0 l 528 569 q 424 585 485 585 q 295 559 354 585 q 194 489 236 533 l 194 0 l 111 0 l 111 650 z "},"o":{"ha":704,"x_min":76,"x_max":628,"o":"m 336 -12 q 139 74 201 -12 q 76 318 76 161 q 143 574 76 482 q 368 667 210 667 q 565 577 501 667 q 628 329 628 488 q 561 77 628 167 q 336 -12 494 -12 m 360 61 q 501 90 443 61 q 544 313 544 167 q 501 526 544 460 q 344 592 457 592 q 203 563 257 592 q 172 466 183 526 q 160 333 160 406 q 178 177 160 236 q 240 90 196 118 q 360 61 283 61 z "},"ó":{"ha":704,"x_min":76,"x_max":628,"o":"m 313 779 l 428 976 l 540 965 l 375 768 l 313 779 m 336 -12 q 139 74 201 -12 q 76 318 76 161 q 143 574 76 482 q 368 667 210 667 q 565 577 501 667 q 628 329 628 488 q 561 77 628 167 q 336 -12 494 -12 m 360 61 q 501 90 443 61 q 544 313 544 167 q 501 526 544 460 q 344 592 457 592 q 203 563 257 592 q 172 466 183 526 q 160 333 160 406 q 178 177 160 236 q 240 90 196 118 q 360 61 283 61 z "},"ŏ":{"ha":704,"x_min":76,"x_max":628,"o":"m 351 771 q 228 810 271 771 q 174 918 185 849 l 256 931 q 281 862 261 885 q 351 839 301 839 q 420 862 400 839 q 446 931 440 885 l 528 918 q 474 810 517 850 q 351 771 431 771 m 336 -12 q 139 74 201 -12 q 76 318 76 161 q 143 574 76 482 q 368 667 210 667 q 565 577 501 667 q 628 329 628 488 q 561 77 628 167 q 336 -12 494 -12 m 360 61 q 501 90 443 61 q 544 313 544 167 q 501 526 544 460 q 344 592 457 592 q 203 563 257 592 q 172 466 183 526 q 160 333 160 406 q 178 177 160 236 q 240 90 196 118 q 360 61 283 61 z "},"ǒ":{"ha":704,"x_min":76,"x_max":628,"o":"m 168 961 l 222 974 l 346 850 l 354 850 l 475 974 l 532 961 l 392 778 l 308 778 l 168 961 m 336 -12 q 139 74 201 -12 q 76 318 76 161 q 143 574 76 482 q 368 667 210 667 q 565 577 501 667 q 628 329 628 488 q 561 77 628 167 q 336 -12 494 -12 m 360 61 q 501 90 443 61 q 544 313 544 167 q 501 526 544 460 q 344 592 457 592 q 203 563 257 592 q 172 466 183 526 q 160 333 160 406 q 178 177 160 236 q 240 90 196 118 q 360 61 283 61 z "},"ô":{"ha":704,"x_min":76,"x_max":628,"o":"m 169 776 l 310 960 l 393 960 l 533 776 l 476 765 l 356 888 l 347 888 l 224 765 l 169 776 m 336 -12 q 139 74 201 -12 q 76 318 76 161 q 143 574 76 482 q 368 667 210 667 q 565 577 501 667 q 628 329 628 488 q 561 77 628 167 q 336 -12 494 -12 m 360 61 q 501 90 443 61 q 544 313 544 167 q 501 526 544 460 q 344 592 457 592 q 203 563 257 592 q 172 466 183 526 q 160 333 160 406 q 178 177 160 236 q 240 90 196 118 q 360 61 283 61 z "},"ố":{"ha":739,"x_min":76,"x_max":697,"o":"m 532 900 l 617 1047 l 697 1032 l 585 889 l 532 900 m 175 776 l 315 960 l 399 960 l 539 776 l 482 764 l 361 888 l 353 888 l 229 764 l 175 776 m 336 -12 q 139 74 201 -12 q 76 318 76 161 q 143 574 76 482 q 368 667 210 667 q 565 577 501 667 q 628 329 628 488 q 561 77 628 167 q 336 -12 494 -12 m 360 61 q 501 90 443 61 q 544 313 544 167 q 501 526 544 460 q 344 592 457 592 q 203 563 257 592 q 172 466 183 526 q 160 333 160 406 q 178 177 160 236 q 240 90 196 118 q 360 61 283 61 z "},"ộ":{"ha":704,"x_min":76,"x_max":628,"o":"m 169 776 l 310 960 l 393 960 l 533 776 l 476 765 l 356 888 l 347 888 l 224 765 l 169 776 m 336 -12 q 139 74 201 -12 q 76 318 76 161 q 143 574 76 482 q 368 667 210 667 q 565 577 501 667 q 628 329 628 488 q 561 77 628 167 q 336 -12 494 -12 m 360 61 q 501 90 443 61 q 544 313 544 167 q 501 526 544 460 q 344 592 457 592 q 203 563 257 592 q 172 466 183 526 q 160 333 160 406 q 178 177 160 236 q 240 90 196 118 q 360 61 283 61 m 351 -228 q 301 -210 319 -228 q 282 -162 282 -193 q 300 -112 282 -129 q 351 -94 318 -94 q 403 -112 385 -94 q 421 -162 421 -129 q 403 -210 421 -193 q 351 -228 385 -228 z "},"ồ":{"ha":726,"x_min":42,"x_max":650,"o":"m 42 1033 l 124 1049 l 207 901 l 154 890 l 42 1033 m 200 778 l 340 961 l 422 961 l 564 778 l 510 765 l 385 889 l 378 889 l 256 765 l 200 778 m 358 -12 q 161 74 224 -12 q 99 318 99 161 q 165 574 99 482 q 390 667 232 667 q 587 577 524 667 q 650 329 650 488 q 583 77 650 167 q 358 -12 517 -12 m 382 61 q 524 90 465 61 q 567 313 567 167 q 523 526 567 460 q 367 592 479 592 q 225 563 279 592 q 194 466 206 526 q 182 333 182 406 q 200 177 182 236 q 262 90 218 118 q 382 61 306 61 z "},"ổ":{"ha":717,"x_min":78,"x_max":657,"o":"m 518 969 l 518 1003 q 583 1010 565 1003 q 601 1036 601 1018 q 592 1058 601 1051 q 561 1065 583 1065 q 506 1056 531 1065 l 493 1100 q 569 1114 531 1114 q 657 1036 657 1114 q 571 963 657 965 l 571 915 l 531 915 l 518 969 m 171 776 l 311 960 l 394 960 l 535 776 l 478 765 l 357 888 l 349 888 l 225 765 l 171 776 m 338 -12 q 140 74 203 -12 q 78 318 78 161 q 144 574 78 482 q 369 667 211 667 q 566 577 503 667 q 629 329 629 488 q 563 77 629 167 q 338 -12 496 -12 m 361 61 q 503 90 444 61 q 546 313 546 167 q 502 526 546 460 q 346 592 458 592 q 204 563 258 592 q 173 466 185 526 q 161 333 161 406 q 179 177 161 236 q 241 90 197 118 q 361 61 285 61 z "},"ỗ":{"ha":704,"x_min":76,"x_max":628,"o":"m 192 1046 q 283 1143 201 1143 q 364 1115 319 1143 q 413 1097 397 1097 q 468 1149 457 1097 l 514 1133 q 422 1038 504 1038 q 387 1044 403 1038 q 350 1063 371 1050 q 321 1078 333 1074 q 294 1083 308 1083 q 239 1032 247 1083 l 192 1046 m 172 776 l 313 960 l 396 960 l 536 776 l 479 765 l 358 888 l 350 888 l 226 765 l 172 776 m 336 -12 q 139 74 201 -12 q 76 318 76 161 q 143 574 76 482 q 368 667 210 667 q 565 577 501 667 q 628 329 628 488 q 561 77 628 167 q 336 -12 494 -12 m 360 61 q 501 90 443 61 q 544 313 544 167 q 501 526 544 460 q 344 592 457 592 q 203 563 257 592 q 172 466 183 526 q 160 333 160 406 q 178 177 160 236 q 240 90 196 118 q 360 61 283 61 z "},"ö":{"ha":704,"x_min":76,"x_max":628,"o":"m 242 771 q 202 784 217 771 q 188 821 188 797 q 202 859 188 846 q 242 872 217 872 q 281 859 267 872 q 294 821 294 846 q 281 784 294 797 q 242 771 267 771 m 461 771 q 420 784 435 771 q 406 821 406 797 q 420 859 406 846 q 461 872 435 872 q 500 859 486 872 q 514 821 514 846 q 500 784 514 797 q 461 771 486 771 m 336 -12 q 139 74 201 -12 q 76 318 76 161 q 143 574 76 482 q 368 667 210 667 q 565 577 501 667 q 628 329 628 488 q 561 77 628 167 q 336 -12 494 -12 m 360 61 q 501 90 443 61 q 544 313 544 167 q 501 526 544 460 q 344 592 457 592 q 203 563 257 592 q 172 466 183 526 q 160 333 160 406 q 178 177 160 236 q 240 90 196 118 q 360 61 283 61 z "},"ọ":{"ha":704,"x_min":76,"x_max":628,"o":"m 336 -12 q 139 74 201 -12 q 76 318 76 161 q 143 574 76 482 q 368 667 210 667 q 565 577 501 667 q 628 329 628 488 q 561 77 628 167 q 336 -12 494 -12 m 360 61 q 501 90 443 61 q 544 313 544 167 q 501 526 544 460 q 344 592 457 592 q 203 563 257 592 q 172 466 183 526 q 160 333 160 406 q 178 177 160 236 q 240 90 196 118 q 360 61 283 61 m 351 -228 q 301 -210 319 -228 q 282 -162 282 -193 q 300 -112 282 -129 q 351 -94 318 -94 q 403 -112 385 -94 q 421 -162 421 -129 q 403 -210 421 -193 q 351 -228 385 -228 z "},"ò":{"ha":704,"x_min":76,"x_max":628,"o":"m 185 967 l 297 978 l 413 781 l 350 769 l 185 967 m 336 -12 q 139 74 201 -12 q 76 318 76 161 q 143 574 76 482 q 368 667 210 667 q 565 577 501 667 q 628 329 628 488 q 561 77 628 167 q 336 -12 494 -12 m 360 61 q 501 90 443 61 q 544 313 544 167 q 501 526 544 460 q 344 592 457 592 q 203 563 257 592 q 172 466 183 526 q 160 333 160 406 q 178 177 160 236 q 240 90 196 118 q 360 61 283 61 z "},"ỏ":{"ha":704,"x_min":76,"x_max":628,"o":"m 313 846 l 313 885 q 410 894 383 885 q 436 935 436 903 q 422 971 436 960 q 372 982 407 982 q 297 969 332 982 l 279 1021 q 385 1042 328 1042 q 475 1013 446 1042 q 504 936 504 985 q 376 833 504 838 l 376 778 l 329 778 l 313 846 m 336 -12 q 139 74 201 -12 q 76 318 76 161 q 143 574 76 482 q 368 667 210 667 q 565 577 501 667 q 628 329 628 488 q 561 77 628 167 q 336 -12 494 -12 m 360 61 q 501 90 443 61 q 544 313 544 167 q 501 526 544 460 q 344 592 457 592 q 203 563 257 592 q 172 466 183 526 q 160 333 160 406 q 178 177 160 236 q 240 90 196 118 q 360 61 283 61 z "},"ơ":{"ha":783,"x_min":78,"x_max":760,"o":"m 338 -10 q 140 76 203 -10 q 78 319 78 163 q 144 575 78 483 q 369 667 211 667 q 593 528 533 667 l 608 528 q 659 622 644 572 q 676 753 674 672 l 760 753 q 726 575 757 643 q 617 458 694 507 q 629 331 629 404 q 563 79 629 168 q 338 -10 496 -10 m 361 64 q 503 93 449 64 q 546 314 546 169 q 502 526 546 461 q 346 592 458 592 q 204 563 258 592 q 173 467 185 526 q 161 335 161 407 q 179 179 161 238 q 240 92 197 121 q 361 64 283 64 z "},"ớ":{"ha":783,"x_min":78,"x_max":760,"o":"m 329 776 l 444 974 l 557 963 l 392 765 l 329 776 m 338 -10 q 140 76 203 -10 q 78 319 78 163 q 144 575 78 483 q 369 667 211 667 q 593 528 533 667 l 608 528 q 659 622 644 572 q 676 753 674 672 l 760 753 q 726 575 757 643 q 617 458 694 507 q 629 331 629 404 q 563 79 629 168 q 338 -10 496 -10 m 361 64 q 503 93 449 64 q 546 314 546 169 q 502 526 546 461 q 346 592 458 592 q 204 563 258 592 q 173 467 185 526 q 161 335 161 407 q 179 179 161 238 q 240 92 197 121 q 361 64 283 64 z "},"ợ":{"ha":783,"x_min":78,"x_max":760,"o":"m 338 -10 q 140 76 203 -10 q 78 319 78 163 q 144 575 78 483 q 369 667 211 667 q 593 528 533 667 l 608 528 q 659 622 644 572 q 676 753 674 672 l 760 753 q 726 575 757 643 q 617 458 694 507 q 629 331 629 404 q 563 79 629 168 q 338 -10 496 -10 m 361 64 q 503 93 449 64 q 546 314 546 169 q 502 526 546 461 q 346 592 458 592 q 204 563 258 592 q 173 467 185 526 q 161 335 161 407 q 179 179 161 238 q 240 92 197 121 q 361 64 283 64 m 360 -228 q 309 -210 328 -228 q 290 -162 290 -193 q 308 -112 290 -129 q 360 -94 326 -94 q 411 -112 393 -94 q 429 -162 429 -129 q 411 -210 429 -193 q 360 -228 393 -228 z "},"ờ":{"ha":783,"x_min":78,"x_max":760,"o":"m 188 964 l 300 975 l 415 778 l 353 767 l 188 964 m 338 -10 q 140 76 203 -10 q 78 319 78 163 q 144 575 78 483 q 369 667 211 667 q 593 528 533 667 l 608 528 q 659 622 644 572 q 676 753 674 672 l 760 753 q 726 575 757 643 q 617 458 694 507 q 629 331 629 404 q 563 79 629 168 q 338 -10 496 -10 m 361 64 q 503 93 449 64 q 546 314 546 169 q 502 526 546 461 q 346 592 458 592 q 204 563 258 592 q 173 467 185 526 q 161 335 161 407 q 179 179 161 238 q 240 92 197 121 q 361 64 283 64 z "},"ở":{"ha":783,"x_min":78,"x_max":760,"o":"m 314 846 l 314 885 q 411 894 385 885 q 438 935 438 903 q 423 971 438 960 q 374 982 408 982 q 299 969 333 982 l 281 1021 q 386 1042 329 1042 q 476 1013 447 1042 q 506 936 506 985 q 378 833 506 838 l 378 778 l 331 778 l 314 846 m 338 -10 q 140 76 203 -10 q 78 319 78 163 q 144 575 78 483 q 369 667 211 667 q 593 528 533 667 l 608 528 q 659 622 644 572 q 676 753 674 672 l 760 753 q 726 575 757 643 q 617 458 694 507 q 629 331 629 404 q 563 79 629 168 q 338 -10 496 -10 m 361 64 q 503 93 449 64 q 546 314 546 169 q 502 526 546 461 q 346 592 458 592 q 204 563 258 592 q 173 467 185 526 q 161 335 161 407 q 179 179 161 238 q 240 92 197 121 q 361 64 283 64 z "},"ỡ":{"ha":783,"x_min":78,"x_max":760,"o":"m 172 782 q 281 906 181 906 q 320 897 301 906 q 368 869 339 888 q 407 846 393 853 q 436 839 421 839 q 497 908 488 839 l 554 890 q 446 767 546 767 q 403 776 422 767 q 356 804 383 786 q 320 826 335 819 q 290 833 306 833 q 247 815 261 833 q 229 764 233 797 l 172 782 m 338 -10 q 140 76 203 -10 q 78 319 78 163 q 144 575 78 483 q 369 667 211 667 q 593 528 533 667 l 608 528 q 659 622 644 572 q 676 753 674 672 l 760 753 q 726 575 757 643 q 617 458 694 507 q 629 331 629 404 q 563 79 629 168 q 338 -10 496 -10 m 361 64 q 503 93 449 64 q 546 314 546 169 q 502 526 546 461 q 346 592 458 592 q 204 563 258 592 q 173 467 185 526 q 161 335 161 407 q 179 179 161 238 q 240 92 197 121 q 361 64 283 64 z "},"ő":{"ha":704,"x_min":76,"x_max":628,"o":"m 196 778 q 233 867 221 824 q 244 960 244 910 l 169 960 l 169 1019 q 228 1029 194 1029 q 311 938 311 1029 q 294 849 311 893 q 247 767 278 804 l 196 778 m 425 778 q 462 867 450 824 q 474 960 474 910 l 399 960 l 399 1019 q 458 1029 424 1029 q 520 1006 500 1029 q 540 938 540 983 q 524 849 540 893 q 476 767 507 804 l 425 778 m 336 -12 q 139 74 201 -12 q 76 318 76 161 q 143 574 76 482 q 368 667 210 667 q 565 577 501 667 q 628 329 628 488 q 561 77 628 167 q 336 -12 494 -12 m 360 61 q 501 90 443 61 q 544 313 544 167 q 501 526 544 460 q 344 592 457 592 q 203 563 257 592 q 172 466 183 526 q 160 333 160 406 q 178 177 160 236 q 240 90 196 118 q 360 61 283 61 z "},"ō":{"ha":704,"x_min":76,"x_max":628,"o":"m 156 851 l 551 851 l 551 778 l 156 778 l 156 851 m 336 -12 q 139 74 201 -12 q 76 318 76 161 q 143 574 76 482 q 368 667 210 667 q 565 577 501 667 q 628 329 628 488 q 561 77 628 167 q 336 -12 494 -12 m 360 61 q 501 90 443 61 q 544 313 544 167 q 501 526 544 460 q 344 592 457 592 q 203 563 257 592 q 172 466 183 526 q 160 333 160 406 q 178 177 160 236 q 240 90 196 118 q 360 61 283 61 z "},"ø":{"ha":707,"x_min":76,"x_max":628,"o":"m 529 615 q 628 329 628 535 q 561 77 628 167 q 336 -12 494 -12 q 247 0 288 -12 l 179 -147 l 106 -128 l 179 33 q 76 318 76 111 q 143 574 76 482 q 368 667 210 667 q 464 651 421 667 l 515 764 l 589 746 l 529 615 m 160 333 q 172 196 160 250 q 215 110 185 142 l 431 579 q 344 592 394 592 q 203 563 257 592 q 172 466 183 526 q 160 333 160 406 m 501 90 q 544 313 544 167 q 533 448 544 393 q 493 536 521 503 l 279 71 q 360 61 313 61 q 501 90 443 61 z "},"ǿ":{"ha":707,"x_min":76,"x_max":628,"o":"m 358 767 l 296 778 l 411 975 l 524 964 l 358 767 m 529 615 q 628 329 628 535 q 561 77 628 167 q 336 -12 494 -12 q 247 0 288 -12 l 179 -147 l 106 -128 l 179 33 q 76 318 76 111 q 143 574 76 482 q 368 667 210 667 q 464 651 421 667 l 515 764 l 589 746 l 529 615 m 160 333 q 172 196 160 250 q 215 110 185 142 l 431 579 q 344 592 394 592 q 203 563 257 592 q 172 466 183 526 q 160 333 160 406 m 501 90 q 544 313 544 167 q 533 448 544 393 q 493 536 521 503 l 279 71 q 360 61 313 61 q 501 90 443 61 z "},"õ":{"ha":704,"x_min":76,"x_max":628,"o":"m 161 786 q 269 910 169 910 q 309 901 290 910 q 357 874 328 892 q 396 850 382 857 q 425 843 410 843 q 486 913 476 843 l 543 894 q 435 771 535 771 q 392 781 411 771 q 344 808 372 790 q 309 831 324 824 q 279 838 294 838 q 236 819 250 838 q 218 768 222 801 l 161 786 m 336 -12 q 139 74 201 -12 q 76 318 76 161 q 143 574 76 482 q 368 667 210 667 q 565 577 501 667 q 628 329 628 488 q 561 77 628 167 q 336 -12 494 -12 m 360 61 q 501 90 443 61 q 544 313 544 167 q 501 526 544 460 q 344 592 457 592 q 203 563 257 592 q 172 466 183 526 q 160 333 160 406 q 178 177 160 236 q 240 90 196 118 q 360 61 283 61 z "},"œ":{"ha":1129,"x_min":76,"x_max":1061,"o":"m 336 -10 q 139 76 201 -10 q 76 319 76 163 q 143 575 76 483 q 368 667 210 667 q 589 532 526 667 l 594 532 q 686 628 628 594 q 826 661 744 661 q 999 593 938 661 q 1061 407 1061 525 q 1058 360 1061 393 l 988 289 l 626 292 q 679 122 631 178 q 829 65 728 65 q 935 79 892 65 q 1022 121 978 93 l 1050 56 q 949 9 1000 25 q 825 -7 899 -7 q 590 115 654 -7 l 581 115 q 336 -10 514 -10 m 360 64 q 501 93 447 64 q 544 308 544 172 q 526 471 544 410 q 465 562 508 532 q 344 592 421 592 q 203 563 257 592 q 172 467 183 526 q 160 335 160 407 q 178 179 160 238 q 239 92 196 121 q 360 64 282 64 m 976 360 q 983 426 983 388 q 942 544 983 501 q 821 588 901 588 q 673 530 717 588 q 626 354 629 472 l 976 360 z "},"p":{"ha":728,"x_min":111,"x_max":651,"o":"m 111 650 l 185 650 l 190 557 l 201 557 q 303 634 250 607 q 419 661 356 661 q 595 576 539 661 q 651 326 651 492 q 593 85 651 178 q 410 -7 535 -7 q 297 17 351 -7 q 200 82 242 40 l 190 82 l 194 -25 l 194 -260 l 111 -260 l 111 650 m 390 67 q 524 133 483 67 q 564 329 564 200 q 526 526 564 465 q 393 588 488 588 q 282 556 333 588 q 196 475 231 524 l 196 154 q 390 67 278 67 z "},"þ":{"ha":676,"x_min":113,"x_max":611,"o":"m 113 936 l 200 936 l 200 589 l 210 589 q 393 647 299 647 q 558 573 506 647 q 611 369 611 499 q 556 165 611 242 q 390 88 501 88 q 210 143 294 88 l 200 143 l 200 -250 l 113 -250 l 113 936 m 365 168 q 488 219 453 168 q 524 369 524 271 q 489 517 524 468 q 365 567 454 567 q 200 521 283 567 l 200 211 q 281 178 242 189 q 365 168 319 168 z "},"q":{"ha":719,"x_min":74,"x_max":603,"o":"m 519 -10 l 525 92 l 515 92 q 427 19 475 46 q 311 -7 379 -7 q 132 81 190 -7 q 74 306 74 168 q 153 571 74 479 q 385 663 232 663 q 603 626 481 663 l 603 -268 l 519 -268 l 519 -10 m 333 67 q 437 93 389 67 q 519 165 485 119 l 519 572 q 383 589 450 589 q 215 524 268 589 q 161 310 161 458 q 203 128 161 189 q 333 67 244 67 z "},"r":{"ha":500,"x_min":111,"x_max":456,"o":"m 111 647 l 179 647 l 186 522 l 199 522 q 288 619 231 583 q 411 656 346 656 q 435 645 421 656 q 456 625 450 635 l 446 560 l 389 560 q 267 528 318 560 q 194 438 217 496 l 194 0 l 111 0 l 111 647 z "},"ŕ":{"ha":506,"x_min":111,"x_max":456,"o":"m 215 778 l 331 975 l 443 964 l 278 767 l 215 778 m 111 647 l 179 647 l 186 522 l 199 522 q 288 619 231 583 q 411 656 346 656 q 435 645 421 656 q 456 625 450 635 l 446 560 l 389 560 q 267 528 318 560 q 194 438 217 496 l 194 0 l 111 0 l 111 647 z "},"ř":{"ha":504,"x_min":100,"x_max":464,"o":"m 100 961 l 154 974 l 278 850 l 286 850 l 407 974 l 464 961 l 324 778 l 240 778 l 100 961 m 111 647 l 179 647 l 186 522 l 199 522 q 288 619 231 583 q 411 656 346 656 q 435 645 421 656 q 456 625 450 635 l 446 560 l 389 560 q 267 528 318 560 q 194 438 217 496 l 194 0 l 111 0 l 111 647 z "},"ŗ":{"ha":507,"x_min":101,"x_max":457,"o":"m 113 647 l 181 647 l 188 522 l 200 522 q 290 619 232 583 q 413 656 347 656 q 437 645 422 656 q 457 625 451 635 l 447 560 l 390 560 q 269 528 319 560 q 196 438 218 496 l 196 0 l 113 0 l 113 647 m 128 -331 q 164 -244 151 -286 q 176 -150 176 -201 l 101 -150 l 101 -90 q 161 -81 126 -81 q 246 -172 246 -81 q 228 -260 246 -217 q 181 -343 211 -304 l 128 -331 z "},"ṛ":{"ha":525,"x_min":103,"x_max":474,"o":"m 129 647 l 197 647 l 204 522 l 217 522 q 306 619 249 583 q 429 656 364 656 q 453 645 439 656 q 474 625 468 635 l 464 560 l 407 560 q 285 528 336 560 q 213 438 235 496 l 213 0 l 129 0 l 129 647 m 172 -221 q 122 -203 140 -221 q 103 -156 103 -186 q 121 -105 103 -122 q 172 -87 139 -87 q 224 -105 206 -87 q 242 -156 242 -122 q 224 -203 242 -186 q 172 -221 206 -221 z "},"ṝ":{"ha":553,"x_min":103,"x_max":529,"o":"m 133 851 l 529 851 l 529 778 l 133 778 l 133 851 m 131 647 l 199 647 l 206 522 l 218 522 q 308 619 250 583 q 431 656 365 656 q 455 645 440 656 q 475 625 469 635 l 465 560 l 408 560 q 287 528 338 560 q 214 438 236 496 l 214 0 l 131 0 l 131 647 m 172 -221 q 122 -203 140 -221 q 103 -156 103 -186 q 121 -105 103 -122 q 172 -87 139 -87 q 224 -105 206 -87 q 242 -156 242 -122 q 224 -203 242 -186 q 172 -221 206 -221 z "},"ṟ":{"ha":525,"x_min":108,"x_max":532,"o":"m 115 647 l 183 647 l 190 522 l 203 522 q 292 619 235 583 q 415 656 350 656 q 440 645 425 656 q 460 625 454 635 l 450 560 l 393 560 q 272 528 322 560 q 199 438 221 496 l 199 0 l 115 0 l 115 647 m 108 -99 l 532 -99 l 532 -178 l 108 -178 l 108 -99 z "},"s":{"ha":582,"x_min":68,"x_max":513,"o":"m 282 -12 q 68 35 161 -12 l 94 103 q 292 58 186 58 q 415 75 364 58 q 432 164 432 115 q 421 226 432 204 q 381 261 410 247 q 294 288 353 275 q 128 353 183 313 q 74 474 74 393 q 131 607 74 553 q 306 661 189 661 q 483 621 410 661 l 483 586 q 467 497 483 543 l 411 497 l 401 586 q 300 593 356 593 q 188 569 221 593 q 154 489 154 544 q 168 431 154 453 q 216 392 182 408 q 314 361 250 376 q 428 324 386 344 q 492 269 471 303 q 513 179 513 235 q 458 43 513 99 q 282 -12 403 -12 z "},"ś":{"ha":582,"x_min":68,"x_max":513,"o":"m 236 776 l 351 975 l 464 963 l 299 767 l 236 776 m 282 -12 q 68 35 161 -12 l 94 103 q 292 58 186 58 q 415 75 364 58 q 432 164 432 115 q 421 226 432 204 q 381 261 410 247 q 294 288 353 275 q 128 353 183 313 q 74 474 74 393 q 131 607 74 553 q 306 661 189 661 q 483 621 410 661 l 483 586 q 467 497 483 543 l 411 497 l 401 586 q 300 593 356 593 q 188 569 221 593 q 154 489 154 544 q 168 431 154 453 q 216 392 182 408 q 314 361 250 376 q 428 324 386 344 q 492 269 471 303 q 513 179 513 235 q 458 43 513 99 q 282 -12 403 -12 z "},"š":{"ha":582,"x_min":68,"x_max":513,"o":"m 104 961 l 158 974 l 282 850 l 290 850 l 411 974 l 468 961 l 328 778 l 244 778 l 104 961 m 282 -12 q 68 35 161 -12 l 94 103 q 292 58 186 58 q 415 75 364 58 q 432 164 432 115 q 421 226 432 204 q 381 261 410 247 q 294 288 353 275 q 128 353 183 313 q 74 474 74 393 q 131 607 74 553 q 306 661 189 661 q 483 621 410 661 l 483 586 q 467 497 483 543 l 411 497 l 401 586 q 300 593 356 593 q 188 569 221 593 q 154 489 154 544 q 168 431 154 453 q 216 392 182 408 q 314 361 250 376 q 428 324 386 344 q 492 269 471 303 q 513 179 513 235 q 458 43 513 99 q 282 -12 403 -12 z "},"ş":{"ha":582,"x_min":68,"x_max":513,"o":"m 294 -300 q 178 -278 229 -300 l 197 -222 q 293 -239 239 -239 q 361 -232 326 -239 q 369 -186 369 -211 q 354 -147 369 -160 q 306 -135 339 -135 q 246 -144 269 -135 l 194 -94 l 263 -11 q 68 35 144 -7 l 94 103 q 292 58 186 58 q 415 75 364 58 q 432 164 432 115 q 421 226 432 204 q 381 261 410 247 q 294 288 353 275 q 128 353 183 313 q 74 474 74 393 q 131 607 74 553 q 306 661 189 661 q 483 621 410 661 l 483 586 q 467 497 483 543 l 411 497 l 401 586 q 300 593 356 593 q 188 569 221 593 q 154 489 154 544 q 168 431 154 453 q 216 392 182 408 q 314 361 250 376 q 428 324 386 344 q 492 269 471 303 q 513 179 513 235 q 469 55 513 108 q 333 -10 426 1 l 275 -89 q 338 -78 301 -78 q 442 -181 442 -78 q 294 -300 442 -300 z "},"ŝ":{"ha":582,"x_min":68,"x_max":513,"o":"m 110 776 l 250 960 l 333 960 l 474 776 l 417 765 l 296 888 l 288 888 l 164 765 l 110 776 m 282 -12 q 68 35 161 -12 l 94 103 q 292 58 186 58 q 415 75 364 58 q 432 164 432 115 q 421 226 432 204 q 381 261 410 247 q 294 288 353 275 q 128 353 183 313 q 74 474 74 393 q 131 607 74 553 q 306 661 189 661 q 483 621 410 661 l 483 586 q 467 497 483 543 l 411 497 l 401 586 q 300 593 356 593 q 188 569 221 593 q 154 489 154 544 q 168 431 154 453 q 216 392 182 408 q 314 361 250 376 q 428 324 386 344 q 492 269 471 303 q 513 179 513 235 q 458 43 513 99 q 282 -12 403 -12 z "},"ș":{"ha":582,"x_min":68,"x_max":513,"o":"m 282 -12 q 68 35 161 -12 l 94 103 q 292 58 186 58 q 415 75 364 58 q 432 164 432 115 q 421 226 432 204 q 381 261 410 247 q 294 288 353 275 q 128 353 183 313 q 74 474 74 393 q 131 607 74 553 q 306 661 189 661 q 483 621 410 661 l 483 586 q 467 497 483 543 l 411 497 l 401 586 q 300 593 356 593 q 188 569 221 593 q 154 489 154 544 q 168 431 154 453 q 216 392 182 408 q 314 361 250 376 q 428 324 386 344 q 492 269 471 303 q 513 179 513 235 q 458 43 513 99 q 282 -12 403 -12 m 260 -331 q 296 -244 283 -286 q 308 -150 308 -201 l 233 -150 l 233 -90 q 293 -81 258 -81 q 378 -172 378 -81 q 360 -260 378 -217 q 313 -343 343 -304 l 260 -331 z "},"ṡ":{"ha":582,"x_min":68,"x_max":513,"o":"m 292 771 q 241 788 260 771 q 222 836 222 806 q 240 887 222 869 q 292 904 258 904 q 343 887 325 904 q 361 836 361 869 q 343 788 361 806 q 292 771 325 771 m 282 -12 q 68 35 161 -12 l 94 103 q 292 58 186 58 q 415 75 364 58 q 432 164 432 115 q 421 226 432 204 q 381 261 410 247 q 294 288 353 275 q 128 353 183 313 q 74 474 74 393 q 131 607 74 553 q 306 661 189 661 q 483 621 410 661 l 483 586 q 467 497 483 543 l 411 497 l 401 586 q 300 593 356 593 q 188 569 221 593 q 154 489 154 544 q 168 431 154 453 q 216 392 182 408 q 314 361 250 376 q 428 324 386 344 q 492 269 471 303 q 513 179 513 235 q 458 43 513 99 q 282 -12 403 -12 z "},"ṣ":{"ha":582,"x_min":68,"x_max":513,"o":"m 282 -12 q 68 35 161 -12 l 94 103 q 292 58 186 58 q 415 75 364 58 q 432 164 432 115 q 421 226 432 204 q 381 261 410 247 q 294 288 353 275 q 128 353 183 313 q 74 474 74 393 q 131 607 74 553 q 306 661 189 661 q 483 621 410 661 l 483 586 q 467 497 483 543 l 411 497 l 401 586 q 300 593 356 593 q 188 569 221 593 q 154 489 154 544 q 168 431 154 453 q 216 392 182 408 q 314 361 250 376 q 428 324 386 344 q 492 269 471 303 q 513 179 513 235 q 458 43 513 99 q 282 -12 403 -12 m 304 -221 q 253 -203 272 -221 q 235 -156 235 -186 q 253 -105 235 -122 q 304 -87 271 -87 q 356 -105 338 -87 q 374 -156 374 -122 q 356 -203 374 -186 q 304 -221 338 -221 z "},"ß":{"ha":751,"x_min":108,"x_max":651,"o":"m 408 -12 q 293 4 350 -12 l 307 79 q 411 65 356 65 q 481 67 453 65 q 532 79 508 69 q 567 243 567 149 q 336 447 567 439 l 336 526 q 471 570 428 526 q 514 692 514 614 q 347 840 514 840 q 194 822 265 840 l 194 0 l 108 0 l 108 714 q 176 869 108 818 q 360 919 243 919 q 535 860 471 919 q 600 697 600 800 q 564 571 600 618 q 449 497 528 524 l 449 489 q 603 402 556 464 q 651 244 651 340 q 591 54 651 121 q 408 -12 531 -12 z "},"ə":{"ha":671,"x_min":75,"x_max":592,"o":"m 311 -7 q 136 61 197 -7 q 75 249 75 129 q 78 293 75 263 l 149 364 l 511 361 q 459 531 508 474 q 308 588 410 588 q 203 574 247 588 q 114 532 160 560 l 86 599 q 188 645 138 629 q 313 661 239 661 q 592 332 592 661 q 520 83 592 172 q 311 -7 449 -7 m 317 65 q 463 123 419 65 q 511 300 506 181 l 161 293 q 153 228 153 260 q 194 109 153 153 q 317 65 236 65 z "},"t":{"ha":508,"x_min":38,"x_max":463,"o":"m 336 -8 q 247 1 285 -8 q 151 131 151 54 l 151 579 l 38 579 l 49 650 l 151 650 l 151 828 l 232 828 l 232 650 l 449 650 l 438 579 l 232 579 l 232 149 q 244 79 232 113 q 322 67 283 67 q 380 74 347 67 q 439 93 413 82 l 463 24 q 403 1 439 11 q 336 -8 367 -8 z "},"ŧ":{"ha":508,"x_min":38,"x_max":463,"o":"m 336 -11 q 247 0 289 -11 q 151 129 151 50 l 151 331 l 44 331 l 44 401 l 151 401 l 151 568 l 38 568 l 49 639 l 151 639 l 151 825 l 232 825 l 232 639 l 449 639 l 438 568 l 232 568 l 232 401 l 386 401 l 386 331 l 232 331 l 232 147 q 235 110 232 125 q 244 78 238 96 q 322 65 283 65 q 380 73 347 65 q 439 92 413 81 l 463 22 q 402 -1 438 10 q 336 -11 367 -11 z "},"ť":{"ha":508,"x_min":38,"x_max":463,"o":"m 51 1147 l 106 1160 l 229 1036 l 238 1036 l 358 1160 l 415 1147 l 275 964 l 192 964 l 51 1147 m 336 -8 q 247 1 285 -8 q 151 131 151 54 l 151 568 l 38 568 l 49 639 l 151 639 l 151 825 l 232 825 l 232 639 l 449 639 l 438 568 l 232 568 l 232 149 q 244 79 232 113 q 322 67 283 67 q 380 74 347 67 q 439 93 413 82 l 463 24 q 403 1 439 11 q 336 -8 367 -8 z "},"ţ":{"ha":508,"x_min":38,"x_max":463,"o":"m 265 -300 q 149 -278 200 -300 l 169 -222 q 264 -239 211 -239 q 333 -232 299 -239 q 340 -186 340 -208 q 325 -147 340 -160 q 276 -135 310 -135 q 217 -144 240 -135 l 167 -94 l 247 3 q 211 24 240 7 q 167 67 182 42 q 151 131 151 93 l 151 568 l 38 568 l 49 639 l 151 639 l 151 825 l 232 825 l 232 639 l 449 639 l 438 568 l 232 568 l 232 149 q 244 79 232 113 q 322 67 283 67 q 380 74 347 67 q 439 93 413 82 l 463 24 q 403 1 439 11 q 336 -8 367 -8 q 306 -7 315 -8 l 246 -89 q 308 -78 272 -78 q 413 -181 413 -78 q 265 -300 413 -300 z "},"ț":{"ha":508,"x_min":38,"x_max":463,"o":"m 336 -8 q 247 1 285 -8 q 151 131 151 54 l 151 568 l 38 568 l 49 639 l 151 639 l 151 825 l 232 825 l 232 639 l 449 639 l 438 568 l 232 568 l 232 149 q 244 79 232 113 q 322 67 283 67 q 380 74 347 67 q 439 93 413 82 l 463 24 q 403 1 439 11 q 336 -8 367 -8 m 251 -331 q 288 -244 275 -286 q 300 -150 300 -201 l 225 -150 l 225 -90 q 285 -81 250 -81 q 369 -172 369 -81 q 352 -260 369 -217 q 304 -343 335 -304 l 251 -331 z "},"ẗ":{"ha":513,"x_min":35,"x_max":461,"o":"m 89 974 q 49 988 64 974 q 35 1025 35 1001 q 49 1063 35 1050 q 89 1076 64 1076 q 128 1063 114 1076 q 142 1025 142 1050 q 128 988 142 1001 q 89 974 114 974 m 308 974 q 267 988 282 974 q 253 1025 253 1001 q 267 1063 253 1050 q 308 1076 282 1076 q 347 1063 333 1076 q 361 1025 361 1050 q 347 988 361 1001 q 308 974 333 974 m 335 -8 q 246 1 283 -8 q 150 131 150 54 l 150 568 l 36 568 l 47 639 l 150 639 l 150 825 l 231 825 l 231 639 l 447 639 l 436 568 l 231 568 l 231 149 q 243 79 231 113 q 321 67 283 67 q 378 74 346 67 q 438 93 411 82 l 461 24 q 401 1 438 11 q 335 -8 365 -8 z "},"ṭ":{"ha":508,"x_min":38,"x_max":463,"o":"m 336 -8 q 247 1 285 -8 q 151 131 151 54 l 151 568 l 38 568 l 49 639 l 151 639 l 151 825 l 232 825 l 232 639 l 449 639 l 438 568 l 232 568 l 232 149 q 244 79 232 113 q 322 67 283 67 q 380 74 347 67 q 439 93 413 82 l 463 24 q 403 1 439 11 q 336 -8 367 -8 m 288 -228 q 237 -210 256 -228 q 218 -162 218 -193 q 236 -112 218 -129 q 288 -94 254 -94 q 339 -112 321 -94 q 357 -162 357 -129 q 339 -210 357 -193 q 288 -228 321 -228 z "},"ṯ":{"ha":521,"x_min":38,"x_max":508,"o":"m 336 -8 q 247 1 285 -8 q 151 131 151 54 l 151 568 l 38 568 l 49 639 l 151 639 l 151 825 l 232 825 l 232 639 l 449 639 l 438 568 l 232 568 l 232 149 q 244 79 232 113 q 322 67 283 67 q 380 74 347 67 q 439 93 413 82 l 463 24 q 403 1 439 11 q 336 -8 367 -8 m 85 -99 l 508 -99 l 508 -178 l 85 -178 l 85 -99 z "},"u":{"ha":710,"x_min":104,"x_max":599,"o":"m 276 -12 q 147 23 189 -12 q 104 139 104 58 l 104 650 l 188 650 l 188 78 q 290 63 238 63 q 417 90 360 63 q 515 163 475 117 l 515 650 l 599 650 l 599 0 l 528 0 l 522 100 l 511 100 q 404 16 460 44 q 276 -12 349 -12 z "},"ú":{"ha":710,"x_min":103,"x_max":597,"o":"m 299 776 l 414 974 l 526 963 l 361 765 l 299 776 m 275 -12 q 145 23 188 -12 q 103 139 103 58 l 103 650 l 186 650 l 186 78 q 289 63 236 63 q 416 90 358 63 q 514 163 474 117 l 514 650 l 597 650 l 597 0 l 526 0 l 521 100 l 510 100 q 403 16 458 44 q 275 -12 347 -12 z "},"ŭ":{"ha":710,"x_min":103,"x_max":597,"o":"m 356 771 q 232 810 275 771 q 178 918 189 849 l 260 931 q 285 862 265 885 q 356 839 306 839 q 424 862 404 839 q 450 931 444 885 l 532 918 q 478 810 521 850 q 356 771 435 771 m 275 -12 q 145 23 188 -12 q 103 139 103 58 l 103 650 l 186 650 l 186 78 q 289 63 236 63 q 416 90 358 63 q 514 163 474 117 l 514 650 l 597 650 l 597 0 l 526 0 l 521 100 l 510 100 q 403 16 458 44 q 275 -12 347 -12 z "},"ǔ":{"ha":710,"x_min":103,"x_max":597,"o":"m 172 961 l 226 974 l 350 850 l 358 850 l 479 974 l 536 961 l 396 778 l 313 778 l 172 961 m 275 -12 q 145 23 188 -12 q 103 139 103 58 l 103 650 l 186 650 l 186 78 q 289 63 236 63 q 416 90 358 63 q 514 163 474 117 l 514 650 l 597 650 l 597 0 l 526 0 l 521 100 l 510 100 q 403 16 458 44 q 275 -12 347 -12 z "},"û":{"ha":710,"x_min":103,"x_max":597,"o":"m 168 778 l 308 961 l 392 961 l 532 778 l 475 765 l 354 889 l 346 889 l 222 765 l 168 778 m 275 -12 q 145 23 188 -12 q 103 139 103 58 l 103 650 l 186 650 l 186 78 q 289 63 236 63 q 416 90 358 63 q 514 163 474 117 l 514 650 l 597 650 l 597 0 l 526 0 l 521 100 l 510 100 q 403 16 458 44 q 275 -12 347 -12 z "},"ü":{"ha":710,"x_min":103,"x_max":597,"o":"m 246 771 q 206 784 221 771 q 192 821 192 797 q 206 859 192 846 q 246 872 221 872 q 285 859 271 872 q 299 821 299 846 q 285 784 299 797 q 246 771 271 771 m 465 771 q 424 784 439 771 q 410 821 410 797 q 424 859 410 846 q 465 872 439 872 q 504 859 490 872 q 518 821 518 846 q 504 784 518 797 q 465 771 490 771 m 275 -12 q 145 23 188 -12 q 103 139 103 58 l 103 650 l 186 650 l 186 78 q 289 63 236 63 q 416 90 358 63 q 514 163 474 117 l 514 650 l 597 650 l 597 0 l 526 0 l 521 100 l 510 100 q 403 16 458 44 q 275 -12 347 -12 z "},"ǘ":{"ha":710,"x_min":103,"x_max":597,"o":"m 321 979 l 424 1157 l 532 1143 l 383 969 l 321 979 m 246 771 q 206 784 221 771 q 192 821 192 797 q 206 859 192 846 q 246 872 221 872 q 285 859 271 872 q 299 821 299 846 q 285 784 299 797 q 246 771 271 771 m 465 771 q 424 784 439 771 q 410 821 410 797 q 424 859 410 846 q 465 872 439 872 q 504 859 490 872 q 518 821 518 846 q 504 784 518 797 q 465 771 490 771 m 275 -12 q 145 23 188 -12 q 103 139 103 58 l 103 650 l 186 650 l 186 78 q 289 63 236 63 q 416 90 358 63 q 514 163 474 117 l 514 650 l 597 650 l 597 0 l 526 0 l 521 100 l 510 100 q 403 16 458 44 q 275 -12 347 -12 z "},"ǚ":{"ha":710,"x_min":103,"x_max":597,"o":"m 181 1135 l 235 1147 l 351 1031 l 360 1031 l 475 1147 l 531 1135 l 397 960 l 314 960 l 181 1135 m 244 771 q 205 784 219 771 q 190 821 190 797 q 205 859 190 846 q 244 872 219 872 q 283 859 269 872 q 297 821 297 846 q 283 784 297 797 q 244 771 269 771 m 464 771 q 423 784 438 771 q 408 821 408 797 q 423 859 408 846 q 464 872 438 872 q 503 859 489 872 q 517 821 517 846 q 503 784 517 797 q 464 771 489 771 m 275 -12 q 145 23 188 -12 q 103 139 103 58 l 103 650 l 186 650 l 186 78 q 289 63 236 63 q 416 90 358 63 q 514 163 474 117 l 514 650 l 597 650 l 597 0 l 526 0 l 521 100 l 510 100 q 403 16 458 44 q 275 -12 347 -12 z "},"ǜ":{"ha":710,"x_min":103,"x_max":597,"o":"m 182 1143 l 289 1156 l 393 979 l 329 968 l 182 1143 m 243 771 q 205 784 219 771 q 190 821 190 797 q 204 859 190 846 q 243 872 218 872 q 283 859 269 872 q 297 821 297 846 q 283 784 297 797 q 243 771 269 771 m 464 771 q 424 784 439 771 q 410 821 410 797 q 424 859 410 846 q 464 872 439 872 q 503 859 489 872 q 517 821 517 846 q 503 784 517 797 q 464 771 489 771 m 275 -12 q 145 23 188 -12 q 103 139 103 58 l 103 650 l 186 650 l 186 78 q 289 63 236 63 q 416 90 358 63 q 514 163 474 117 l 514 650 l 597 650 l 597 0 l 526 0 l 521 100 l 510 100 q 403 16 458 44 q 275 -12 347 -12 z "},"ǖ":{"ha":710,"x_min":103,"x_max":597,"o":"m 156 1035 l 551 1035 l 551 963 l 156 963 l 156 1035 m 244 771 q 205 784 219 771 q 190 821 190 797 q 205 859 190 846 q 244 872 219 872 q 283 859 269 872 q 297 821 297 846 q 283 784 297 797 q 244 771 269 771 m 464 771 q 423 784 438 771 q 408 821 408 797 q 423 859 408 846 q 464 872 438 872 q 503 859 489 872 q 517 821 517 846 q 503 784 517 797 q 464 771 489 771 m 275 -12 q 145 23 188 -12 q 103 139 103 58 l 103 650 l 186 650 l 186 78 q 289 63 236 63 q 416 90 358 63 q 514 163 474 117 l 514 650 l 597 650 l 597 0 l 526 0 l 521 100 l 510 100 q 403 16 458 44 q 275 -12 347 -12 z "},"ụ":{"ha":710,"x_min":103,"x_max":597,"o":"m 275 -12 q 145 23 188 -12 q 103 139 103 58 l 103 650 l 186 650 l 186 78 q 289 63 236 63 q 416 90 358 63 q 514 163 474 117 l 514 650 l 597 650 l 597 0 l 526 0 l 521 100 l 510 100 q 403 16 458 44 q 275 -12 347 -12 m 356 -228 q 305 -210 324 -228 q 286 -162 286 -193 q 304 -112 286 -129 q 356 -94 322 -94 q 407 -112 389 -94 q 425 -162 425 -129 q 407 -210 425 -193 q 356 -228 389 -228 z "},"ù":{"ha":710,"x_min":103,"x_max":597,"o":"m 181 965 l 293 976 l 408 779 l 346 768 l 181 965 m 275 -12 q 145 23 188 -12 q 103 139 103 58 l 103 650 l 186 650 l 186 78 q 289 63 236 63 q 416 90 358 63 q 514 163 474 117 l 514 650 l 597 650 l 597 0 l 526 0 l 521 100 l 510 100 q 403 16 458 44 q 275 -12 347 -12 z "},"ủ":{"ha":710,"x_min":103,"x_max":597,"o":"m 310 846 l 310 885 q 407 894 381 885 q 433 935 433 903 q 419 971 433 960 q 369 982 404 982 q 294 969 331 982 l 276 1021 q 382 1042 325 1042 q 472 1013 443 1042 q 501 936 501 985 q 374 833 501 838 l 374 778 l 326 778 l 310 846 m 275 -12 q 145 23 188 -12 q 103 139 103 58 l 103 650 l 186 650 l 186 78 q 289 63 236 63 q 416 90 358 63 q 514 163 474 117 l 514 650 l 597 650 l 597 0 l 526 0 l 521 100 l 510 100 q 403 16 458 44 q 275 -12 347 -12 z "},"ư":{"ha":849,"x_min":103,"x_max":829,"o":"m 275 -8 q 145 26 188 -8 q 103 143 103 61 l 103 650 l 186 650 l 186 82 q 289 67 236 67 q 415 92 357 67 q 514 163 474 118 l 514 650 l 597 650 l 597 525 l 610 525 q 713 606 681 557 q 746 753 744 654 l 829 753 q 774 564 829 633 q 597 451 719 494 l 597 0 l 526 0 l 521 100 l 510 100 q 401 19 457 46 q 275 -8 344 -8 z "},"ứ":{"ha":849,"x_min":103,"x_max":829,"o":"m 304 776 l 419 975 l 532 963 l 367 767 l 304 776 m 275 -8 q 145 26 188 -8 q 103 143 103 61 l 103 650 l 186 650 l 186 82 q 289 67 236 67 q 415 92 357 67 q 514 163 474 118 l 514 650 l 597 650 l 597 525 l 610 525 q 713 606 681 557 q 746 753 744 654 l 829 753 q 774 564 829 633 q 597 451 719 494 l 597 0 l 526 0 l 521 100 l 510 100 q 401 19 457 46 q 275 -8 344 -8 z "},"ự":{"ha":849,"x_min":103,"x_max":829,"o":"m 275 -8 q 145 26 188 -8 q 103 143 103 61 l 103 650 l 186 650 l 186 82 q 289 67 236 67 q 415 92 357 67 q 514 163 474 118 l 514 650 l 597 650 l 597 525 l 610 525 q 713 606 681 557 q 746 753 744 654 l 829 753 q 774 564 829 633 q 597 451 719 494 l 597 0 l 526 0 l 521 100 l 510 100 q 401 19 457 46 q 275 -8 344 -8 m 349 -228 q 298 -210 317 -228 q 279 -162 279 -193 q 297 -112 279 -129 q 349 -94 315 -94 q 400 -112 382 -94 q 418 -162 418 -129 q 400 -210 418 -193 q 349 -228 382 -228 z "},"ừ":{"ha":849,"x_min":103,"x_max":829,"o":"m 178 964 l 290 975 l 406 778 l 343 767 l 178 964 m 275 -8 q 145 26 188 -8 q 103 143 103 61 l 103 650 l 186 650 l 186 82 q 289 67 236 67 q 415 92 357 67 q 514 163 474 118 l 514 650 l 597 650 l 597 525 l 610 525 q 713 606 681 557 q 746 753 744 654 l 829 753 q 774 564 829 633 q 597 451 719 494 l 597 0 l 526 0 l 521 100 l 510 100 q 401 19 457 46 q 275 -8 344 -8 z "},"ử":{"ha":849,"x_min":103,"x_max":829,"o":"m 310 846 l 310 885 q 407 894 381 885 q 433 935 433 903 q 419 971 433 960 q 369 982 404 982 q 294 969 331 982 l 276 1021 q 382 1042 325 1042 q 472 1013 443 1042 q 501 936 501 985 q 374 833 501 838 l 374 778 l 326 778 l 310 846 m 275 -8 q 145 26 188 -8 q 103 143 103 61 l 103 650 l 186 650 l 186 82 q 289 67 236 67 q 415 92 357 67 q 514 163 474 118 l 514 650 l 597 650 l 597 525 l 610 525 q 713 606 681 557 q 746 753 744 654 l 829 753 q 774 564 829 633 q 597 451 719 494 l 597 0 l 526 0 l 521 100 l 510 100 q 401 19 457 46 q 275 -8 344 -8 z "},"ữ":{"ha":849,"x_min":103,"x_max":829,"o":"m 158 782 q 267 906 167 906 q 306 897 288 906 q 354 869 325 888 q 393 846 379 853 q 422 839 407 839 q 483 908 474 839 l 540 890 q 432 767 532 767 q 389 776 408 767 q 342 804 369 786 q 306 826 321 819 q 276 833 292 833 q 233 815 247 833 q 215 764 219 797 l 158 782 m 275 -8 q 145 26 188 -8 q 103 143 103 61 l 103 650 l 186 650 l 186 82 q 289 67 236 67 q 415 92 357 67 q 514 163 474 118 l 514 650 l 597 650 l 597 525 l 610 525 q 713 606 681 557 q 746 753 744 654 l 829 753 q 774 564 829 633 q 597 451 719 494 l 597 0 l 526 0 l 521 100 l 510 100 q 401 19 457 46 q 275 -8 344 -8 z "},"ű":{"ha":710,"x_min":103,"x_max":597,"o":"m 196 776 q 233 865 221 822 q 244 958 244 908 l 169 958 l 169 1018 q 228 1028 194 1028 q 311 936 311 1028 q 294 847 311 892 q 247 765 278 803 l 196 776 m 425 776 q 462 865 450 822 q 474 958 474 908 l 399 958 l 399 1018 q 458 1028 424 1028 q 520 1005 500 1028 q 540 936 540 982 q 524 847 540 892 q 476 765 507 803 l 425 776 m 275 -12 q 145 23 188 -12 q 103 139 103 58 l 103 650 l 186 650 l 186 78 q 289 63 236 63 q 416 90 358 63 q 514 163 474 117 l 514 650 l 597 650 l 597 0 l 526 0 l 521 100 l 510 100 q 403 16 458 44 q 275 -12 347 -12 z "},"ū":{"ha":710,"x_min":103,"x_max":597,"o":"m 157 851 l 553 851 l 553 778 l 157 778 l 157 851 m 275 -12 q 145 23 188 -12 q 103 139 103 58 l 103 650 l 186 650 l 186 78 q 289 63 236 63 q 416 90 358 63 q 514 163 474 117 l 514 650 l 597 650 l 597 0 l 526 0 l 521 100 l 510 100 q 403 16 458 44 q 275 -12 347 -12 z "},"ų":{"ha":710,"x_min":103,"x_max":624,"o":"m 624 -215 q 540 -231 589 -231 q 447 -202 481 -231 q 414 -122 414 -174 q 442 -42 414 -74 q 525 14 471 -10 l 521 100 l 510 100 q 403 16 458 44 q 275 -12 347 -12 q 145 23 188 -12 q 103 139 103 58 l 103 650 l 186 650 l 186 78 q 289 63 236 63 q 416 90 358 63 q 514 163 474 117 l 514 650 l 597 650 l 597 0 l 578 0 q 509 -54 528 -28 q 490 -118 490 -81 q 499 -160 490 -143 q 553 -165 521 -165 q 610 -158 583 -165 l 624 -215 z "},"ů":{"ha":710,"x_min":103,"x_max":597,"o":"m 343 767 q 239 797 276 767 q 201 886 201 828 q 245 978 201 940 q 364 1017 289 1017 q 469 985 432 1017 q 507 893 507 953 q 463 803 507 840 q 343 767 418 767 m 347 821 q 435 831 406 821 q 444 892 444 867 q 423 944 444 925 q 361 963 401 963 q 274 953 304 963 q 264 889 264 924 q 285 839 264 857 q 347 821 307 821 m 275 -12 q 145 23 188 -12 q 103 139 103 58 l 103 650 l 186 650 l 186 78 q 289 63 236 63 q 416 90 358 63 q 514 163 474 117 l 514 650 l 597 650 l 597 0 l 526 0 l 521 100 l 510 100 q 403 16 458 44 q 275 -12 347 -12 z "},"ũ":{"ha":710,"x_min":103,"x_max":597,"o":"m 164 786 q 272 910 172 910 q 312 901 293 910 q 360 874 331 892 q 399 850 385 857 q 428 843 413 843 q 489 913 479 843 l 546 894 q 438 771 538 771 q 394 781 414 771 q 347 808 375 790 q 312 831 326 824 q 282 838 297 838 q 239 819 253 838 q 221 768 225 801 l 164 786 m 275 -12 q 145 23 188 -12 q 103 139 103 58 l 103 650 l 186 650 l 186 78 q 289 63 236 63 q 416 90 358 63 q 514 163 474 117 l 514 650 l 597 650 l 597 0 l 526 0 l 521 100 l 510 100 q 403 16 458 44 q 275 -12 347 -12 z "},"v":{"ha":651,"x_min":44,"x_max":606,"o":"m 272 0 q 44 646 154 275 l 129 654 q 319 79 231 296 l 332 79 q 524 654 425 307 l 606 646 q 375 0 499 293 l 272 0 z "},"w":{"ha":979,"x_min":56,"x_max":933,"o":"m 246 0 q 56 646 138 303 l 138 654 q 292 83 229 271 l 303 83 q 456 518 396 318 q 429 638 450 540 l 504 646 q 667 79 574 342 l 679 79 q 853 657 751 271 l 933 647 q 826 284 871 429 q 726 0 781 139 l 621 0 q 490 394 540 217 l 483 394 q 367 67 456 311 l 342 0 l 246 0 z "},"ẃ":{"ha":979,"x_min":56,"x_max":933,"o":"m 446 776 l 561 975 l 674 963 l 508 767 l 446 776 m 246 0 q 56 646 138 303 l 138 654 q 292 83 229 271 l 303 83 q 456 518 396 318 q 429 638 450 540 l 504 646 q 667 79 574 342 l 679 79 q 853 657 751 271 l 933 647 q 826 284 871 429 q 726 0 781 139 l 621 0 q 490 394 540 217 l 483 394 q 367 67 456 311 l 342 0 l 246 0 z "},"ŵ":{"ha":979,"x_min":56,"x_max":933,"o":"m 304 776 l 444 960 l 528 960 l 668 776 l 611 765 l 490 888 l 482 888 l 358 765 l 304 776 m 246 0 q 56 646 138 303 l 138 654 q 292 83 229 271 l 303 83 q 456 518 396 318 q 429 638 450 540 l 504 646 q 667 79 574 342 l 679 79 q 853 657 751 271 l 933 647 q 826 284 871 429 q 726 0 781 139 l 621 0 q 490 394 540 217 l 483 394 q 367 67 456 311 l 342 0 l 246 0 z "},"ẅ":{"ha":979,"x_min":56,"x_max":933,"o":"m 376 771 q 337 784 351 771 q 322 821 322 797 q 337 859 322 846 q 376 872 351 872 q 415 859 401 872 q 429 821 429 846 q 415 784 429 797 q 376 771 401 771 m 596 771 q 555 784 569 771 q 540 821 540 797 q 555 859 540 846 q 596 872 569 872 q 635 859 621 872 q 649 821 649 846 q 635 784 649 797 q 596 771 621 771 m 246 0 q 56 646 138 303 l 138 654 q 292 83 229 271 l 303 83 q 456 518 396 318 q 429 638 450 540 l 504 646 q 667 79 574 342 l 679 79 q 853 657 751 271 l 933 647 q 826 284 871 429 q 726 0 781 139 l 621 0 q 490 394 540 217 l 483 394 q 367 67 456 311 l 342 0 l 246 0 z "},"ẁ":{"ha":979,"x_min":56,"x_max":933,"o":"m 317 963 l 429 975 l 544 776 l 482 767 l 317 963 m 246 0 q 56 646 138 303 l 138 654 q 292 83 229 271 l 303 83 q 456 518 396 318 q 429 638 450 540 l 504 646 q 667 79 574 342 l 679 79 q 853 657 751 271 l 933 647 q 826 284 871 429 q 726 0 781 139 l 621 0 q 490 394 540 217 l 483 394 q 367 67 456 311 l 342 0 l 246 0 z "},"x":{"ha":665,"x_min":47,"x_max":615,"o":"m 47 7 q 251 324 129 153 q 51 640 135 490 l 138 656 q 314 361 226 488 l 349 361 q 533 656 458 510 l 615 642 q 411 329 533 494 q 610 7 521 169 l 526 -10 q 349 290 464 113 l 314 290 q 129 -10 192 111 l 47 7 z "},"y":{"ha":678,"x_min":50,"x_max":619,"o":"m 194 -262 q 81 -239 128 -262 l 81 -204 q 93 -122 81 -160 l 154 -122 l 154 -187 q 213 -192 179 -192 q 274 -186 235 -192 q 356 31 304 -112 l 263 31 q 142 348 190 207 q 50 647 93 489 l 133 656 q 311 104 210 367 l 381 104 q 535 656 468 367 l 619 647 q 497 212 564 422 q 364 -158 431 1 q 296 -236 342 -210 q 194 -262 250 -262 z "},"ý":{"ha":678,"x_min":50,"x_max":619,"o":"m 299 779 l 414 976 l 526 965 l 361 768 l 299 779 m 194 -262 q 81 -239 128 -262 l 81 -204 q 93 -122 81 -160 l 154 -122 l 154 -187 q 213 -192 179 -192 q 274 -186 235 -192 q 356 31 304 -112 l 263 31 q 142 348 190 207 q 50 647 93 489 l 133 656 q 311 104 210 367 l 381 104 q 535 656 468 367 l 619 647 q 497 212 564 422 q 364 -158 431 1 q 296 -236 342 -210 q 194 -262 250 -262 z "},"ŷ":{"ha":678,"x_min":50,"x_max":619,"o":"m 163 776 l 303 960 l 386 960 l 526 776 l 469 765 l 349 888 l 340 888 l 217 765 l 163 776 m 194 -262 q 81 -239 128 -262 l 81 -204 q 93 -122 81 -160 l 154 -122 l 154 -187 q 213 -192 179 -192 q 274 -186 235 -192 q 356 31 304 -112 l 263 31 q 142 348 190 207 q 50 647 93 489 l 133 656 q 311 104 210 367 l 381 104 q 535 656 468 367 l 619 647 q 497 212 564 422 q 364 -158 431 1 q 296 -236 342 -210 q 194 -262 250 -262 z "},"ÿ":{"ha":678,"x_min":50,"x_max":619,"o":"m 232 771 q 192 784 207 771 q 178 821 178 797 q 192 859 178 846 q 232 872 207 872 q 271 859 257 872 q 285 821 285 846 q 271 784 285 797 q 232 771 257 771 m 451 771 q 410 784 425 771 q 396 821 396 797 q 410 859 396 846 q 451 872 425 872 q 490 859 476 872 q 504 821 504 846 q 490 784 504 797 q 451 771 476 771 m 194 -262 q 81 -239 128 -262 l 81 -204 q 93 -122 81 -160 l 154 -122 l 154 -187 q 213 -192 179 -192 q 274 -186 235 -192 q 356 31 304 -112 l 263 31 q 142 348 190 207 q 50 647 93 489 l 133 656 q 311 104 210 367 l 381 104 q 535 656 468 367 l 619 647 q 497 212 564 422 q 364 -158 431 1 q 296 -236 342 -210 q 194 -262 250 -262 z "},"ẏ":{"ha":678,"x_min":50,"x_max":619,"o":"m 344 774 q 294 791 313 774 q 275 839 275 808 q 294 889 275 871 q 344 907 313 907 q 396 889 378 907 q 414 839 414 871 q 396 790 414 807 q 344 774 378 774 m 194 -262 q 81 -239 128 -262 l 81 -204 q 93 -122 81 -160 l 154 -122 l 154 -187 q 213 -192 179 -192 q 274 -186 235 -192 q 356 31 304 -112 l 263 31 q 142 348 190 207 q 50 647 93 489 l 133 656 q 311 104 210 367 l 381 104 q 535 656 468 367 l 619 647 q 497 212 564 422 q 364 -158 431 1 q 296 -236 342 -210 q 194 -262 250 -262 z "},"ỵ":{"ha":678,"x_min":50,"x_max":619,"o":"m 194 -262 q 81 -239 128 -262 l 81 -204 q 93 -122 81 -160 l 154 -122 l 154 -187 q 213 -192 179 -192 q 274 -186 235 -192 q 356 31 304 -112 l 263 31 q 142 348 190 207 q 50 647 93 489 l 133 656 q 311 104 210 367 l 381 104 q 535 656 468 367 l 619 647 q 497 212 564 422 q 364 -158 431 1 q 296 -236 342 -210 q 194 -262 250 -262 m 328 -443 q 277 -426 296 -443 q 258 -379 258 -410 q 276 -328 258 -346 q 328 -311 294 -311 q 379 -328 361 -311 q 397 -379 397 -346 q 379 -426 397 -410 q 328 -443 361 -443 z "},"ỳ":{"ha":678,"x_min":50,"x_max":619,"o":"m 171 963 l 283 974 l 399 776 l 336 765 l 171 963 m 194 -262 q 81 -239 128 -262 l 81 -204 q 93 -122 81 -160 l 154 -122 l 154 -187 q 213 -192 179 -192 q 274 -186 235 -192 q 356 31 304 -112 l 263 31 q 142 348 190 207 q 50 647 93 489 l 133 656 q 311 104 210 367 l 381 104 q 535 656 468 367 l 619 647 q 497 212 564 422 q 364 -158 431 1 q 296 -236 342 -210 q 194 -262 250 -262 z "},"ỷ":{"ha":678,"x_min":50,"x_max":619,"o":"m 293 846 l 293 885 q 390 894 364 885 q 417 935 417 903 q 402 971 417 960 q 353 982 388 982 q 278 969 314 982 l 260 1021 q 365 1042 308 1042 q 456 1013 426 1042 q 485 936 485 985 q 357 833 485 838 l 357 778 l 310 778 l 293 846 m 194 -262 q 81 -239 128 -262 l 81 -204 q 93 -122 81 -160 l 154 -122 l 154 -187 q 213 -192 179 -192 q 274 -186 235 -192 q 356 31 304 -112 l 263 31 q 142 348 190 207 q 50 647 93 489 l 133 656 q 311 104 210 367 l 381 104 q 535 656 468 367 l 619 647 q 497 212 564 422 q 364 -158 431 1 q 296 -236 342 -210 q 194 -262 250 -262 z "},"ỹ":{"ha":678,"x_min":50,"x_max":619,"o":"m 150 763 q 258 886 158 886 q 298 877 279 886 q 346 850 317 868 q 385 826 371 833 q 414 819 399 819 q 475 889 465 819 l 532 871 q 424 747 524 747 q 381 757 400 747 q 333 785 361 767 q 298 807 313 800 q 268 814 283 814 q 225 796 239 814 q 207 744 211 778 l 150 763 m 194 -262 q 81 -239 128 -262 l 81 -204 q 93 -122 81 -160 l 154 -122 l 154 -187 q 213 -192 179 -192 q 274 -186 235 -192 q 356 31 304 -112 l 263 31 q 142 348 190 207 q 50 647 93 489 l 133 656 q 311 104 210 367 l 381 104 q 535 656 468 367 l 619 647 q 497 212 564 422 q 364 -158 431 1 q 296 -236 342 -210 q 194 -262 250 -262 z "},"z":{"ha":614,"x_min":74,"x_max":543,"o":"m 74 83 l 435 569 l 435 581 l 169 581 l 160 496 l 101 496 q 86 589 86 544 l 86 650 l 526 650 l 526 564 l 165 82 l 165 68 l 461 68 l 469 157 l 528 157 q 543 64 543 106 l 543 0 l 74 0 l 74 83 z "},"ź":{"ha":614,"x_min":74,"x_max":543,"o":"m 253 778 l 368 975 l 481 964 l 315 767 l 253 778 m 74 83 l 435 569 l 435 581 l 169 581 l 160 496 l 101 496 q 86 589 86 544 l 86 650 l 526 650 l 526 564 l 165 82 l 165 68 l 461 68 l 469 157 l 528 157 q 543 64 543 106 l 543 0 l 74 0 l 74 83 z "},"ž":{"ha":617,"x_min":76,"x_max":546,"o":"m 136 961 l 190 974 l 314 850 l 322 850 l 443 974 l 500 961 l 360 778 l 276 778 l 136 961 m 76 83 l 438 569 l 438 581 l 172 581 l 163 496 l 104 496 q 89 589 89 544 l 89 650 l 529 650 l 529 564 l 168 82 l 168 68 l 464 68 l 472 157 l 531 157 q 546 64 546 106 l 546 0 l 76 0 l 76 83 z "},"ż":{"ha":614,"x_min":74,"x_max":543,"o":"m 310 771 q 259 788 278 771 q 240 836 240 806 q 259 886 240 868 q 310 904 278 904 q 361 886 343 904 q 379 836 379 868 q 361 788 379 804 q 310 771 343 771 m 74 83 l 435 569 l 435 581 l 169 581 l 160 496 l 101 496 q 86 589 86 544 l 86 650 l 526 650 l 526 564 l 165 82 l 165 68 l 461 68 l 469 157 l 528 157 q 543 64 543 106 l 543 0 l 74 0 l 74 83 z "},"ẓ":{"ha":615,"x_min":76,"x_max":546,"o":"m 76 83 l 438 569 l 438 581 l 172 581 l 163 496 l 104 496 q 89 589 89 544 l 89 650 l 529 650 l 529 564 l 168 82 l 168 68 l 464 68 l 472 157 l 531 157 q 546 64 546 106 l 546 0 l 76 0 l 76 83 m 321 -221 q 270 -203 289 -221 q 251 -156 251 -186 q 269 -105 251 -122 q 321 -87 288 -87 q 372 -105 354 -87 q 390 -156 390 -122 q 372 -203 390 -186 q 321 -221 354 -221 z "},"ﬁ":{"ha":754,"x_min":49,"x_max":643,"o":"m 139 574 l 49 574 l 60 644 l 139 644 l 139 728 q 173 822 139 781 q 257 890 207 864 q 328 903 288 899 q 399 907 368 907 q 563 885 489 907 l 540 815 q 393 831 481 831 q 247 815 318 831 q 227 766 233 789 q 221 715 221 743 l 221 644 l 643 644 l 643 0 l 561 0 l 561 574 l 221 574 l 221 0 l 139 0 l 139 574 z "},"ﬂ":{"ha":838,"x_min":49,"x_max":804,"o":"m 672 -8 q 604 41 640 4 q 568 107 568 78 l 568 579 l 221 579 l 221 0 l 139 0 l 139 579 l 49 579 l 60 650 l 139 650 l 139 739 q 173 837 139 793 q 257 906 207 881 q 421 922 331 922 q 650 882 542 922 l 650 121 q 652 88 650 100 q 661 64 654 76 l 681 64 l 767 104 l 804 58 q 746 14 781 32 q 672 -8 711 -4 m 568 650 l 568 829 q 406 846 490 846 q 247 831 318 846 q 227 781 233 804 q 221 725 221 757 l 221 650 l 568 650 z "},"ª":{"ha":493,"x_min":68,"x_max":421,"o":"m 201 368 q 103 401 138 368 q 68 486 68 433 q 126 600 68 561 q 282 639 183 639 q 349 633 319 639 l 349 706 q 329 774 349 756 q 258 793 310 793 q 165 783 214 793 l 157 725 l 113 725 q 103 789 103 760 l 103 815 q 185 844 139 833 q 274 856 231 856 q 383 819 344 856 q 421 715 421 782 l 421 375 l 358 375 l 354 440 l 346 440 q 201 368 290 368 m 217 432 q 291 449 258 432 q 351 500 324 467 l 351 571 q 260 578 315 578 q 158 568 203 578 q 143 500 143 538 q 160 449 143 465 q 217 432 178 432 z "},"º":{"ha":518,"x_min":67,"x_max":451,"o":"m 244 368 q 111 429 156 368 q 67 601 67 490 q 116 779 67 718 q 274 840 165 840 q 408 779 364 840 q 451 606 451 718 q 402 428 451 489 q 244 368 353 368 m 261 433 q 354 447 313 433 q 378 594 378 504 q 351 733 378 692 q 258 775 325 775 q 165 760 206 775 q 142 614 142 704 q 168 476 142 518 q 261 433 194 433 z "},"ⁿ":{"ha":547,"x_min":85,"x_max":461,"o":"m 85 856 l 146 856 l 153 779 l 161 779 q 338 861 243 861 q 432 831 403 861 q 461 740 461 801 l 461 368 l 388 368 l 388 783 q 318 794 356 794 q 158 726 231 794 l 158 368 l 85 368 l 85 856 z "},"π":{"ha":832,"x_min":57,"x_max":746,"o":"m 681 -11 q 571 25 606 -11 q 536 144 536 61 l 536 574 l 264 574 l 264 0 l 176 0 l 176 574 l 57 574 l 57 650 l 746 650 l 746 574 l 622 574 l 622 131 q 628 71 622 97 q 686 65 656 65 q 740 68 713 65 l 740 -6 q 681 -11 719 -11 z "},"ก":{"ha":765,"x_min":83,"x_max":654,"o":"m 179 432 l 83 560 l 83 618 q 233 699 154 671 q 408 728 313 728 q 547 703 492 728 q 628 641 601 679 q 654 561 654 603 l 654 0 l 568 0 l 568 613 q 399 650 493 650 q 160 586 247 650 l 160 579 l 246 471 q 261 425 261 451 q 258 399 261 418 l 196 0 l 113 0 l 179 432 z "},"ถ":{"ha":776,"x_min":89,"x_max":665,"o":"m 243 -14 q 164 14 193 -14 q 135 93 135 42 q 136 119 135 111 l 186 432 l 89 560 l 89 618 q 419 728 239 728 q 558 703 503 728 q 639 641 613 679 q 665 561 665 603 l 665 0 l 579 0 l 579 613 q 411 649 510 649 q 278 633 342 649 q 165 586 214 617 l 165 579 l 251 471 q 267 426 267 451 q 264 399 267 418 l 217 124 q 215 103 215 115 q 227 71 215 81 q 265 61 239 61 l 351 61 l 351 4 q 243 -14 300 -14 z "},"ภ":{"ha":796,"x_min":67,"x_max":685,"o":"m 147 -14 q 67 3 103 -14 l 67 60 l 126 60 q 167 70 156 60 q 183 107 179 81 l 229 432 l 128 560 l 128 618 q 274 699 200 671 q 438 728 349 728 q 576 703 521 728 q 658 641 632 679 q 685 561 685 603 l 685 0 l 599 0 l 599 613 q 429 650 532 650 q 204 586 297 650 l 204 579 l 294 471 q 310 428 310 454 q 307 399 310 421 l 261 89 q 226 13 253 39 q 147 -14 200 -14 z "},"ฤ":{"ha":776,"x_min":89,"x_max":665,"o":"m 579 613 q 411 649 510 649 q 278 633 342 649 q 165 586 214 617 l 165 579 l 251 471 q 267 426 267 451 q 264 399 267 418 l 217 124 q 215 103 215 115 q 227 71 215 81 q 265 61 239 61 l 351 61 l 351 4 q 243 -14 300 -14 q 164 14 193 -14 q 135 93 135 42 q 136 119 135 111 l 186 432 l 89 560 l 89 618 q 419 728 239 728 q 558 703 503 728 q 639 641 613 679 q 665 561 665 603 l 665 -271 l 579 -271 l 579 613 z "}}}
